SplineFontDB: 2.0
FontName: THMaliGrade6-BoldItalic
FullName: THMaliGrade6-BoldItalic
FamilyName: TH Mali Grade 6
Weight: Bold
Copyright: Copyright (c) 2006 by Department of Intellectual Property (DIP), Ministry of Commerce and Software Industry Promotion Agency (Public Organization) (SIPA). All rights reserved.
Version: 1.1
ItalicAngle: -14
UnderlinePosition: -55
UnderlineWidth: 50
Ascent: 1638
Descent: 410
Order2: 1
XUID: [1021 375 425136265 16154816]
FSType: 0
OS2Version: 3
OS2_WeightWidthSlopeOnly: 0
OS2_UseTypoMetrics: 1
CreationTime: 1152588240
ModificationTime: 1196247308
PfmFamily: 17
TTFWeight: 700
TTFWidth: 5
LineGap: 123
VLineGap: 0
Panose: 2 0 5 6 0 0 0 2 0 4
OS2TypoAscent: 0
OS2TypoAOffset: 1
OS2TypoDescent: 0
OS2TypoDOffset: 1
OS2TypoLinegap: 0
OS2WinAscent: -18
OS2WinAOffset: 1
OS2WinDescent: 206
OS2WinDOffset: 1
HheadAscent: -18
HheadAOffset: 1
HheadDescent: 223
HheadDOffset: 1
OS2SubXSize: 1434
OS2SubYSize: 1331
OS2SubXOff: 0
OS2SubYOff: 287
OS2SupXSize: 1434
OS2SupYSize: 1331
OS2SupXOff: 0
OS2SupYOff: 977
OS2StrikeYSize: 49
OS2StrikeYPos: 399
OS2FamilyClass: 773
OS2Vendor: 'IPTH'
Lookup: 4 0 0 "'frac' Diagonal Fractions in Latin lookup 0"  {"'frac' Diagonal Fractions in Latin lookup 0 subtable"  } ['frac' ('latn' <'dflt' > ) ]
Lookup: 6 0 0 "'liga' Standard Ligatures in Latin lookup 1"  {"'liga' Standard Ligatures in Latin lookup 1 subtable"  } ['liga' ('latn' <'dflt' > ) ]
Lookup: 6 0 0 "'liga' Standard Ligatures in Latin lookup 2"  {"'liga' Standard Ligatures in Latin lookup 2 subtable"  } ['liga' ('latn' <'dflt' > ) ]
Lookup: 6 0 0 "'liga' Standard Ligatures in Latin lookup 3"  {"'liga' Standard Ligatures in Latin lookup 3 subtable"  } ['liga' ('latn' <'dflt' > ) ]
Lookup: 6 0 0 "'liga' Standard Ligatures in Latin lookup 4"  {"'liga' Standard Ligatures in Latin lookup 4 subtable"  } ['liga' ('latn' <'dflt' > ) ]

StartChar: .notdef
Encoding: 65536 -1 0
Width: 1811
VWidth: 3622
Flags: W
HStem: 25 143<967.038 1193.44 1200.57 1447> 43.5 136.5<350.256 490.135 490.135 578.877 578.877 732.331 732.331 784.227 784.227 886.877 886.877 1083 1083 1197 1197 1199.58> 2360 132<1351.14 1795.38 1795.38 1930.91> 2370 140<835 1020.32 1020.32 1206.45 1206.45 1274.5 1345 1490.79>
Fore
2066 2453 m 0,0,1
 2061 2427 2061 2427 2047.5 2363 c 128,-1,2
 2034 2299 2034 2299 2013.5 2207 c 128,-1,3
 1993 2115 1993 2115 1968.5 1998.5 c 128,-1,4
 1944 1882 1944 1882 1915.5 1752 c 128,-1,5
 1887 1622 1887 1622 1857 1481.5 c 128,-1,6
 1827 1341 1827 1341 1795 1199 c 0,7,8
 1748 989 1748 989 1700 792.5 c 128,-1,9
 1652 596 1652 596 1610.5 442 c 128,-1,10
 1569 288 1569 288 1540 191 c 128,-1,11
 1511 94 1511 94 1502 83 c 1,12,-1
 1548 97 l 1,13,14
 1544 25 1544 25 1468 25 c 0,15,16
 1169 39 1169 39 960.5 43.5 c 128,-1,17
 752 48 752 48 610 48 c 0,18,19
 455 48 455 48 372.5 43.5 c 128,-1,20
 290 39 290 39 256 35 c 0,21,22
 249 35 249 35 240.5 36 c 128,-1,23
 232 37 232 37 225.5 41.5 c 128,-1,24
 219 46 219 46 215.5 56.5 c 128,-1,25
 212 67 212 67 216 87 c 2,26,-1
 232 166 l 2,27,28
 246 233 246 233 270 343 c 128,-1,29
 294 453 294 453 324 591 c 0,30,31
 341 670 341 670 361.5 761.5 c 128,-1,32
 382 853 382 853 403.5 950 c 128,-1,33
 425 1047 425 1047 447 1144.5 c 128,-1,34
 469 1242 469 1242 488 1334 c 2,35,-1
 656 2103 l 2,36,37
 688 2243 688 2243 709.5 2328.5 c 128,-1,38
 731 2414 731 2414 746 2420 c 1,39,40
 727 2420 727 2420 731 2443 c 0,41,42
 741 2492 741 2492 781.5 2503.5 c 128,-1,43
 822 2515 822 2515 868 2510 c 0,44,45
 1148 2501 1148 2501 1345 2496.5 c 128,-1,46
 1542 2492 1542 2492 1677 2492 c 0,47,48
 1831 2492 1831 2492 1911.5 2495.5 c 128,-1,49
 1992 2499 1992 2499 2027 2503 c 0,50,51
 2034 2503 2034 2503 2043 2503 c 128,-1,52
 2052 2503 2052 2503 2058 2498.5 c 128,-1,53
 2064 2494 2064 2494 2067.5 2483.5 c 128,-1,54
 2071 2473 2071 2473 2066 2453 c 0,0,1
831 2370 m 1,55,56
 833 2370 833 2370 837 2375 c 1,57,-1
 835 2370 l 1,58,-1
 831 2370 l 1,55,56
1629 2360 m 2,59,60
 1475 2360 1475 2360 1274.5 2361.5 c 128,-1,61
 1074 2363 1074 2363 837 2370 c 2,62,-1
 835 2370 l 1,63,64
 826 2324 826 2324 801.5 2213.5 c 128,-1,65
 777 2103 777 2103 743 1950 c 128,-1,66
 709 1797 709 1797 669.5 1615.5 c 128,-1,67
 630 1434 630 1434 587 1247 c 0,68,69
 570 1164 570 1164 549.5 1073.5 c 128,-1,70
 529 983 529 983 508.5 891 c 128,-1,71
 488 799 488 799 467 710 c 128,-1,72
 446 621 446 621 428 538 c 0,73,74
 396 389 396 389 376 299 c 128,-1,75
 356 209 356 209 348 180 c 1,76,77
 421 179 421 179 498 178 c 128,-1,78
 575 177 575 177 660 177 c 0,79,80
 727 175 727 175 805 174 c 128,-1,81
 883 173 883 173 969 173 c 0,82,83
 1083 172 1083 172 1197 172 c 128,-1,84
 1311 172 1311 172 1447 168 c 1,85,86
 1452 195 1452 195 1462 240 c 128,-1,87
 1472 285 1472 285 1488 352 c 0,88,89
 1496 394 1496 394 1508.5 448 c 128,-1,90
 1521 502 1521 502 1532.5 557 c 128,-1,91
 1544 612 1544 612 1556.5 665 c 128,-1,92
 1569 718 1569 718 1578 761 c 2,93,-1
 1687 1263 l 1,94,-1
 1840 1953 l 2,95,96
 1845 1974 1845 1974 1851 2005 c 128,-1,97
 1857 2036 1857 2036 1864 2067 c 128,-1,98
 1871 2098 1871 2098 1878.5 2126 c 128,-1,99
 1886 2154 1886 2154 1889 2174 c 0,100,101
 1909 2259 1909 2259 1916.5 2299.5 c 128,-1,102
 1924 2340 1924 2340 1932 2360 c 1,103,-1
 1629 2360 l 2,59,60
EndSplineSet
EndChar
StartChar: exclam
Encoding: 33 33 4
Width: 560
VWidth: 3622
Flags: W
HStem: 18 235<233.739 362.295> 1483 20G<566 605.5>
VStem: 182 234<57.7709 152.485 152.485 174 174 213.437> 287 122<380.757 459.613>
Fore
409 361 m 1,0,1
 396 338 396 338 380 325.5 c 128,-1,2
 364 313 364 313 338 313 c 0,3,4
 287 310 287 310 287 361 c 1,5,-1
 458 1403 l 2,6,7
 472 1456 472 1456 509.5 1479.5 c 128,-1,8
 547 1503 547 1503 585 1503 c 0,9,10
 626 1503 626 1503 657 1477.5 c 128,-1,11
 688 1452 688 1452 679 1404 c 2,12,-1
 409 361 l 1,0,1
416 129 m 1,13,14
 402 83 402 83 363.5 50.5 c 128,-1,15
 325 18 325 18 279 18 c 0,16,17
 223 18 223 18 197.5 54 c 128,-1,18
 172 90 172 90 182 140 c 0,19,20
 193 186 193 186 232.5 219.5 c 128,-1,21
 272 253 272 253 329 253 c 0,22,23
 359 253 359 253 377.5 242.5 c 128,-1,24
 396 232 396 232 406.5 214 c 128,-1,25
 417 196 417 196 419 174 c 128,-1,26
 421 152 421 152 416 131 c 1,27,-1
 416 129 l 1,13,14
EndSplineSet
EndChar
StartChar: quotedbl
Encoding: 34 34 5
Width: 785
VWidth: 3622
Flags: W
HStem: 1224 520<488.5 603 603 603>
VStem: 446 495<1270 1680 1270 1270> 515 147<1652.35 1727.5> 794 147<1652.79 1727.5>
Fore
557 1275 m 1,0,1
 543 1252 543 1252 524.5 1239 c 128,-1,2
 506 1226 506 1226 488.5 1224 c 128,-1,3
 471 1222 471 1222 458.5 1232.5 c 128,-1,4
 446 1243 446 1243 446 1270 c 1,5,-1
 515 1682 l 2,6,7
 524 1712 524 1712 550.5 1728 c 128,-1,8
 577 1744 577 1744 603 1744 c 0,9,10
 631 1744 631 1744 650 1728 c 128,-1,11
 669 1712 669 1712 662 1680 c 2,12,-1
 557 1275 l 1,0,1
833 1270 m 1,13,14
 822 1247 822 1247 805.5 1235.5 c 128,-1,15
 789 1224 789 1224 771.5 1224 c 128,-1,16
 754 1224 754 1224 740.5 1236.5 c 128,-1,17
 727 1249 727 1249 725 1275 c 1,18,-1
 794 1682 l 2,19,20
 803 1712 803 1712 829.5 1728 c 128,-1,21
 856 1744 856 1744 883 1744 c 0,22,23
 911 1744 911 1744 929.5 1728 c 128,-1,24
 948 1712 948 1712 941 1680 c 2,25,-1
 833 1270 l 1,13,14
EndSplineSet
EndChar
StartChar: numbersign
Encoding: 35 35 6
Width: 1303
VWidth: 3622
Flags: W
HStem: 559 122<392.418 501 665 856 1022 1157.23> 918 127<508.634 630 792 994 1160 1295.81>
VStem: 350 950<619 975 619 810> 1139 122<1243.62 1326.24>
Fore
900 685 m 1,0,1
 925 746 925 746 946.5 799.5 c 128,-1,2
 968 853 968 853 994 918 c 1,3,-1
 750 918 l 1,4,5
 729 854 729 854 709.5 801 c 128,-1,6
 690 748 690 748 665 681 c 1,7,-1
 900 685 l 1,0,1
541 681 m 1,8,-1
 630 923 l 1,9,-1
 545 923 l 1,10,11
 497 934 497 934 504 987 c 0,12,13
 515 1049 515 1049 575 1049 c 2,14,-1
 672 1049 l 1,15,-1
 761 1288 l 2,16,17
 787 1351 787 1351 842 1350 c 0,18,19
 870 1348 870 1348 880 1328.5 c 128,-1,20
 890 1309 890 1309 877 1277 c 0,21,22
 854 1215 854 1215 834 1161 c 128,-1,23
 814 1107 814 1107 792 1045 c 1,24,-1
 1035 1045 l 1,25,26
 1047 1079 1047 1079 1060.5 1111 c 128,-1,27
 1074 1143 1074 1143 1086 1166 c 0,28,29
 1100 1196 1100 1196 1112.5 1231 c 128,-1,30
 1125 1266 1125 1266 1139 1311 c 0,31,32
 1146 1328 1146 1328 1167.5 1332.5 c 128,-1,33
 1189 1337 1189 1337 1211 1332 c 128,-1,34
 1233 1327 1233 1327 1248 1315.5 c 128,-1,35
 1263 1304 1263 1304 1261 1289 c 1,36,-1
 1160 1042 l 1,37,-1
 1259 1042 l 1,38,39
 1311 1031 1311 1031 1300 975 c 0,40,41
 1286 918 1286 918 1228 918 c 2,42,-1
 1116 918 l 1,43,44
 1091 856 1091 856 1069 802 c 128,-1,45
 1047 748 1047 748 1022 685 c 1,46,-1
 1157 685 l 1,47,48
 1182 681 1182 681 1190.5 660.5 c 128,-1,49
 1199 640 1199 640 1196 619 c 0,50,51
 1190 596 1190 596 1172.5 577.5 c 128,-1,52
 1155 559 1155 559 1127 559 c 2,53,-1
 978 559 l 1,54,55
 953 493 953 493 932 429.5 c 128,-1,56
 911 366 911 366 886 304 c 1,57,58
 870 279 870 279 847 270.5 c 128,-1,59
 824 262 824 262 804.5 265.5 c 128,-1,60
 785 269 785 269 774.5 284 c 128,-1,61
 764 299 764 299 773 325 c 2,62,-1
 856 559 l 1,63,-1
 624 559 l 1,64,-1
 532 302 l 2,65,66
 508 255 508 255 458 255 c 0,67,68
 428 255 428 255 412 274.5 c 128,-1,69
 396 294 396 294 416 325 c 1,70,-1
 501 559 l 1,71,-1
 400 559 l 2,72,73
 370 559 370 559 357.5 577.5 c 128,-1,74
 345 596 345 596 350 619 c 256,75,76
 356 642 356 642 375 661.5 c 128,-1,77
 394 681 394 681 425 681 c 2,78,-1
 541 681 l 1,8,-1
EndSplineSet
EndChar
StartChar: dollar
Encoding: 36 36 7
Width: 1383
VWidth: 3622
Flags: W
HStem: 71 108<592.96 657.129> 718 115<944.579 1084.04> 738 115<684.096 804.347> 1427 110<811.3 939 1090 1147>
VStem: 1215 110<1149.43 1216.99>
Fore
991 1668 m 2,0,1
 998 1703 998 1703 1021 1720 c 128,-1,2
 1044 1737 1044 1737 1068 1737 c 0,3,4
 1091 1737 1091 1737 1109 1720 c 128,-1,5
 1127 1703 1127 1703 1120 1668 c 2,6,-1
 1090 1528 l 1,7,8
 1226 1505 1226 1505 1290.5 1406 c 128,-1,9
 1355 1307 1355 1307 1325 1141 c 1,10,11
 1312 1113 1312 1113 1296.5 1098 c 128,-1,12
 1281 1083 1281 1083 1256 1081 c 0,13,14
 1208 1079 1208 1079 1215 1134 c 0,15,16
 1220 1174 1220 1174 1216.5 1218.5 c 128,-1,17
 1213 1263 1213 1263 1196.5 1303 c 128,-1,18
 1180 1343 1180 1343 1148 1373.5 c 128,-1,19
 1116 1404 1116 1404 1067 1419 c 1,20,-1
 943 833 l 1,21,22
 1051 808 1051 808 1107.5 759.5 c 128,-1,23
 1164 711 1164 711 1185 651 c 128,-1,24
 1206 591 1206 591 1201 524.5 c 128,-1,25
 1196 458 1196 458 1180 398 c 0,26,27
 1148 285 1148 285 1045 184 c 0,28,29
 948 92 948 92 780 73 c 1,30,-1
 750 -69 l 2,31,32
 743 -104 743 -104 718 -121 c 128,-1,33
 693 -138 693 -138 670 -138 c 0,34,35
 646 -138 646 -138 630 -121 c 128,-1,36
 614 -104 614 -104 621 -69 c 2,37,-1
 651 71 l 1,38,39
 474 81 474 81 369.5 171.5 c 128,-1,40
 265 262 265 262 274 426 c 1,41,-1
 274 425 l 1,42,43
 271 455 271 455 287.5 471.5 c 128,-1,44
 304 488 304 488 336 485 c 0,45,46
 363 483 363 483 375 473 c 128,-1,47
 387 463 387 463 384 439 c 1,48,49
 386 387 386 387 402.5 343 c 128,-1,50
 419 299 419 299 454.5 263.5 c 128,-1,51
 490 228 490 228 544 206 c 128,-1,52
 598 184 598 184 674 179 c 1,53,-1
 792 738 l 1,54,55
 614 757 614 757 532.5 854.5 c 128,-1,56
 451 952 451 952 467 1113 c 0,57,58
 478 1194 478 1194 522 1267.5 c 128,-1,59
 566 1341 566 1341 632.5 1396.5 c 128,-1,60
 699 1452 699 1452 783.5 1489 c 128,-1,61
 868 1526 868 1526 962 1537 c 1,62,-1
 991 1668 l 2,0,1
585 1116 m 0,63,64
 582 1079 582 1079 586.5 1039 c 128,-1,65
 591 999 591 999 615 963 c 128,-1,66
 639 927 639 927 686.5 897.5 c 128,-1,67
 734 868 734 868 817 853 c 1,68,-1
 939 1427 l 1,69,70
 867 1422 867 1422 809.5 1397.5 c 128,-1,71
 752 1373 752 1373 706 1332 c 0,72,73
 658 1288 658 1288 626 1233 c 128,-1,74
 594 1178 594 1178 585 1116 c 0,63,64
1074 400 m 0,75,76
 1106 538 1106 538 1066 612 c 128,-1,77
 1026 686 1026 686 918 718 c 1,78,-1
 803 182 l 1,79,80
 876 193 876 193 925.5 219.5 c 128,-1,81
 975 246 975 246 1006.5 279.5 c 128,-1,82
 1038 313 1038 313 1053 346 c 128,-1,83
 1068 379 1068 379 1074 400 c 0,75,76
EndSplineSet
EndChar
StartChar: percent
Encoding: 37 37 8
Width: 1742
VWidth: 3622
Flags: W
HStem: 103 118<1150.29 1362.94> 529 124<1193.78 1415.55> 923 119<653.23 868.887> 1350 122<699.836 913.334>
VStem: 936 115.5<1193.44 1273.18>
Fore
619 35 m 1,0,1
 568 -14 568 -14 522 -4 c 0,2,3
 465 9 465 9 508 81 c 2,4,-1
 1419 1542 l 2,5,6
 1434 1565 1434 1565 1453.5 1576.5 c 128,-1,7
 1473 1588 1473 1588 1491 1588 c 0,8,9
 1507 1588 1507 1588 1519.5 1580 c 128,-1,10
 1532 1572 1532 1572 1537 1559 c 128,-1,11
 1542 1546 1542 1546 1538 1528.5 c 128,-1,12
 1534 1511 1534 1511 1518 1489 c 2,13,-1
 619 35 l 1,0,1
1045 1192 m 0,14,15
 1024 1100 1024 1100 943 1010 c 1,16,-1
 945 1010 l 1,17,18
 863 923 863 923 729 923 c 0,19,20
 596 923 596 923 539 1012 c 0,21,22
 488 1100 488 1100 509 1199 c 0,23,24
 527 1297 527 1297 617 1383 c 0,25,26
 709 1472 709 1472 845 1472 c 0,27,28
 914 1472 914 1472 957.5 1445.5 c 128,-1,29
 1001 1419 1001 1419 1024 1378 c 128,-1,30
 1047 1337 1047 1337 1051.5 1287.5 c 128,-1,31
 1056 1238 1056 1238 1045 1192 c 0,14,15
936 1190 m 0,32,33
 946 1247 946 1247 918 1297 c 0,34,35
 893 1350 893 1350 824 1350 c 0,36,37
 752 1350 752 1350 699 1307.5 c 128,-1,38
 646 1265 646 1265 631 1203 c 0,39,40
 617 1137 617 1137 651 1089.5 c 128,-1,41
 685 1042 685 1042 759 1042 c 0,42,43
 821 1042 821 1042 869.5 1085 c 128,-1,44
 918 1128 918 1128 936 1190 c 0,32,33
1541 373 m 0,45,46
 1521 276 1521 276 1438 189 c 1,47,-1
 1440 189 l 1,48,49
 1360 103 1360 103 1226 103 c 0,50,51
 1093 103 1093 103 1037 191 c 0,52,53
 1012 237 1012 237 1003 283 c 128,-1,54
 994 329 994 329 1005 380 c 0,55,56
 1026 478 1026 478 1113 564 c 0,57,58
 1205 653 1205 653 1343 653 c 0,59,60
 1412 653 1412 653 1454 626.5 c 128,-1,61
 1496 600 1496 600 1519 559 c 128,-1,62
 1542 518 1542 518 1546.5 468.5 c 128,-1,63
 1551 419 1551 419 1541 373 c 0,45,46
1434 373 m 1,64,65
 1438 398 1438 398 1433.5 425.5 c 128,-1,66
 1429 453 1429 453 1419 478 c 0,67,68
 1394 529 1394 529 1320 529 c 0,69,70
 1247 529 1247 529 1194 487.5 c 128,-1,71
 1141 446 1141 446 1128 384 c 0,72,73
 1114 318 1114 318 1147 269.5 c 128,-1,74
 1180 221 1180 221 1254 221 c 0,75,76
 1316 221 1316 221 1364.5 265.5 c 128,-1,77
 1413 310 1413 310 1434 373 c 1,64,65
EndSplineSet
EndChar
StartChar: ampersand
Encoding: 38 38 9
Width: 1466
VWidth: 3622
Flags: W
HStem: 25 125<512.601 742.623> 1325 125<774.55 916.09>
VStem: 1185 141.5<429.079 559.294 559.294 588.581 588.581 615.5 630.5 657.758 657.758 688.371 688.371 700 700 718>
Fore
957 230 m 1,0,1
 946 235 946 235 937 244 c 1,2,-1
 959 262 l 1,3,-1
 957 230 l 1,0,1
642 150 m 0,4,5
 727 147 727 147 804 172.5 c 128,-1,6
 881 198 881 198 937 244 c 1,7,8
 815 333 815 333 744.5 458.5 c 128,-1,9
 674 584 674 584 639 741 c 1,10,11
 598 732 598 732 561.5 705.5 c 128,-1,12
 525 679 525 679 494 639.5 c 128,-1,13
 463 600 463 600 441 552 c 128,-1,14
 419 504 419 504 409 453 c 0,15,16
 396 398 396 398 401.5 344 c 128,-1,17
 407 290 407 290 433.5 247.5 c 128,-1,18
 460 205 460 205 511 178.5 c 128,-1,19
 562 152 562 152 642 150 c 0,4,5
739 918 m 1,20,21
 791 922 791 922 832.5 941 c 128,-1,22
 874 960 874 960 904 991 c 0,23,24
 932 1021 932 1021 952.5 1056 c 128,-1,25
 973 1091 973 1091 982 1127 c 0,26,27
 989 1162 989 1162 984.5 1195.5 c 128,-1,28
 980 1229 980 1229 963 1257.5 c 128,-1,29
 946 1286 946 1286 917 1303.5 c 128,-1,30
 888 1321 888 1321 844 1325 c 0,31,32
 732 1335 732 1335 665 1279 c 0,33,34
 596 1220 596 1220 578 1146 c 0,35,36
 561 1068 561 1068 596 999 c 0,37,38
 633 932 633 932 739 918 c 1,20,21
1185 700 m 1,39,40
 1180 727 1180 727 1197.5 742 c 128,-1,41
 1215 757 1215 757 1239 759 c 128,-1,42
 1263 761 1263 761 1286 751 c 128,-1,43
 1309 741 1309 741 1316 718 c 0,44,45
 1325 677 1325 677 1326.5 630.5 c 128,-1,46
 1328 584 1328 584 1316 532 c 0,47,48
 1304 471 1304 471 1272 405.5 c 128,-1,49
 1240 340 1240 340 1182 276 c 1,50,51
 1220 239 1220 239 1248.5 222 c 128,-1,52
 1277 205 1277 205 1321 184 c 2,53,-1
 1358 166 l 1,54,55
 1383 149 1383 149 1381.5 125 c 128,-1,56
 1380 101 1380 101 1363 82.5 c 128,-1,57
 1346 64 1346 64 1322 54 c 128,-1,58
 1298 44 1298 44 1277 55 c 1,59,-1
 1281 55 l 1,60,61
 1242 71 1242 71 1211 86 c 128,-1,62
 1180 101 1180 101 1157 113 c 0,63,64
 1137 127 1137 127 1117 146.5 c 128,-1,65
 1097 166 1097 166 1075 191 c 1,66,67
 966 117 966 117 854.5 72.5 c 128,-1,68
 743 28 743 28 628 25 c 0,69,70
 511 21 511 21 434 58.5 c 128,-1,71
 357 96 357 96 314 157.5 c 128,-1,72
 271 219 271 219 260 299 c 128,-1,73
 249 379 249 379 267 460 c 0,74,75
 279 518 279 518 305 575.5 c 128,-1,76
 331 633 331 633 369 682.5 c 128,-1,77
 407 732 407 732 454.5 772 c 128,-1,78
 502 812 502 812 561 838 c 1,79,80
 525 856 525 856 498 883.5 c 128,-1,81
 471 911 471 911 456 948 c 0,82,83
 439 999 439 999 439 1057.5 c 128,-1,84
 439 1116 439 1116 455 1169 c 0,85,86
 471 1226 471 1226 509 1278 c 128,-1,87
 547 1330 547 1330 600 1373 c 0,88,89
 654 1413 654 1413 731 1433.5 c 128,-1,90
 808 1454 808 1454 888 1450 c 0,91,92
 950 1447 950 1447 998.5 1422 c 128,-1,93
 1047 1397 1047 1397 1075 1351 c 0,94,95
 1130 1256 1130 1256 1114 1143 c 0,96,97
 1098 1024 1098 1024 1005 923 c 0,98,99
 920 828 920 828 775 801 c 1,100,101
 794 725 794 725 818 659.5 c 128,-1,102
 842 594 842 594 872 539 c 0,103,104
 906 483 906 483 952.5 431.5 c 128,-1,105
 999 380 999 380 1063 334 c 1,106,107
 1111 377 1111 377 1140 427.5 c 128,-1,108
 1169 478 1169 478 1180 531 c 0,109,110
 1189 573 1189 573 1189.5 615.5 c 128,-1,111
 1190 658 1190 658 1185 700 c 1,39,40
EndSplineSet
EndChar
StartChar: quotesingle
Encoding: 39 39 10
Width: 417
VWidth: 3622
Flags: W
HStem: 968 527<407 525 525 525>
VStem: 364 110<995.812 1125.22>
Fore
474 1019 m 1,0,1
 463 994 463 994 444 981 c 128,-1,2
 425 968 425 968 407 968 c 128,-1,3
 389 968 389 968 376.5 981 c 128,-1,4
 364 994 364 994 364 1021 c 1,5,-1
 435 1429 l 1,6,7
 446 1461 446 1461 472.5 1478 c 128,-1,8
 499 1495 499 1495 525 1495 c 0,9,10
 550 1495 550 1495 568.5 1477 c 128,-1,11
 587 1459 587 1459 580 1427 c 2,12,-1
 474 1019 l 1,0,1
EndSplineSet
EndChar
StartChar: parenleft
Encoding: 40 40 11
Width: 864
VWidth: 3622
Flags: W
VStem: 243 682<160 1480 160 160>
Fore
550 -129 m 1,0,1
 578 -159 578 -159 570 -198 c 0,2,3
 564 -219 564 -219 551 -236 c 128,-1,4
 538 -253 538 -253 519.5 -262.5 c 128,-1,5
 501 -272 501 -272 479.5 -269.5 c 128,-1,6
 458 -267 458 -267 437 -248 c 1,7,8
 290 -57 290 -57 243 160 c 128,-1,9
 196 377 196 377 251 640 c 0,10,11
 308 900 308 900 454.5 1131 c 128,-1,12
 601 1362 601 1362 833 1555 c 1,13,14
 856 1567 856 1567 875.5 1564.5 c 128,-1,15
 895 1562 895 1562 907.5 1550.5 c 128,-1,16
 920 1539 920 1539 925 1520.5 c 128,-1,17
 930 1502 930 1502 925 1480 c 0,18,19
 922 1465 922 1465 911 1447 c 128,-1,20
 900 1429 900 1429 881 1415 c 0,21,22
 693 1256 693 1256 566 1058.5 c 128,-1,23
 439 861 439 861 391 640 c 0,24,25
 343 414 343 414 385.5 223 c 128,-1,26
 428 32 428 32 550 -131 c 1,27,-1
 550 -129 l 1,0,1
EndSplineSet
EndChar
StartChar: parenright
Encoding: 41 41 12
Width: 864
VWidth: 3622
Flags: W
VStem: 173 681.5<-200 1131 -200 -200>
Fore
225 -131 m 1,0,1
 416 32 416 32 538 223 c 128,-1,2
 660 414 660 414 708 640 c 0,3,4
 755 861 755 861 712 1059.5 c 128,-1,5
 669 1258 669 1258 552 1415 c 1,6,7
 522 1445 522 1445 531 1482 c 0,8,9
 534 1503 534 1503 547.5 1522 c 128,-1,10
 561 1541 561 1541 579.5 1553 c 128,-1,11
 598 1565 598 1565 617.5 1566 c 128,-1,12
 637 1567 637 1567 654 1555 c 1,13,14
 805 1362 805 1362 854.5 1131 c 128,-1,15
 904 900 904 900 847 640 c 0,16,17
 792 377 792 377 652.5 160 c 128,-1,18
 513 -57 513 -57 287 -248 c 0,19,20
 258 -267 258 -267 235 -269.5 c 128,-1,21
 212 -272 212 -272 197 -263.5 c 128,-1,22
 182 -255 182 -255 176 -238 c 128,-1,23
 170 -221 170 -221 173 -200 c 0,24,25
 182 -159 182 -159 225 -129 c 1,26,-1
 225 -131 l 1,0,1
EndSplineSet
EndChar
StartChar: asterisk
Encoding: 42 42 13
Width: 1061
VWidth: 3622
Flags: W
HStem: 640 803<688 856 1324.46 1439>
VStem: 389 782<833 1228 1301.46 1416>
Fore
876 1026 m 1,0,1
 927 994 927 994 979 959.5 c 128,-1,2
 1031 925 1031 925 1083 891 c 1,3,4
 1114 854 1114 854 1077 812 c 0,5,6
 1035 766 1035 766 996 796 c 2,7,-1
 810 920 l 1,8,-1
 762 697 l 2,9,10
 757 667 757 667 734 653.5 c 128,-1,11
 711 640 711 640 688 640 c 0,12,13
 663 640 663 640 649 653.5 c 128,-1,14
 635 667 635 667 640 697 c 2,15,-1
 686 927 l 1,16,-1
 458 808 l 2,17,18
 402 785 402 785 389 833 c 0,19,20
 377 877 377 877 414 904 c 2,21,-1
 642 1026 l 1,22,-1
 439 1162 l 2,23,24
 396 1197 396 1197 433 1242 c 0,25,26
 476 1289 476 1289 518 1261 c 1,27,-1
 516 1261 l 1,28,-1
 727 1123 l 1,29,30
 734 1153 734 1153 736.5 1166.5 c 0,31,-1
 750 1233 l 0,32,33
 757 1268 757 1268 763 1303.5 c 128,-1,34
 769 1339 769 1339 778 1378 c 0,35,36
 796 1447 796 1447 856 1443 c 0,37,38
 914 1440 914 1440 900 1378 c 2,39,-1
 853 1132 l 1,40,-1
 1084 1249 l 2,41,42
 1160 1284 1160 1284 1171 1228 c 0,43,44
 1182 1178 1182 1178 1118 1150 c 1,45,-1
 1120 1151 l 1,46,-1
 876 1026 l 1,0,1
EndSplineSet
EndChar
StartChar: plus
Encoding: 43 43 14
Width: 1123
VWidth: 3622
Flags: W
HStem: 379 728<630 794 630 794 892.938 1041.3> 687 114<338.062 506 506 529 529 642 782 802.396 802.396 815.345 815.345 837.758 837.758 895.546 895.546 906.727 906.727 960.314>
VStem: 334 747<742.51 757 757 792.577 757 770.5 1147.05 1211.46>
Fore
660 805 m 1,0,1
 674 872 674 872 683.5 914.5 c 128,-1,2
 693 957 693 957 700.5 982.5 c 128,-1,3
 708 1008 708 1008 711.5 1023 c 128,-1,4
 715 1038 715 1038 716 1051 c 1,5,6
 731 1083 731 1083 748.5 1095 c 128,-1,7
 766 1107 766 1107 794 1107 c 0,8,9
 854 1107 854 1107 842 1056 c 0,10,11
 826 999 826 999 815.5 960.5 c 128,-1,12
 805 922 805 922 798 892.5 c 128,-1,13
 791 863 791 863 787.5 842 c 128,-1,14
 784 821 784 821 782 803 c 1,15,16
 807 803 807 803 822.5 802 c 128,-1,17
 838 801 838 801 853 801 c 0,18,19
 876 801 876 801 891 801 c 128,-1,20
 906 801 906 801 922.5 803 c 128,-1,21
 939 805 939 805 961 808.5 c 128,-1,22
 983 812 983 812 1021 819 c 1,23,-1
 1019 819 l 1,24,25
 1044 824 1044 824 1058 818 c 128,-1,26
 1072 812 1072 812 1077.5 799.5 c 128,-1,27
 1083 787 1083 787 1081 770.5 c 128,-1,28
 1079 754 1079 754 1072 738 c 0,29,30
 1060 716 1060 716 1023.5 705.5 c 128,-1,31
 987 695 987 695 942 690.5 c 128,-1,32
 897 686 897 686 849 687 c 128,-1,33
 801 688 801 688 764 690 c 1,34,35
 743 605 743 605 731.5 556.5 c 128,-1,36
 720 508 720 508 713 481.5 c 128,-1,37
 706 455 706 455 703 446 c 128,-1,38
 700 437 700 437 699 432 c 0,39,40
 683 373 683 373 630 379 c 0,41,42
 577 380 577 380 591 444 c 2,43,-1
 642 686 l 1,44,-1
 370 695 l 2,45,46
 324 702 324 702 334 757 c 0,47,48
 348 814 348 814 398 814 c 2,49,-1
 660 805 l 1,0,1
EndSplineSet
EndChar
StartChar: comma
Encoding: 44 44 15
Width: 622
VWidth: 3622
Flags: W
HStem: -186 96<92.8679 123.031 107.949 258.468>
VStem: 35.5 513.5<-121 181 -105.051 45.4683>
Fore
92 -90 m 1,0,1
 124 -96 124 -96 154 -96 c 0,2,3
 237 -96 237 -96 306 -53 c 0,4,5
 368 -18 368 -18 398 35 c 1,6,7
 384 28 384 28 377 28 c 128,-1,8
 370 28 370 28 354 28 c 0,9,10
 318 28 318 28 294 41 c 1,11,-1
 297 41 l 1,12,13
 272 51 272 51 256.5 71.5 c 128,-1,14
 241 92 241 92 235.5 118.5 c 128,-1,15
 230 145 230 145 234.5 175 c 128,-1,16
 239 205 239 205 255 235 c 0,17,18
 279 276 279 276 321 302.5 c 128,-1,19
 363 329 363 329 410 329 c 0,20,21
 426 329 426 329 442 326.5 c 128,-1,22
 458 324 458 324 472 315 c 0,23,24
 525 290 525 290 545 210 c 1,25,-1
 545 212 l 1,26,27
 550 198 550 198 549 181 c 128,-1,28
 548 164 548 164 545 143 c 0,29,30
 531 78 531 78 476 0 c 0,31,32
 442 -48 442 -48 401.5 -83.5 c 128,-1,33
 361 -119 361 -119 317.5 -141.5 c 128,-1,34
 274 -164 274 -164 230.5 -175 c 128,-1,35
 187 -186 187 -186 150 -186 c 0,36,37
 110 -186 110 -186 73 -173 c 0,38,39
 46 -163 46 -163 38 -148.5 c 128,-1,40
 30 -134 30 -134 35.5 -121 c 128,-1,41
 41 -108 41 -108 56 -99 c 128,-1,42
 71 -90 71 -90 90 -90 c 2,43,-1
 92 -90 l 1,0,1
347 203 m 1,44,45
 333 182 333 182 333.5 158 c 128,-1,46
 334 134 334 134 348 131 c 1,47,48
 370 122 370 122 396.5 132.5 c 128,-1,49
 423 143 423 143 439 168 c 1,50,-1
 437 164 l 1,51,52
 444 179 444 179 438 200 c 128,-1,53
 432 221 432 221 412 232 c 1,54,-1
 416 232 l 1,55,56
 402 235 402 235 379 228 c 128,-1,57
 356 221 356 221 347 207 c 1,58,-1
 347 203 l 1,44,45
EndSplineSet
EndChar
StartChar: hyphen
Encoding: 45 45 16
Width: 1050
VWidth: 3622
Flags: W
HStem: 695 119<314.047 476.29 476.29 616.5 616.5 833.086> 707.5 111.5<620.445 910.342 910.342 994>
VStem: 310 743.5<724.123 789.468>
Fore
996 819 m 1,0,-1
 994 819 l 1,1,2
 1019 824 1019 824 1032 815.5 c 128,-1,3
 1045 807 1045 807 1050.5 790 c 128,-1,4
 1056 773 1056 773 1053.5 753.5 c 128,-1,5
 1051 734 1051 734 1044 718 c 1,6,7
 1038 713 1038 713 983.5 711 c 128,-1,8
 929 709 929 709 836 707.5 c 128,-1,9
 743 706 743 706 616.5 703 c 128,-1,10
 490 700 490 700 345 695 c 1,11,12
 299 702 299 702 310 757 c 0,13,14
 324 814 324 814 373 814 c 2,15,-1
 996 819 l 1,0,-1
EndSplineSet
EndChar
StartChar: period
Encoding: 46 46 17
Width: 622
VWidth: 3622
Flags: W
HStem: 13.5 224.5<314.33 336.691 304 343 343 343>
VStem: 213 224.5<104.952 146.706>
Fore
230 170 m 1,0,1
 241 186 241 186 259.5 201 c 128,-1,2
 278 216 278 216 300 225.5 c 128,-1,3
 322 235 322 235 343 238 c 128,-1,4
 364 241 364 241 379 235 c 1,5,-1
 377 235 l 1,6,7
 400 228 400 228 414 211.5 c 128,-1,8
 428 195 428 195 434 174.5 c 128,-1,9
 440 154 440 154 437.5 132.5 c 128,-1,10
 435 111 435 111 426 96 c 0,11,12
 416 73 416 73 395.5 55 c 128,-1,13
 375 37 375 37 352 26.5 c 128,-1,14
 329 16 329 16 304 13.5 c 128,-1,15
 279 11 279 11 258 19 c 1,16,-1
 260 18 l 1,17,18
 223 27 223 27 213 73 c 128,-1,19
 203 119 203 119 230 168 c 1,20,-1
 230 170 l 1,0,1
EndSplineSet
EndChar
StartChar: slash
Encoding: 47 47 18
Width: 1068
VWidth: 3622
Flags: W
Fore
290 2 m 1,0,1
 267 -23 267 -23 244 -32.5 c 128,-1,2
 221 -42 221 -42 205 -42 c 0,3,4
 173 -42 173 -42 164.5 -23 c 128,-1,5
 156 -4 156 -4 180 37 c 1,6,-1
 180 35 l 1,7,-1
 1097 1742 l 2,8,9
 1111 1769 1111 1769 1130.5 1781.5 c 128,-1,10
 1150 1794 1150 1794 1167 1794 c 0,11,12
 1197 1794 1197 1794 1211.5 1765.5 c 128,-1,13
 1226 1737 1226 1737 1196 1695 c 1,14,-1
 1197 1698 l 1,15,-1
 290 2 l 1,0,1
EndSplineSet
EndChar
StartChar: zero
Encoding: 48 48 19
Width: 1268
VWidth: 3622
Flags: W
HStem: 25 138<455.776 847.789> 1247 140<700.688 1059.31>
VStem: 177 140.5<311.615 441.5 441.5 592.605> 1205.5 139<758.168 976.984>
Fore
1323 662 m 0,0,1
 1298 547 1298 547 1239 432.5 c 128,-1,2
 1180 318 1180 318 1089.5 228 c 128,-1,3
 999 138 999 138 879 81.5 c 128,-1,4
 759 25 759 25 612 25 c 0,5,6
 462 25 462 25 369 84 c 128,-1,7
 276 143 276 143 230 236 c 128,-1,8
 184 329 184 329 177 441.5 c 128,-1,9
 170 554 170 554 193 662 c 0,10,11
 207 729 207 729 236 809.5 c 128,-1,12
 265 890 265 890 308.5 970.5 c 128,-1,13
 352 1051 352 1051 411.5 1126 c 128,-1,14
 471 1201 471 1201 545 1259.5 c 128,-1,15
 619 1318 619 1318 710 1352.5 c 128,-1,16
 801 1387 801 1387 909 1387 c 256,17,18
 1017 1387 1017 1387 1094 1353.5 c 128,-1,19
 1171 1320 1171 1320 1221.5 1263 c 128,-1,20
 1272 1206 1272 1206 1300 1133 c 128,-1,21
 1328 1060 1328 1060 1339 979.5 c 128,-1,22
 1350 899 1350 899 1344.5 816.5 c 128,-1,23
 1339 734 1339 734 1323 662 c 0,0,1
1183 662 m 0,24,25
 1206 773 1206 773 1205.5 879 c 128,-1,26
 1205 985 1205 985 1171 1066.5 c 128,-1,27
 1137 1148 1137 1148 1066.5 1197.5 c 128,-1,28
 996 1247 996 1247 883 1247 c 0,29,30
 766 1247 766 1247 674 1195.5 c 128,-1,31
 582 1144 582 1144 515 1061 c 128,-1,32
 448 978 448 978 403.5 873 c 128,-1,33
 359 768 359 768 336 662 c 0,34,35
 315 559 315 559 317.5 468 c 128,-1,36
 320 377 320 377 354.5 309.5 c 128,-1,37
 389 242 389 242 459 202.5 c 128,-1,38
 529 163 529 163 639 163 c 0,39,40
 755 163 755 163 846 202 c 128,-1,41
 937 241 937 241 1004.5 308 c 128,-1,42
 1072 375 1072 375 1116 466 c 128,-1,43
 1160 557 1160 557 1183 662 c 0,24,25
EndSplineSet
EndChar
StartChar: one
Encoding: 49 49 20
Width: 933
VWidth: 3622
Flags: W
VStem: 436 507<1003.5 1325 133.817 1003.5>
Fore
773 1162 m 1,0,1
 743 1132 743 1132 714 1103.5 c 128,-1,2
 685 1075 685 1075 654 1049 c 0,3,4
 624 1024 624 1024 595 998.5 c 128,-1,5
 566 973 566 973 532 948 c 1,6,7
 506 934 506 934 480.5 939.5 c 128,-1,8
 455 945 455 945 442.5 961.5 c 128,-1,9
 430 978 430 978 436 1003.5 c 128,-1,10
 442 1029 442 1029 478 1058 c 1,11,-1
 476 1056 l 1,12,13
 534 1100 534 1100 580 1141.5 c 128,-1,14
 626 1183 626 1183 666 1224 c 128,-1,15
 706 1265 706 1265 739.5 1305.5 c 128,-1,16
 773 1346 773 1346 808 1392 c 1,17,-1
 807 1390 l 1,18,19
 822 1413 822 1413 844.5 1410.5 c 128,-1,20
 867 1408 867 1408 888 1393 c 128,-1,21
 909 1378 909 1378 925 1357.5 c 128,-1,22
 941 1337 941 1337 943 1325 c 1,23,-1
 692 80 l 2,24,25
 686 51 686 51 657 36 c 128,-1,26
 628 21 628 21 600 21 c 256,27,28
 571 21 571 21 553.5 33.5 c 128,-1,29
 536 46 536 46 543 76 c 2,30,-1
 649 545 l 1,31,-1
 773 1162 l 1,0,1
EndSplineSet
EndChar
StartChar: two
Encoding: 50 50 21
Width: 1155
VWidth: 3622
Flags: W
HStem: 9.5 116.5<874.689 915.55 915.55 976.84> 17 125.5<310.094 383.004 383.004 426.123 426.123 517.819 471.971 601.773 576.515 627.031 627.031 707.365 707.365 767.954> 1358 121<733.556 1018.78>
VStem: 368 113<1025.56 1206.13>
Fore
799 554 m 0,0,1
 709 506 709 506 628 452 c 128,-1,2
 547 398 547 398 481.5 342.5 c 128,-1,3
 416 287 416 287 371.5 233 c 128,-1,4
 327 179 327 179 310 134 c 1,5,6
 391 138 391 138 455.5 140.5 c 128,-1,7
 520 143 520 143 580 143 c 0,8,9
 628 143 628 143 674 142.5 c 128,-1,10
 720 142 720 142 769.5 139 c 128,-1,11
 819 136 819 136 873 132.5 c 128,-1,12
 927 129 927 129 989 126 c 0,13,14
 1017 120 1017 120 1022.5 100.5 c 128,-1,15
 1028 81 1028 81 1018 59 c 128,-1,16
 1008 37 1008 37 989.5 20.5 c 128,-1,17
 971 4 971 4 953 4 c 0,18,19
 925 7 925 7 877.5 9.5 c 128,-1,20
 830 12 830 12 770.5 14 c 128,-1,21
 711 16 711 16 644 17 c 128,-1,22
 577 18 577 18 509 18 c 0,23,24
 430 18 430 18 343 16 c 128,-1,25
 256 14 256 14 161 11 c 0,26,27
 143 11 143 11 134.5 19 c 128,-1,28
 126 27 126 27 129 35 c 1,29,-1
 131 44 l 2,30,31
 175 182 175 182 328 341.5 c 128,-1,32
 481 501 481 501 741 646 c 0,33,34
 810 685 810 685 868.5 735 c 128,-1,35
 927 785 927 785 973 841 c 128,-1,36
 1019 897 1019 897 1049 955.5 c 128,-1,37
 1079 1014 1079 1014 1091 1068 c 0,38,39
 1114 1180 1114 1180 1058 1272 c 0,40,41
 1003 1358 1003 1358 845 1358 c 0,42,43
 771 1358 771 1358 712 1335 c 128,-1,44
 653 1312 653 1312 607.5 1271.5 c 128,-1,45
 562 1231 562 1231 531.5 1174.5 c 128,-1,46
 501 1118 501 1118 481 1051 c 0,47,48
 467 1010 467 1010 410 1010 c 256,49,50
 354 1010 354 1010 368 1079 c 0,51,52
 386 1159 386 1159 432.5 1231.5 c 128,-1,53
 479 1304 479 1304 546.5 1358.5 c 128,-1,54
 614 1413 614 1413 696 1446 c 128,-1,55
 778 1479 778 1479 863 1479 c 0,56,57
 975 1479 975 1479 1051 1445.5 c 128,-1,58
 1127 1412 1127 1412 1169.5 1355 c 128,-1,59
 1212 1298 1212 1298 1222.5 1223 c 128,-1,60
 1233 1148 1233 1148 1215 1065 c 0,61,62
 1185 923 1185 923 1080 785 c 128,-1,63
 975 647 975 647 799 554 c 0,0,1
EndSplineSet
EndChar
StartChar: three
Encoding: 51 51 22
Width: 1199
VWidth: 3622
Flags: W
HStem: 0 115<548.486 854.836> 1318 118<843.04 1074.71>
VStem: 180.5 124<333.5 389.654 389.654 433.142 433.142 518 518 587.302> 462 118<934.502 948 952.936 1050.06>
Fore
504 909 m 0,0,1
 463 899 463 899 462 948 c 2,2,-1
 462 952 l 2,3,4
 458 982 458 982 460.5 1007.5 c 128,-1,5
 463 1033 463 1033 469 1060 c 0,6,7
 486 1143 486 1143 535 1212 c 128,-1,8
 584 1281 584 1281 653 1331 c 128,-1,9
 722 1381 722 1381 805 1408.5 c 128,-1,10
 888 1436 888 1436 976 1436 c 0,11,12
 1056 1436 1056 1436 1124 1409.5 c 128,-1,13
 1192 1383 1192 1383 1239 1334.5 c 128,-1,14
 1286 1286 1286 1286 1305.5 1218 c 128,-1,15
 1325 1150 1325 1150 1307 1065 c 0,16,17
 1288 971 1288 971 1219 874 c 0,18,19
 1194 838 1194 838 1154 808 c 128,-1,20
 1114 778 1114 778 1067 757 c 1,21,22
 1120 731 1120 731 1150 688.5 c 128,-1,23
 1180 646 1180 646 1193 595.5 c 128,-1,24
 1206 545 1206 545 1204.5 491 c 128,-1,25
 1203 437 1203 437 1192 386 c 0,26,27
 1182 333 1182 333 1144.5 265.5 c 128,-1,28
 1107 198 1107 198 1041.5 139.5 c 128,-1,29
 976 81 976 81 880 40.5 c 128,-1,30
 784 0 784 0 654 0 c 0,31,32
 538 0 538 0 438 23 c 128,-1,33
 338 46 338 46 271.5 104.5 c 128,-1,34
 205 163 205 163 180.5 263 c 128,-1,35
 156 363 156 363 189 518 c 0,36,37
 205 594 205 594 264 594 c 0,38,39
 324 594 324 594 311 534 c 0,40,41
 285 414 285 414 304.5 333.5 c 128,-1,42
 324 253 324 253 374.5 204.5 c 128,-1,43
 425 156 425 156 500 135.5 c 128,-1,44
 575 115 575 115 660 115 c 0,45,46
 761 115 761 115 835 140.5 c 128,-1,47
 909 166 909 166 959.5 206 c 128,-1,48
 1010 246 1010 246 1038.5 291 c 128,-1,49
 1067 336 1067 336 1075 377 c 0,50,51
 1111 547 1111 547 1029 617 c 0,52,53
 950 692 950 692 794 692 c 0,54,55
 748 692 748 692 743 738 c 0,56,57
 743 766 743 766 753.5 782 c 128,-1,58
 764 798 764 798 792 803 c 0,59,60
 982 826 982 826 1075.5 900.5 c 128,-1,61
 1169 975 1169 975 1194 1084 c 0,62,63
 1203 1125 1203 1125 1194 1166.5 c 128,-1,64
 1185 1208 1185 1208 1156 1241.5 c 128,-1,65
 1127 1275 1127 1275 1077.5 1296.5 c 128,-1,66
 1028 1318 1028 1318 955 1318 c 0,67,68
 891 1318 891 1318 831 1299.5 c 128,-1,69
 771 1281 771 1281 720.5 1246.5 c 128,-1,70
 670 1212 670 1212 635 1162.5 c 128,-1,71
 600 1113 600 1113 587 1051 c 0,72,73
 580 1021 580 1021 580 975 c 1,74,75
 573 950 573 950 552.5 934 c 128,-1,76
 532 918 532 918 504 909 c 0,0,1
EndSplineSet
EndChar
StartChar: four
Encoding: 52 52 23
Width: 1155
VWidth: 3622
Flags: W
HStem: 11 21G<762.5 821> 449 119<448.187 620.031 620.031 697.819 697.819 794.881 794.881 839.537> 456 135<279.034 299.9 299.9 322 322 361.732 361.732 409.5 445 504.595>
VStem: 998 115<1046.27 1109.95>
Fore
985 1366 m 1,0,1
 968 1351 968 1351 937 1322 c 128,-1,2
 906 1293 906 1293 860 1247 c 256,3,4
 814 1201 814 1201 765 1149.5 c 128,-1,5
 716 1098 716 1098 662 1040 c 128,-1,6
 608 982 608 982 554.5 922.5 c 128,-1,7
 501 863 501 863 446 801 c 0,8,9
 398 746 398 746 354 693 c 128,-1,10
 310 640 310 640 279 594 c 1,11,12
 281 596 281 596 322 591 c 0,13,14
 363 584 363 584 409.5 580.5 c 128,-1,15
 456 577 456 577 509 573 c 0,16,17
 621 568 621 568 731 568 c 0,18,19
 775 568 775 568 809.5 568 c 128,-1,20
 844 568 844 568 868 571 c 1,21,-1
 998 1074 l 2,22,23
 1008 1134 1008 1134 1068 1130 c 0,24,25
 1098 1128 1098 1128 1109 1110.5 c 128,-1,26
 1120 1093 1120 1093 1113 1065 c 2,27,-1
 996 598 l 1,28,29
 1065 607 1065 607 1115.5 614 c 128,-1,30
 1166 621 1166 621 1190 624 c 0,31,32
 1205 628 1205 628 1210 628 c 2,33,34
 1231 633 1231 633 1247 624.5 c 128,-1,35
 1263 616 1263 616 1270 600.5 c 128,-1,36
 1277 585 1277 585 1273.5 566.5 c 128,-1,37
 1270 548 1270 548 1252 531 c 1,38,-1
 1256 534 l 1,39,40
 1235 518 1235 518 1153 506 c 0,41,42
 1121 501 1121 501 1079.5 495.5 c 128,-1,43
 1038 490 1038 490 964 476 c 1,44,45
 939 373 939 373 912.5 270.5 c 128,-1,46
 886 168 886 168 861 65 c 0,47,48
 851 11 851 11 791 11 c 0,49,50
 734 11 734 11 745 73 c 2,51,-1
 840 453 l 1,52,53
 799 451 799 451 749.5 450 c 128,-1,54
 700 449 700 449 646 449 c 0,55,56
 547 449 547 449 445 456 c 128,-1,57
 343 463 343 463 267 480 c 128,-1,58
 191 497 191 497 155.5 526 c 128,-1,59
 120 555 120 555 152 598 c 0,60,61
 202 674 202 674 280.5 775.5 c 128,-1,62
 359 877 359 877 458 989.5 c 128,-1,63
 557 1102 557 1102 671 1218.5 c 128,-1,64
 785 1335 785 1335 906 1445 c 0,65,66
 932 1465 932 1465 957.5 1464 c 128,-1,67
 983 1463 983 1463 997.5 1448.5 c 128,-1,68
 1012 1434 1012 1434 1011 1412 c 128,-1,69
 1010 1390 1010 1390 985 1367 c 1,70,-1
 985 1366 l 1,0,1
EndSplineSet
EndChar
StartChar: five
Encoding: 53 53 24
Width: 1213
VWidth: 3622
Flags: W
HStem: 11.5 109<401.91 428.5 482.5 522.585 522.585 546.995 546.995 751.109> 863 115<667.496 953.141> 1316 130<646 665 665 690.154 690.154 732.842 732.842 888.573 888.573 931.031 931.031 1144.25> 1339 115<1041.31 1251>
Fore
379 812 m 1,0,1
 426 994 426 994 457 1108 c 128,-1,2
 488 1222 488 1222 506.5 1288.5 c 128,-1,3
 525 1355 525 1355 534 1384 c 128,-1,4
 543 1413 543 1413 547 1424 c 1,5,-1
 547 1431 l 1,6,7
 548 1434 548 1434 551.5 1439.5 c 128,-1,8
 555 1445 555 1445 557 1447 c 0,9,10
 568 1456 568 1456 595.5 1456 c 128,-1,11
 623 1456 623 1456 665 1452 c 0,12,13
 720 1449 720 1449 801.5 1446 c 128,-1,14
 883 1443 883 1443 976 1443 c 0,15,16
 1111 1443 1111 1443 1268 1454 c 0,17,18
 1289 1454 1289 1454 1304.5 1440 c 128,-1,19
 1320 1426 1320 1426 1311 1399 c 0,20,21
 1295 1350 1295 1350 1251 1339 c 0,22,23
 1144 1327 1144 1327 1038 1321.5 c 128,-1,24
 932 1316 932 1316 824 1316 c 0,25,26
 773 1316 773 1316 734 1316 c 128,-1,27
 695 1316 695 1316 646 1320 c 1,28,29
 621 1224 621 1224 598 1141 c 128,-1,30
 575 1058 575 1058 550 960 c 1,31,32
 608 969 608 969 665 973.5 c 128,-1,33
 722 978 722 978 773 978 c 0,34,35
 918 982 918 982 1009 942 c 128,-1,36
 1100 902 1100 902 1147 832 c 128,-1,37
 1194 762 1194 762 1201 667.5 c 128,-1,38
 1208 573 1208 573 1185 467 c 0,39,40
 1132 237 1132 237 959 117 c 0,41,42
 785 2 785 2 589 0 c 0,43,44
 509 -4 509 -4 428.5 11.5 c 128,-1,45
 348 27 348 27 287 69 c 128,-1,46
 226 111 226 111 197 186.5 c 128,-1,47
 168 262 168 262 193 382 c 0,48,49
 198 403 198 403 204 426 c 128,-1,50
 210 449 210 449 219 474 c 0,51,52
 233 504 233 504 252.5 517.5 c 128,-1,53
 272 531 272 531 295 531 c 256,54,55
 318 531 318 531 337 514 c 128,-1,56
 356 497 356 497 347 462 c 0,57,58
 338 432 338 432 333 409 c 0,59,60
 313 318 313 318 330 260 c 128,-1,61
 347 202 347 202 386.5 167.5 c 128,-1,62
 426 133 426 133 482.5 120.5 c 128,-1,63
 539 108 539 108 601 111 c 0,64,65
 677 115 677 115 753.5 139 c 128,-1,66
 830 163 830 163 894.5 208 c 128,-1,67
 959 253 959 253 1005.5 318.5 c 128,-1,68
 1052 384 1052 384 1072 471 c 0,69,70
 1109 642 1109 642 1028 752 c 0,71,72
 946 863 946 863 769 863 c 0,73,74
 688 863 688 863 599.5 844.5 c 128,-1,75
 511 826 511 826 405 791 c 1,76,-1
 379 812 l 1,0,1
EndSplineSet
EndChar
StartChar: six
Encoding: 54 54 25
Width: 1257
VWidth: 3622
Flags: W
HStem: 0 115<444.791 837.68> 738 109<703.737 971.363> 1059 20G<1211.5 1215> 1311 116<757.881 1073.92>
Fore
1213 1079 m 1,0,1
 1213 1077 1213 1077 1215 1077 c 1,2,-1
 1213 1079 l 1,0,1
1215 1084 m 1,3,-1
 1213 1079 l 1,4,5
 1210 1097 1210 1097 1200 1135.5 c 128,-1,6
 1190 1174 1190 1174 1163.5 1213 c 128,-1,7
 1137 1252 1137 1252 1088.5 1281.5 c 128,-1,8
 1040 1311 1040 1311 960 1311 c 0,9,10
 831 1311 831 1311 727.5 1250.5 c 128,-1,11
 624 1190 624 1190 546.5 1096.5 c 128,-1,12
 469 1003 469 1003 416.5 886 c 128,-1,13
 364 769 364 769 340 656 c 1,14,15
 393 722 393 722 456.5 760 c 128,-1,16
 520 798 520 798 584.5 817.5 c 128,-1,17
 649 837 649 837 710 842 c 128,-1,18
 771 847 771 847 819 847 c 0,19,20
 946 847 946 847 1025 803 c 128,-1,21
 1104 759 1104 759 1145.5 693.5 c 128,-1,22
 1187 628 1187 628 1196 553 c 128,-1,23
 1205 478 1205 478 1192 417 c 0,24,25
 1155 248 1155 248 1021 124 c 0,26,27
 888 2 888 2 640 0 c 0,28,29
 354 -4 354 -4 253 155.5 c 128,-1,30
 152 315 152 315 226 660 c 0,31,32
 260 819 260 819 329 958.5 c 128,-1,33
 398 1098 398 1098 493.5 1202.5 c 128,-1,34
 589 1307 589 1307 706.5 1367 c 128,-1,35
 824 1427 824 1427 957 1427 c 0,36,37
 1049 1427 1049 1427 1112.5 1411.5 c 128,-1,38
 1176 1396 1176 1396 1219.5 1358.5 c 128,-1,39
 1263 1321 1263 1321 1291.5 1258.5 c 128,-1,40
 1320 1196 1320 1196 1341 1102 c 1,41,-1
 1337 1088 l 2,42,43
 1327 1038 1327 1038 1270 1038 c 0,44,45
 1224 1038 1224 1038 1215 1077 c 1,46,-1
 1215 1084 l 1,3,-1
348 453 m 0,47,48
 318 310 318 310 391 209 c 1,49,-1
 389 209 l 1,50,51
 463 108 463 108 663 115 c 0,52,53
 766 119 766 119 840 147 c 128,-1,54
 914 175 914 175 964 217.5 c 128,-1,55
 1014 260 1014 260 1041 308.5 c 128,-1,56
 1068 357 1068 357 1077 403 c 0,57,58
 1086 448 1086 448 1083.5 505 c 128,-1,59
 1081 562 1081 562 1053.5 614.5 c 128,-1,60
 1026 667 1026 667 965 702.5 c 128,-1,61
 904 738 904 738 796 738 c 0,62,63
 713 738 713 738 638.5 720 c 128,-1,64
 564 702 564 702 499 662 c 0,65,66
 379 591 379 591 348 453 c 0,47,48
EndSplineSet
EndChar
StartChar: seven
Encoding: 55 55 26
Width: 1155
VWidth: 3622
Flags: W
HStem: 1327.5 128<548.753 670.5 698 744.847 744.847 784.262 764.555 957.393>
VStem: 334 861.5<750 1337 1371.3 1501.93>
Fore
681 759 m 2,0,-1
 891 791 l 1,1,2
 906 828 906 828 924.5 867.5 c 128,-1,3
 943 907 943 907 959 945 c 0,4,5
 985 1001 985 1001 1003 1051.5 c 128,-1,6
 1021 1102 1021 1102 1031 1150 c 0,7,8
 1056 1266 1056 1266 991 1298 c 0,9,10
 914 1339 914 1339 792 1339 c 0,11,12
 738 1339 738 1339 670.5 1327.5 c 128,-1,13
 603 1316 603 1316 547 1304 c 0,14,15
 506 1295 506 1295 468 1288.5 c 128,-1,16
 430 1282 430 1282 400 1282 c 0,17,18
 357 1282 357 1282 344 1301 c 128,-1,19
 331 1320 331 1320 334 1337 c 0,20,21
 340 1358 340 1358 398 1382 c 128,-1,22
 456 1406 456 1406 536 1424.5 c 128,-1,23
 616 1443 616 1443 698 1455.5 c 128,-1,24
 780 1468 780 1468 833 1468 c 0,25,26
 911 1468 911 1468 978 1453 c 128,-1,27
 1045 1438 1045 1438 1092 1403.5 c 128,-1,28
 1139 1369 1139 1369 1158.5 1310.5 c 128,-1,29
 1178 1252 1178 1252 1160 1167 c 0,30,31
 1146 1104 1146 1104 1105.5 1003 c 128,-1,32
 1065 902 1065 902 1017 791 c 1,33,34
 1035 791 1035 791 1059.5 793.5 c 128,-1,35
 1084 796 1084 796 1109 795 c 128,-1,36
 1134 794 1134 794 1154 789.5 c 128,-1,37
 1174 785 1174 785 1185 773 c 0,38,39
 1192 764 1192 764 1195.5 750 c 128,-1,40
 1199 736 1199 736 1194 721 c 128,-1,41
 1189 706 1189 706 1173 692.5 c 128,-1,42
 1157 679 1157 679 1127 674 c 1,43,-1
 1128 674 l 1,44,-1
 941 651 l 1,45,46
 916 603 916 603 886 544 c 128,-1,47
 856 485 856 485 821.5 421 c 128,-1,48
 787 357 787 357 750 293.5 c 128,-1,49
 713 230 713 230 678.5 176 c 128,-1,50
 644 122 644 122 611 80.5 c 128,-1,51
 578 39 578 39 554 19 c 0,52,53
 532 4 532 4 512.5 4.5 c 128,-1,54
 493 5 493 5 481 16 c 128,-1,55
 469 27 469 27 469 43.5 c 128,-1,56
 469 60 469 60 485 78 c 0,57,58
 513 111 513 111 544 151 c 128,-1,59
 575 191 575 191 614.5 254.5 c 128,-1,60
 654 318 654 318 706.5 415.5 c 128,-1,61
 759 513 759 513 830 662 c 1,62,63
 784 658 784 658 739.5 649 c 128,-1,64
 695 640 695 640 654 640 c 0,65,66
 623 637 623 637 606 653.5 c 128,-1,67
 589 670 589 670 594 693 c 0,68,69
 598 716 598 716 619 735.5 c 128,-1,70
 640 755 640 755 681 759 c 2,0,-1
EndSplineSet
EndChar
StartChar: eight
Encoding: 56 56 27
Width: 1238
VWidth: 3622
Flags: W
HStem: 0 119<437.053 833.754> 805 120<681.197 954.775> 1328 119<846.104 1021.73>
Fore
1176 1143 m 0,0,1
 1159 1063 1159 1063 1130.5 1007.5 c 128,-1,2
 1102 952 1102 952 1042 891 c 1,3,4
 1143 837 1143 837 1212 736 c 0,5,6
 1289 624 1289 624 1252 451 c 0,7,8
 1228 340 1228 340 1167.5 255 c 128,-1,9
 1107 170 1107 170 1021.5 113.5 c 128,-1,10
 936 57 936 57 831.5 28.5 c 128,-1,11
 727 0 727 0 616 0 c 0,12,13
 501 0 501 0 404.5 31 c 128,-1,14
 308 62 308 62 244 122 c 128,-1,15
 180 182 180 182 153.5 269.5 c 128,-1,16
 127 357 127 357 152 471 c 0,17,18
 170 552 170 552 209 617.5 c 128,-1,19
 248 683 248 683 313 736 c 0,20,21
 368 782 368 782 432.5 820 c 128,-1,22
 497 858 497 858 562 884 c 1,23,24
 524 936 524 936 515 996 c 128,-1,25
 506 1056 506 1056 520 1128 c 0,26,27
 538 1208 538 1208 580.5 1267.5 c 128,-1,28
 623 1327 623 1327 679.5 1366.5 c 128,-1,29
 736 1406 736 1406 799.5 1426.5 c 128,-1,30
 863 1447 863 1447 922 1447 c 0,31,32
 987 1447 987 1447 1040 1425 c 128,-1,33
 1093 1403 1093 1403 1128.5 1363 c 128,-1,34
 1164 1323 1164 1323 1177 1267.5 c 128,-1,35
 1190 1212 1190 1212 1176 1143 c 0,0,1
791 805 m 0,36,37
 693 805 693 805 605.5 778.5 c 128,-1,38
 518 752 518 752 448.5 707.5 c 128,-1,39
 379 663 379 663 333 603 c 128,-1,40
 287 543 287 543 272 478 c 0,41,42
 258 409 258 409 271.5 343.5 c 128,-1,43
 285 278 285 278 330 228.5 c 128,-1,44
 375 179 375 179 452 149 c 128,-1,45
 529 119 529 119 640 119 c 0,46,47
 755 119 755 119 842 148 c 128,-1,48
 929 177 929 177 989 224 c 128,-1,49
 1049 271 1049 271 1084.5 329 c 128,-1,50
 1120 387 1120 387 1132 448 c 0,51,52
 1148 522 1148 522 1132 587.5 c 128,-1,53
 1116 653 1116 653 1072 700.5 c 128,-1,54
 1028 748 1028 748 957 776.5 c 128,-1,55
 886 805 886 805 791 805 c 0,36,37
1058 1143 m 1,56,-1
 1058 1146 l 1,57,-1
 1058 1143 l 1,56,-1
1058 1146 m 2,58,59
 1068 1222 1068 1222 1028.5 1275 c 128,-1,60
 989 1328 989 1328 902 1328 c 0,61,62
 856 1328 856 1328 812.5 1313 c 128,-1,63
 769 1298 769 1298 734.5 1271.5 c 128,-1,64
 700 1245 700 1245 675.5 1209 c 128,-1,65
 651 1173 651 1173 640 1128 c 0,66,67
 619 1029 619 1029 671 977 c 128,-1,68
 723 925 723 925 817 925 c 0,69,70
 913 925 913 925 973 983.5 c 128,-1,71
 1033 1042 1033 1042 1058 1143 c 1,72,-1
 1058 1146 l 2,58,59
EndSplineSet
EndChar
StartChar: nine
Encoding: 57 57 28
Width: 1216
VWidth: 3622
Flags: W
HStem: 4 111<432.996 798.05> 543 119<562.098 858.329> 1332 118<706.387 1012>
VStem: 1187 145<991.46 1198.23>
Fore
288 455 m 2,0,1
 279 389 279 389 292.5 328 c 128,-1,2
 306 267 306 267 344 219.5 c 128,-1,3
 382 172 382 172 448.5 143.5 c 128,-1,4
 515 115 515 115 610 115 c 0,5,6
 826 115 826 115 976 313 c 0,7,8
 1113 486 1113 486 1189 766 c 1,9,10
 1136 699 1136 699 1074 655.5 c 128,-1,11
 1012 612 1012 612 950 587 c 128,-1,12
 888 562 888 562 828 552.5 c 128,-1,13
 768 543 768 543 716 543 c 0,14,15
 453 543 453 543 370 676 c 0,16,17
 292 803 292 803 334 1010 c 0,18,19
 356 1111 356 1111 408 1192.5 c 128,-1,20
 460 1274 460 1274 534 1331.5 c 128,-1,21
 608 1389 608 1389 702 1419.5 c 128,-1,22
 796 1450 796 1450 902 1450 c 0,23,24
 1044 1450 1044 1450 1136 1400 c 128,-1,25
 1228 1350 1228 1350 1276.5 1263 c 128,-1,26
 1325 1176 1325 1176 1332 1059.5 c 128,-1,27
 1339 943 1339 943 1311 810 c 0,28,29
 1274 640 1274 640 1210 492.5 c 128,-1,30
 1146 345 1146 345 1056 236 c 128,-1,31
 966 127 966 127 850 65.5 c 128,-1,32
 734 4 734 4 594 4 c 0,33,34
 467 4 467 4 377.5 41 c 128,-1,35
 288 78 288 78 236 140 c 128,-1,36
 184 202 184 202 168 280.5 c 128,-1,37
 152 359 152 359 170 444 c 0,38,39
 180 497 180 497 233 509 c 0,40,41
 290 522 290 522 288 456 c 2,42,-1
 288 455 l 2,0,1
1187 1111 m 1,43,44
 1174 1159 1174 1159 1151 1199.5 c 128,-1,45
 1128 1240 1128 1240 1091 1269 c 128,-1,46
 1054 1298 1054 1298 1001 1315 c 128,-1,47
 948 1332 948 1332 877 1332 c 0,48,49
 780 1332 780 1332 705.5 1302 c 128,-1,50
 631 1272 631 1272 579 1226 c 128,-1,51
 527 1180 527 1180 495 1123.5 c 128,-1,52
 463 1067 463 1067 453 1014 c 0,53,54
 440 953 440 953 444 891.5 c 128,-1,55
 448 830 448 830 478.5 778.5 c 128,-1,56
 509 727 509 727 572 694.5 c 128,-1,57
 635 662 635 662 741 662 c 0,58,59
 824 662 824 662 908 696.5 c 128,-1,60
 992 731 992 731 1057.5 792 c 128,-1,61
 1123 853 1123 853 1160 934 c 128,-1,62
 1197 1015 1197 1015 1187 1111 c 1,43,44
EndSplineSet
EndChar
StartChar: colon
Encoding: 58 58 29
Width: 622
VWidth: 3622
Flags: W
HStem: 88 108<336.73 390.647> 297 108<368.258 422.319> 621 110<421.858 481.465> 830 109<452.23 511.036>
VStem: 225 408<248 812 248 248>
Fore
311 782 m 0,0,1
 318 814 318 814 337 842 c 128,-1,2
 356 870 356 870 382.5 891.5 c 128,-1,3
 409 913 409 913 440 926 c 128,-1,4
 471 939 471 939 502 939 c 0,5,6
 561 939 561 939 597 901 c 128,-1,7
 633 863 633 863 633 812 c 0,8,9
 633 775 633 775 615.5 740.5 c 128,-1,10
 598 706 598 706 570.5 679.5 c 128,-1,11
 543 653 543 653 507.5 637 c 128,-1,12
 472 621 472 621 435 621 c 0,13,14
 402 621 402 621 376 634 c 128,-1,15
 350 647 350 647 334 670 c 128,-1,16
 318 693 318 693 312 721.5 c 128,-1,17
 306 750 306 750 311 782 c 0,0,1
425 801 m 0,18,19
 414 778 414 778 423.5 754.5 c 128,-1,20
 433 731 433 731 455 731 c 0,21,22
 474 731 474 731 498 750 c 128,-1,23
 522 769 522 769 522 789 c 0,24,25
 522 803 522 803 508.5 816.5 c 128,-1,26
 495 830 495 830 476 830 c 0,27,28
 462 830 462 830 446 822 c 128,-1,29
 430 814 430 814 425 801 c 0,18,19
225 248 m 0,30,31
 232 279 232 279 250.5 307.5 c 128,-1,32
 269 336 269 336 295.5 357.5 c 128,-1,33
 322 379 322 379 353 392 c 128,-1,34
 384 405 384 405 414 405 c 0,35,36
 471 405 471 405 507 368 c 128,-1,37
 543 331 543 331 543 278 c 0,38,39
 543 241 543 241 525.5 206.5 c 128,-1,40
 508 172 508 172 480.5 146 c 128,-1,41
 453 120 453 120 417.5 104 c 128,-1,42
 382 88 382 88 347 88 c 0,43,44
 313 88 313 88 288.5 101.5 c 128,-1,45
 264 115 264 115 248 137 c 128,-1,46
 232 159 232 159 225.5 187.5 c 128,-1,47
 219 216 219 216 225 248 c 0,30,31
333 251 m 0,48,49
 324 232 324 232 334.5 214 c 128,-1,50
 345 196 345 196 366 196 c 0,51,52
 377 196 377 196 388.5 201.5 c 128,-1,53
 400 207 400 207 409.5 216 c 128,-1,54
 419 225 419 225 426 235.5 c 128,-1,55
 433 246 433 246 433 255 c 0,56,57
 433 269 433 269 420 283 c 128,-1,58
 407 297 407 297 387 297 c 0,59,60
 373 297 373 297 355.5 281 c 128,-1,61
 338 265 338 265 333 251 c 0,48,49
EndSplineSet
EndChar
StartChar: semicolon
Encoding: 59 59 30
Width: 622
VWidth: 3622
Flags: W
HStem: 99 97<338.032 395.276> 304 94<364.258 425.776> 870 108<497.328 552.402>
VStem: 225 104<206.115 256.414 249.547 263.375> 437 118<219.861 287.573>
Fore
191 -87 m 1,0,1
 297 -62 297 -62 365 -3.5 c 128,-1,2
 433 55 433 55 448 131 c 1,3,4
 428 115 428 115 400.5 107 c 128,-1,5
 373 99 373 99 345 99 c 0,6,7
 294 99 294 99 259.5 132.5 c 128,-1,8
 225 166 225 166 225 218 c 0,9,10
 225 251 225 251 240 284 c 128,-1,11
 255 317 255 317 281.5 342.5 c 128,-1,12
 308 368 308 368 342.5 383 c 128,-1,13
 377 398 377 398 416 398 c 0,14,15
 439 398 439 398 463.5 389 c 128,-1,16
 488 380 488 380 508.5 360.5 c 128,-1,17
 529 341 529 341 542 311 c 128,-1,18
 555 281 555 281 555 239 c 0,19,20
 555 147 555 147 521.5 74.5 c 128,-1,21
 488 2 488 2 437 -49.5 c 128,-1,22
 386 -101 386 -101 324 -131 c 128,-1,23
 262 -161 262 -161 203 -170 c 1,24,25
 173 -170 173 -170 161 -159.5 c 128,-1,26
 149 -149 149 -149 149 -134 c 0,27,28
 149 -104 149 -104 191 -87 c 1,0,1
354 821 m 2,29,30
 361 853 361 853 379.5 881 c 128,-1,31
 398 909 398 909 424.5 930.5 c 128,-1,32
 451 952 451 952 482 965 c 128,-1,33
 513 978 513 978 545 978 c 0,34,35
 601 978 601 978 636.5 941 c 128,-1,36
 672 904 672 904 672 851 c 0,37,38
 672 812 672 812 654.5 777.5 c 128,-1,39
 637 743 637 743 609.5 717.5 c 128,-1,40
 582 692 582 692 546.5 677 c 128,-1,41
 511 662 511 662 478 662 c 0,42,43
 423 662 423 662 386.5 697 c 128,-1,44
 350 732 350 732 350 787 c 0,45,46
 350 796 350 796 350 804 c 128,-1,47
 350 812 350 812 354 821 c 2,29,30
331 255 m 0,48,49
 331 251 331 251 330 249.5 c 128,-1,50
 329 248 329 248 329 244 c 0,51,52
 329 225 329 225 339.5 210.5 c 128,-1,53
 350 196 350 196 366 196 c 0,54,55
 391 196 391 196 414 217.5 c 128,-1,56
 437 239 437 239 437 262 c 0,57,58
 437 278 437 278 423 291 c 128,-1,59
 409 304 409 304 389 304 c 0,60,61
 371 304 371 304 352.5 289 c 128,-1,62
 334 274 334 274 331 255 c 0,48,49
463 824 m 1,63,64
 463 821 463 821 462.5 819 c 128,-1,65
 462 817 462 817 462 815 c 0,66,67
 462 798 462 798 471.5 783.5 c 128,-1,68
 481 769 481 769 495 769 c 0,69,70
 506 769 506 769 517.5 774.5 c 128,-1,71
 529 780 529 780 539.5 789 c 128,-1,72
 550 798 550 798 557 808.5 c 128,-1,73
 564 819 564 819 564 828 c 0,74,75
 564 842 564 842 550 856 c 128,-1,76
 536 870 536 870 516 870 c 0,77,78
 502 870 502 870 484.5 854 c 128,-1,79
 467 838 467 838 463 824 c 1,63,64
EndSplineSet
EndChar
StartChar: less
Encoding: 60 60 31
Width: 1390
VWidth: 3622
Flags: W
HStem: 141 816<1238 1311 1238 1311 1282.8 1364.08>
Fore
1279 244 m 0,0,1
 1298 232 1298 232 1309 210.5 c 128,-1,2
 1320 189 1320 189 1309 172 c 0,3,4
 1291 142 1291 142 1238 141 c 128,-1,5
 1185 140 1185 140 1122.5 152 c 128,-1,6
 1060 164 1060 164 999.5 181 c 128,-1,7
 939 198 939 198 907 207 c 0,8,9
 808 232 808 232 696.5 272.5 c 128,-1,10
 585 313 585 313 493.5 360 c 128,-1,11
 402 407 402 407 343.5 456.5 c 128,-1,12
 285 506 285 506 292 552 c 1,13,14
 302 585 302 585 349 620.5 c 128,-1,15
 396 656 396 656 467 689.5 c 128,-1,16
 538 723 538 723 625.5 756 c 128,-1,17
 713 789 713 789 803 818 c 128,-1,18
 893 847 893 847 980.5 872 c 128,-1,19
 1068 897 1068 897 1138 914.5 c 128,-1,20
 1208 932 1208 932 1255 943.5 c 128,-1,21
 1302 955 1302 955 1311 957 c 1,22,23
 1358 957 1358 957 1376 942 c 128,-1,24
 1394 927 1394 927 1380 900 c 0,25,26
 1360 860 1360 860 1298 842 c 0,27,28
 1228 822 1228 822 1136 797.5 c 128,-1,29
 1044 773 1044 773 947.5 744.5 c 128,-1,30
 851 716 851 716 757 688 c 128,-1,31
 663 660 663 660 589.5 634 c 128,-1,32
 516 608 516 608 469.5 586 c 128,-1,33
 423 564 423 564 421 552 c 0,34,35
 417 539 417 539 448 520 c 128,-1,36
 479 501 479 501 531.5 478 c 128,-1,37
 584 455 584 455 650 431 c 128,-1,38
 716 407 716 407 785 384 c 0,39,40
 842 366 842 366 892.5 353 c 128,-1,41
 943 340 943 340 994 325 c 0,42,43
 1033 315 1033 315 1079 302.5 c 128,-1,44
 1125 290 1125 290 1166.5 278.5 c 128,-1,45
 1208 267 1208 267 1239 258 c 128,-1,46
 1270 249 1270 249 1279 244 c 0,0,1
EndSplineSet
EndChar
StartChar: equal
Encoding: 61 61 32
Width: 1123
VWidth: 3622
Flags: W
HStem: 532 130<254.706 502.633> 555 130<845.535 1094.66> 792 130<310.282 1100 1134 1140.66>
VStem: 205 980<601 861 1371 1377.66>
Fore
310 792 m 1,0,1
 279 798 279 798 267 817.5 c 128,-1,2
 255 837 255 837 260 861 c 256,3,4
 265 886 265 886 292.5 905.5 c 128,-1,5
 320 925 320 925 364 922 c 2,6,-1
 1134 929 l 2,7,8
 1164 929 1164 929 1177 907.5 c 128,-1,9
 1190 886 1190 886 1185 861 c 256,10,11
 1180 837 1180 837 1159.5 818 c 128,-1,12
 1139 799 1139 799 1100 799 c 2,13,-1
 310 792 l 1,0,1
253 532 m 1,14,15
 223 538 223 538 211.5 558 c 128,-1,16
 200 578 200 578 205 601 c 0,17,18
 210 626 210 626 237 645.5 c 128,-1,19
 264 665 264 665 310 662 c 2,20,-1
 1088 685 l 2,21,22
 1120 685 1120 685 1132 663.5 c 128,-1,23
 1144 642 1144 642 1139 617 c 256,24,25
 1134 593 1134 593 1113.5 574 c 128,-1,26
 1093 555 1093 555 1054 555 c 2,27,-1
 253 532 l 1,14,15
EndSplineSet
EndChar
StartChar: greater
Encoding: 62 62 33
Width: 1390
VWidth: 3622
Flags: W
HStem: 126 845<281 451 420.431 470.955>
Fore
290 255 m 2,0,1
 308 264 308 264 354 276 c 128,-1,2
 400 288 400 288 465 306 c 0,3,4
 529 322 529 322 607.5 343 c 128,-1,5
 686 364 686 364 767.5 387 c 128,-1,6
 849 410 849 410 926 433 c 128,-1,7
 1003 456 1003 456 1065 478.5 c 128,-1,8
 1127 501 1127 501 1166 520 c 128,-1,9
 1205 539 1205 539 1212 554 c 1,10,11
 1210 566 1210 566 1179 583.5 c 128,-1,12
 1148 601 1148 601 1098.5 622.5 c 128,-1,13
 1049 644 1049 644 985.5 668 c 128,-1,14
 922 692 922 692 853 715 c 0,15,16
 799 734 799 734 746 752.5 c 128,-1,17
 693 771 693 771 643 787 c 128,-1,18
 593 803 593 803 550.5 815.5 c 128,-1,19
 508 828 508 828 476 838 c 1,20,-1
 478 837 l 1,21,22
 453 844 453 844 439 849 c 128,-1,23
 425 854 425 854 417 858 c 0,24,25
 394 867 394 867 378.5 881 c 128,-1,26
 363 895 363 895 359 914 c 0,27,28
 357 939 357 939 381 955 c 128,-1,29
 405 971 405 971 451 971 c 1,30,-1
 493 959 l 1,31,-1
 492 960 l 1,32,33
 520 953 520 953 567 941 c 128,-1,34
 614 929 614 929 670.5 911 c 128,-1,35
 727 893 727 893 792.5 872 c 128,-1,36
 858 851 858 851 923 828 c 0,37,38
 1008 798 1008 798 1086 764.5 c 128,-1,39
 1164 731 1164 731 1223 695.5 c 128,-1,40
 1282 660 1282 660 1315 623.5 c 128,-1,41
 1348 587 1348 587 1341 552 c 0,42,43
 1330 508 1330 508 1256 462 c 128,-1,44
 1182 416 1182 416 1074 371.5 c 128,-1,45
 966 327 966 327 840.5 287.5 c 128,-1,46
 715 248 715 248 603 216 c 0,47,48
 536 196 536 196 472.5 177.5 c 128,-1,49
 409 159 409 159 363 143 c 0,50,51
 315 126 315 126 281 126 c 0,52,53
 246 126 246 126 232.5 141 c 128,-1,54
 219 156 219 156 225 180 c 0,55,56
 230 202 230 202 247 222 c 128,-1,57
 264 242 264 242 287 253 c 2,58,-1
 290 255 l 2,0,1
EndSplineSet
EndChar
StartChar: question
Encoding: 63 63 34
Width: 1093
VWidth: 3622
Flags: W
HStem: 1389 132<706.622 990.376>
VStem: 347 852<1090 1182 1081 1197 1081 1081> 347 132<1059.49 1239.14> 1065 134<1056.46 1286.69>
Fore
455 157 m 0,0,1
 463 198 463 198 501 229 c 128,-1,2
 539 260 539 260 584 260 c 0,3,4
 619 260 619 260 643 236 c 128,-1,5
 667 212 667 212 667 177 c 0,6,7
 667 150 667 150 655.5 127 c 128,-1,8
 644 104 644 104 625.5 87.5 c 128,-1,9
 607 71 607 71 584 60.5 c 128,-1,10
 561 50 561 50 538 50 c 0,11,12
 499 50 499 50 476 73.5 c 128,-1,13
 453 97 453 97 453 134 c 0,14,15
 453 149 453 149 455 157 c 0,0,1
552 867 m 1,16,17
 509 872 509 872 472 889.5 c 128,-1,18
 435 907 435 907 407 935.5 c 128,-1,19
 379 964 379 964 363 1001 c 128,-1,20
 347 1038 347 1038 347 1081 c 0,21,22
 347 1182 347 1182 388.5 1263 c 128,-1,23
 430 1344 430 1344 500.5 1401.5 c 128,-1,24
 571 1459 571 1459 664 1490 c 128,-1,25
 757 1521 757 1521 858 1521 c 0,26,27
 948 1521 948 1521 1012.5 1494.5 c 128,-1,28
 1077 1468 1077 1468 1118.5 1423 c 128,-1,29
 1160 1378 1160 1378 1179.5 1319.5 c 128,-1,30
 1199 1261 1199 1261 1199 1197 c 0,31,32
 1199 1090 1199 1090 1157.5 1010 c 128,-1,33
 1116 930 1116 930 1053.5 864 c 128,-1,34
 991 798 991 798 915.5 735 c 128,-1,35
 840 672 840 672 773 600 c 1,36,-1
 775 600 l 1,37,38
 706 531 706 531 685 425 c 0,39,40
 677 396 677 396 650.5 380 c 128,-1,41
 624 364 624 364 601 359 c 1,42,43
 580 368 580 368 568.5 381 c 128,-1,44
 557 394 557 394 557 421 c 0,45,46
 557 471 557 471 583.5 525.5 c 128,-1,47
 610 580 610 580 650 632.5 c 128,-1,48
 690 685 690 685 737.5 731.5 c 128,-1,49
 785 778 785 778 830 814 c 2,50,-1
 856 835 l 2,51,52
 895 867 895 867 933 901.5 c 128,-1,53
 971 936 971 936 1000 975.5 c 128,-1,54
 1029 1015 1029 1015 1047 1063 c 128,-1,55
 1065 1111 1065 1111 1065 1169 c 0,56,57
 1065 1263 1065 1263 1010 1326 c 128,-1,58
 955 1389 955 1389 833 1389 c 0,59,60
 754 1389 754 1389 689 1368.5 c 128,-1,61
 624 1348 624 1348 577.5 1311.5 c 128,-1,62
 531 1275 531 1275 505 1224.5 c 128,-1,63
 479 1174 479 1174 479 1116 c 0,64,65
 479 1077 479 1077 503 1054 c 128,-1,66
 527 1031 527 1031 555.5 1015 c 128,-1,67
 584 999 584 999 607.5 986 c 128,-1,68
 631 973 631 973 631 952 c 0,69,70
 631 937 631 937 623 920 c 1,71,-1
 624 922 l 1,72,73
 605 877 605 877 552 867 c 1,16,17
EndSplineSet
EndChar
StartChar: at
Encoding: 64 64 35
Width: 1859
VWidth: 3622
Flags: W
HStem: 14.5 108<721.398 1025.51 1024.57 1026.45 1026.45 1102.5 1102.5 1112.5 1138 1213.84> 303 116<1342.66 1353.97 1353.97 1425.34> 320 110<835.259 1043.57> 1056 101<1002.88 1241.37> 1353 119<967.865 1444.41>
Fore
1300 842 m 2,0,1
 1316 939 1316 939 1261 994 c 0,2,3
 1205 1049 1205 1049 1136 1056 c 0,4,5
 1061 1058 1061 1058 1001 1025 c 128,-1,6
 941 992 941 992 897 946 c 128,-1,7
 853 900 853 900 825.5 850.5 c 128,-1,8
 798 801 798 801 787 769 c 0,9,10
 773 722 773 722 768.5 665 c 128,-1,11
 764 608 764 608 779 558 c 128,-1,12
 794 508 794 508 834 472.5 c 128,-1,13
 874 437 874 437 952 430 c 256,14,15
 1029 423 1029 423 1099 451 c 128,-1,16
 1169 479 1169 479 1208 543 c 1,17,-1
 1208 541 l 1,18,-1
 1238 608 l 2,19,20
 1247 628 1247 628 1254 655.5 c 128,-1,21
 1261 683 1261 683 1272 723 c 1,22,23
 1275 731 1275 731 1275 732 c 2,24,-1
 1300 842 l 2,0,1
1684 831 m 0,25,26
 1709 945 1709 945 1686 1040.5 c 128,-1,27
 1663 1136 1663 1136 1601 1205.5 c 128,-1,28
 1539 1275 1539 1275 1440 1314 c 128,-1,29
 1341 1353 1341 1353 1212 1353 c 0,30,31
 1079 1353 1079 1353 954.5 1305.5 c 128,-1,32
 830 1258 830 1258 727 1174 c 128,-1,33
 624 1090 624 1090 552.5 976.5 c 128,-1,34
 481 863 481 863 453 732 c 0,35,36
 417 557 417 557 470.5 419 c 128,-1,37
 524 281 524 281 651 200 c 0,38,39
 769 119 769 119 991 119 c 0,40,41
 1019 119 1019 119 1058.5 122.5 c 128,-1,42
 1098 126 1098 126 1138 132 c 128,-1,43
 1178 138 1178 138 1215 147 c 128,-1,44
 1252 156 1252 156 1277 164 c 1,45,46
 1297 156 1297 156 1308.5 142.5 c 128,-1,47
 1320 129 1320 129 1319 112.5 c 128,-1,48
 1318 96 1318 96 1303 79 c 128,-1,49
 1288 62 1288 62 1254 48 c 0,50,51
 1187 25 1187 25 1112.5 14.5 c 128,-1,52
 1038 4 1038 4 966 4 c 0,53,54
 791 4 791 4 656.5 57.5 c 128,-1,55
 522 111 522 111 437 208.5 c 128,-1,56
 352 306 352 306 322 440.5 c 128,-1,57
 292 575 292 575 327 736 c 0,58,59
 359 890 359 890 446.5 1024.5 c 128,-1,60
 534 1159 534 1159 657 1258.5 c 128,-1,61
 780 1358 780 1358 931.5 1415 c 128,-1,62
 1083 1472 1083 1472 1245 1472 c 0,63,64
 1392 1472 1392 1472 1508 1423 c 128,-1,65
 1624 1374 1624 1374 1699 1287.5 c 128,-1,66
 1774 1201 1774 1201 1802.5 1084.5 c 128,-1,67
 1831 968 1831 968 1802 831 c 0,68,69
 1783 746 1783 746 1745 652.5 c 128,-1,70
 1707 559 1707 559 1651 481 c 128,-1,71
 1595 403 1595 403 1524.5 352.5 c 128,-1,72
 1454 302 1454 302 1371 302 c 0,73,74
 1353 302 1353 302 1337 303 c 128,-1,75
 1321 304 1321 304 1304 311 c 1,76,77
 1263 308 1263 308 1241.5 333.5 c 128,-1,78
 1220 359 1220 359 1208 394 c 1,79,80
 1151 352 1151 352 1074.5 333.5 c 128,-1,81
 998 315 998 315 925 320 c 0,82,83
 849 325 849 325 797.5 351 c 128,-1,84
 746 377 746 377 715.5 414 c 128,-1,85
 685 451 685 451 671.5 497 c 128,-1,86
 658 543 658 543 656 592.5 c 128,-1,87
 654 642 654 642 661.5 690 c 128,-1,88
 669 738 669 738 679 780 c 0,89,90
 693 830 693 830 730.5 897 c 128,-1,91
 768 964 768 964 828 1023.5 c 128,-1,92
 888 1083 888 1083 971 1122.5 c 128,-1,93
 1054 1162 1054 1162 1162 1157 c 0,94,95
 1236 1151 1236 1151 1286.5 1124 c 128,-1,96
 1337 1097 1337 1097 1374 1042 c 1,97,-1
 1387 1079 l 1,98,99
 1419 1136 1419 1136 1472 1125 c 0,100,101
 1496 1120 1496 1120 1507.5 1105 c 128,-1,102
 1519 1090 1519 1090 1516 1074 c 1,103,104
 1505 1054 1505 1054 1491 1022.5 c 128,-1,105
 1477 991 1477 991 1461 945 c 0,106,107
 1447 902 1447 902 1433 858 c 128,-1,108
 1419 814 1419 814 1404 768 c 0,109,110
 1385 713 1385 713 1368 655.5 c 128,-1,111
 1351 598 1351 598 1334 536 c 0,112,113
 1325 506 1325 506 1324 484.5 c 128,-1,114
 1323 463 1323 463 1326.5 450 c 128,-1,115
 1330 437 1330 437 1339 429 c 128,-1,116
 1348 421 1348 421 1357 419 c 0,117,118
 1420 410 1420 410 1475 454.5 c 128,-1,119
 1530 499 1530 499 1572.5 566 c 128,-1,120
 1615 633 1615 633 1644 706.5 c 128,-1,121
 1673 780 1673 780 1684 831 c 0,25,26
EndSplineSet
EndChar
StartChar: A
Encoding: 65 65 36
Width: 1358
VWidth: 3622
Flags: W
HStem: 414 120<529 972.62> 414 111<642.38 1086 1229 1261.04> 1482 20G<1007.5 1042>
VStem: 1109 120<303.873 414> 1125 126<53 186.127>
Fore
1259 518 m 1,0,1
 1281 513 1281 513 1288 496 c 128,-1,2
 1295 479 1295 479 1290.5 460.5 c 128,-1,3
 1286 442 1286 442 1271 428 c 128,-1,4
 1256 414 1256 414 1229 414 c 1,5,-1
 1251 76 l 1,6,7
 1233 21 1233 21 1180 19 c 0,8,9
 1134 16 1134 16 1125 53 c 1,10,-1
 1109 414 l 1,11,-1
 462 414 l 1,12,-1
 276 57 l 1,13,14
 256 32 256 32 233 22 c 128,-1,15
 210 12 210 12 191 15 c 128,-1,16
 172 18 172 18 162 31 c 128,-1,17
 152 44 152 44 161 69 c 2,18,-1
 389 509 l 1,19,-1
 630 946 l 2,20,21
 695 1068 695 1068 752.5 1170 c 128,-1,22
 810 1272 810 1272 858.5 1346 c 128,-1,23
 907 1420 907 1420 949 1461 c 128,-1,24
 991 1502 991 1502 1024 1502 c 0,25,26
 1060 1502 1060 1502 1085.5 1459.5 c 128,-1,27
 1111 1417 1111 1417 1125 1341 c 0,28,29
 1137 1266 1137 1266 1149.5 1166.5 c 128,-1,30
 1162 1067 1162 1067 1176 939 c 2,31,-1
 1194 794 l 2,32,33
 1201 727 1201 727 1208 660.5 c 128,-1,34
 1215 594 1215 594 1226 518 c 1,35,-1
 1259 518 l 1,0,1
1086 525 m 1,36,-1
 1088 534 l 2,37,38
 1090 545 1090 545 1088 551 c 128,-1,39
 1086 557 1086 557 1086 562 c 0,40,41
 1077 619 1077 619 1068.5 698.5 c 128,-1,42
 1060 778 1060 778 1051 860 c 0,43,44
 1040 946 1040 946 1029.5 1034.5 c 128,-1,45
 1019 1123 1019 1123 1010 1195.5 c 128,-1,46
 1001 1268 1001 1268 996.5 1315 c 128,-1,47
 992 1362 992 1362 992 1367 c 1,48,49
 989 1364 989 1364 966 1321.5 c 128,-1,50
 943 1279 943 1279 906.5 1214.5 c 128,-1,51
 870 1150 870 1150 825 1068.5 c 128,-1,52
 780 987 780 987 734 906 c 2,53,-1
 637 731 l 2,54,55
 603 667 603 667 575.5 615.5 c 128,-1,56
 548 564 548 564 529 534 c 1,57,-1
 1086 525 l 1,36,-1
EndSplineSet
EndChar
StartChar: B
Encoding: 66 66 37
Width: 1216
VWidth: 3622
Flags: W
HStem: 52.5 105<295 368.141 368.141 374.631 374.631 547.242 547.242 547.727 547.727 810.95> 693 114<571.83 773.24> 1373.5 108.5<663.172 690 768.5 768.661 768.661 819.335 793.998 953.353>
VStem: 180 115<191.504 552.759>
Fore
110 53 m 1,0,1
 55 65 55 65 69 117 c 0,2,3
 81 163 81 163 136 177 c 1,4,-1
 180 177 l 1,5,6
 233 356 233 356 282 545 c 128,-1,7
 331 734 331 734 368 913 c 0,8,9
 391 1015 391 1015 408 1101 c 128,-1,10
 425 1187 425 1187 440 1282 c 1,11,-1
 437 1282 l 2,12,13
 382 1281 382 1281 369 1297.5 c 128,-1,14
 356 1314 356 1314 367.5 1337 c 128,-1,15
 379 1360 379 1360 409 1382 c 128,-1,16
 439 1404 439 1404 471 1413 c 0,17,18
 509 1426 509 1426 558.5 1439 c 128,-1,19
 608 1452 608 1452 661.5 1463.5 c 128,-1,20
 715 1475 715 1475 768.5 1482 c 128,-1,21
 822 1489 822 1489 870 1489 c 0,22,23
 978 1489 978 1489 1072 1465.5 c 128,-1,24
 1166 1442 1166 1442 1231.5 1392.5 c 128,-1,25
 1297 1343 1297 1343 1325 1265 c 128,-1,26
 1353 1187 1353 1187 1330 1079 c 0,27,28
 1320 1029 1320 1029 1289 979.5 c 128,-1,29
 1258 930 1258 930 1213.5 886 c 128,-1,30
 1169 842 1169 842 1114.5 805 c 128,-1,31
 1060 768 1060 768 1003 745 c 1,32,33
 1044 725 1044 725 1076.5 696 c 128,-1,34
 1109 667 1109 667 1134 630 c 0,35,36
 1199 522 1199 522 1162 391 c 0,37,38
 1121 237 1121 237 1010 157 c 0,39,40
 948 101 948 101 852.5 79 c 128,-1,41
 757 57 757 57 652 52.5 c 128,-1,42
 547 48 547 48 443.5 51.5 c 128,-1,43
 340 55 340 55 264 53 c 1,44,45
 249 37 249 37 232.5 25.5 c 128,-1,46
 216 14 216 14 196 14 c 0,47,48
 152 14 152 14 152 53 c 1,49,-1
 110 53 l 1,0,1
822 1385 m 1,50,51
 752 1385 752 1385 690 1373.5 c 128,-1,52
 628 1362 628 1362 577 1343 c 1,53,54
 536 1127 536 1127 492 913 c 0,55,56
 451 725 451 725 404 538.5 c 128,-1,57
 357 352 357 352 295 159 c 1,58,59
 363 159 363 159 455 157.5 c 128,-1,60
 547 156 547 156 639.5 162 c 128,-1,61
 732 168 732 168 813.5 184 c 128,-1,62
 895 200 895 200 939 233 c 0,63,64
 976 262 976 262 1008 299 c 128,-1,65
 1040 336 1040 336 1052 389 c 0,66,67
 1090 545 1090 545 976.5 617.5 c 128,-1,68
 863 690 863 690 600 693 c 0,69,70
 529 693 529 693 543 752 c 0,71,72
 548 773 548 773 554.5 784.5 c 128,-1,73
 561 796 561 796 571.5 801.5 c 128,-1,74
 582 807 582 807 599 807 c 128,-1,75
 616 807 616 807 640 807 c 0,76,77
 720 808 720 808 813.5 818 c 128,-1,78
 907 828 907 828 992 856 c 128,-1,79
 1077 884 1077 884 1140 937.5 c 128,-1,80
 1203 991 1203 991 1222 1079 c 0,81,82
 1240 1159 1240 1159 1211 1217 c 128,-1,83
 1182 1275 1182 1275 1123.5 1312.5 c 128,-1,84
 1065 1350 1065 1350 986 1367.5 c 128,-1,85
 907 1385 907 1385 822 1385 c 1,50,51
EndSplineSet
EndChar
StartChar: C
Encoding: 67 67 38
Width: 1430
VWidth: 3622
Flags: W
HStem: -4 121<683.721 939.151> 1381 121<867.581 1199.24>
VStem: 210 123<336.576 617.993>
Fore
1555 1491 m 2,0,-1
 1564 1491 l 2,1,2
 1604 1491 1604 1491 1604 1459 c 0,3,4
 1604 1454 1604 1454 1599.5 1429 c 128,-1,5
 1595 1404 1595 1404 1581 1332 c 0,6,7
 1571 1284 1571 1284 1563 1243.5 c 128,-1,8
 1555 1203 1555 1203 1544.5 1172 c 128,-1,9
 1534 1141 1534 1141 1517 1124 c 128,-1,10
 1500 1107 1500 1107 1473 1107 c 0,11,12
 1459 1107 1459 1107 1445 1113.5 c 128,-1,13
 1431 1120 1431 1120 1422 1132 c 0,14,15
 1381 1196 1381 1196 1345 1242.5 c 128,-1,16
 1309 1289 1309 1289 1269 1320 c 128,-1,17
 1229 1351 1229 1351 1182.5 1366 c 128,-1,18
 1136 1381 1136 1381 1077 1381 c 0,19,20
 964 1381 964 1381 849 1332.5 c 128,-1,21
 734 1284 734 1284 634 1195 c 128,-1,22
 534 1106 534 1106 459 978.5 c 128,-1,23
 384 851 384 851 350 692 c 0,24,25
 333 608 333 608 333 534 c 0,26,27
 333 419 333 419 373.5 339.5 c 128,-1,28
 414 260 414 260 479.5 210.5 c 128,-1,29
 545 161 545 161 627 139 c 128,-1,30
 709 117 709 117 792 117 c 0,31,32
 888 117 888 117 973 140 c 128,-1,33
 1058 163 1058 163 1130.5 211.5 c 128,-1,34
 1203 260 1203 260 1260.5 335 c 128,-1,35
 1318 410 1318 410 1358 515 c 0,36,37
 1373 545 1373 545 1391.5 557.5 c 128,-1,38
 1410 570 1410 570 1438 570 c 0,39,40
 1484 570 1484 570 1484 529 c 0,41,42
 1484 516 1484 516 1479 499 c 0,43,44
 1431 363 1431 363 1356.5 267.5 c 128,-1,45
 1282 172 1282 172 1189.5 111.5 c 128,-1,46
 1097 51 1097 51 988 23.5 c 128,-1,47
 879 -4 879 -4 766 -4 c 0,48,49
 669 -4 669 -4 570 23 c 128,-1,50
 471 50 471 50 391 110 c 128,-1,51
 311 170 311 170 260.5 266.5 c 128,-1,52
 210 363 210 363 210 504 c 0,53,54
 210 587 210 587 232 688 c 0,55,56
 272 879 272 879 363.5 1030.5 c 128,-1,57
 455 1182 455 1182 576 1286 c 128,-1,58
 697 1390 697 1390 837.5 1446 c 128,-1,59
 978 1502 978 1502 1116 1502 c 0,60,61
 1226 1502 1226 1502 1310 1449 c 128,-1,62
 1394 1396 1394 1396 1463 1321 c 1,63,64
 1468 1343 1468 1343 1471.5 1371 c 128,-1,65
 1475 1399 1475 1399 1485 1424.5 c 128,-1,66
 1495 1450 1495 1450 1510.5 1469 c 128,-1,67
 1526 1488 1526 1488 1555 1491 c 2,0,-1
EndSplineSet
EndChar
StartChar: D
Encoding: 68 68 39
Width: 1399
VWidth: 3622
Flags: W
HStem: 11 120<446 658.141> 1348 124.5<510.025 527.635 527.635 548.36 548.36 550 686 916.701> 1482 20G<618.5 656.5>
Fore
550 1348 m 1,0,1
 499 1348 499 1348 479.5 1365.5 c 128,-1,2
 460 1383 460 1383 460 1403 c 0,3,4
 460 1415 460 1415 469.5 1427.5 c 128,-1,5
 479 1440 479 1440 490 1449.5 c 128,-1,6
 501 1459 501 1459 509.5 1465.5 c 128,-1,7
 518 1472 518 1472 520 1473 c 1,8,9
 524 1473 524 1473 535.5 1472.5 c 128,-1,10
 547 1472 547 1472 577 1472 c 1,11,12
 598 1502 598 1502 639 1502 c 0,13,14
 674 1502 674 1502 686 1472 c 1,15,16
 872 1472 872 1472 1029.5 1425 c 128,-1,17
 1187 1378 1187 1378 1295 1288.5 c 128,-1,18
 1403 1199 1403 1199 1450.5 1066.5 c 128,-1,19
 1498 934 1498 934 1466 762 c 0,20,21
 1426 584 1426 584 1326 444 c 128,-1,22
 1226 304 1226 304 1081.5 207.5 c 128,-1,23
 937 111 937 111 757.5 61 c 128,-1,24
 578 11 578 11 379 11 c 0,25,26
 348 11 348 11 313 11 c 128,-1,27
 278 11 278 11 248.5 15 c 128,-1,28
 219 19 219 19 199.5 30 c 128,-1,29
 180 41 180 41 180 64 c 0,30,31
 180 136 180 136 244 142 c 1,32,-1
 331 129 l 1,33,-1
 550 1348 l 1,0,1
446 131 m 1,34,35
 554 133 554 133 661.5 157.5 c 128,-1,36
 769 182 769 182 869 226.5 c 128,-1,37
 969 271 969 271 1055 335.5 c 128,-1,38
 1141 400 1141 400 1204.5 480.5 c 128,-1,39
 1268 561 1268 561 1304.5 659 c 128,-1,40
 1341 757 1341 757 1341 868 c 0,41,42
 1341 1001 1341 1001 1285 1091.5 c 128,-1,43
 1229 1182 1229 1182 1135.5 1238.5 c 128,-1,44
 1042 1295 1042 1295 920.5 1321.5 c 128,-1,45
 799 1348 799 1348 669 1351 c 1,46,-1
 446 131 l 1,34,35
EndSplineSet
EndChar
StartChar: E
Encoding: 69 69 40
Width: 1112
VWidth: 3622
Flags: W
HStem: 31.5 104.5<573.534 693.123 693.123 779.911 779.911 823.092 823.092 928.369> 46 102<115.345 176.86> 50 118<312.229 455.779 879.622 1032.28> 720 113<320.135 340 485.148 544.785 544.785 645.081 645.081 813.788 813.788 850.196 850.196 945.246 945.246 1009.84> 1347 119.5<593 629.513 629.513 651.577 651.577 772.3 772.3 774.031 773.165 933.29 904.062 962.519 962.519 1035.4 1035.4 1135.88 1135.88 1200 1211.5 1247.42>
Fore
179 150 m 1,0,1
 223 278 223 278 261 419.5 c 128,-1,2
 299 561 299 561 336 704 c 2,3,-1
 340 720 l 1,4,-1
 311 723 l 1,5,6
 294 734 294 734 288.5 752.5 c 128,-1,7
 283 771 283 771 289 789 c 128,-1,8
 295 807 295 807 311 820 c 128,-1,9
 327 833 327 833 352 833 c 2,10,-1
 366 833 l 1,11,12
 396 960 396 960 426 1091 c 128,-1,13
 456 1222 456 1222 474 1355 c 1,14,15
 433 1357 433 1357 433 1390 c 0,16,17
 433 1422 433 1422 455.5 1438 c 128,-1,18
 478 1454 478 1454 516 1457 c 0,19,20
 591 1461 591 1461 683 1464.5 c 128,-1,21
 775 1468 775 1468 865 1468 c 0,22,23
 971 1468 971 1468 1059.5 1466.5 c 128,-1,24
 1148 1465 1148 1465 1211.5 1459.5 c 128,-1,25
 1275 1454 1275 1454 1310.5 1442.5 c 128,-1,26
 1346 1431 1346 1431 1346 1413 c 0,27,28
 1346 1385 1346 1385 1323 1362 c 128,-1,29
 1300 1339 1300 1339 1270 1337 c 0,30,31
 1245 1339 1245 1339 1200 1341.5 c 128,-1,32
 1155 1344 1155 1344 1097.5 1347 c 128,-1,33
 1040 1350 1040 1350 973 1351.5 c 128,-1,34
 906 1353 906 1353 835 1353 c 0,35,36
 766 1353 766 1353 710 1352 c 128,-1,37
 654 1351 654 1351 593 1346 c 1,38,39
 561 1199 561 1199 543 1111.5 c 128,-1,40
 525 1024 525 1024 514.5 972 c 128,-1,41
 504 920 504 920 498 891.5 c 128,-1,42
 492 863 492 863 485 837 c 1,43,44
 538 835 538 835 605 835 c 128,-1,45
 672 835 672 835 743.5 835 c 128,-1,46
 815 835 815 835 884 833 c 128,-1,47
 953 831 953 831 1006 826 c 1,48,49
 1035 819 1035 819 1035 771 c 0,50,51
 1035 746 1035 746 1020 731 c 128,-1,52
 1005 716 1005 716 982 716 c 0,53,54
 817 718 817 718 720.5 719 c 128,-1,55
 624 720 624 720 571 720 c 128,-1,56
 518 720 518 720 497 720 c 128,-1,57
 476 720 476 720 462 718 c 1,58,59
 448 658 448 658 426.5 584.5 c 128,-1,60
 405 511 405 511 383 437 c 128,-1,61
 361 363 361 363 341.5 293 c 128,-1,62
 322 223 322 223 311 168 c 1,63,64
 440 154 440 154 535.5 146 c 128,-1,65
 631 138 631 138 708 136 c 128,-1,66
 785 134 785 134 851.5 138.5 c 128,-1,67
 918 143 918 143 991 154 c 1,68,69
 1021 154 1021 154 1038.5 139 c 128,-1,70
 1056 124 1056 124 1056 106 c 0,71,72
 1056 83 1056 83 1033 68 c 128,-1,73
 1010 53 1010 53 970 44 c 128,-1,74
 930 35 930 35 878 31.5 c 128,-1,75
 826 28 826 28 768 28 c 0,76,77
 697 28 697 28 618 31.5 c 128,-1,78
 539 35 539 35 465 38.5 c 128,-1,79
 391 42 391 42 324.5 46 c 128,-1,80
 258 50 258 50 214 50 c 0,81,82
 198 50 198 50 177.5 47 c 128,-1,83
 157 44 157 44 138.5 46 c 128,-1,84
 120 48 120 48 107 55 c 128,-1,85
 94 62 94 62 94 83 c 0,86,87
 94 113 94 113 99 126.5 c 128,-1,88
 104 140 104 140 115 144.5 c 128,-1,89
 126 149 126 149 141.5 148 c 128,-1,90
 157 147 157 147 179 150 c 1,0,1
EndSplineSet
EndChar
StartChar: F
Encoding: 70 70 41
Width: 1075
VWidth: 3622
Flags: W
HStem: 681 118<499 525.331 525.331 596.59 596.59 664.423 664.423 749.031 672.81 798.713 756.092 841.335 841.335 930.556> 1341 113<378.252 410.696 410.696 467 610 672.368 672.368 735.5 735.5 851.156 857.394 955.185 1075.66 1249.56> 1355 114<737.328 1081.18>
VStem: 485 125<1468 1534.19>
Fore
249 757 m 1,0,-1
 371 780 l 1,1,-1
 467 1344 l 1,2,3
 448 1343 448 1343 428.5 1342 c 128,-1,4
 409 1341 409 1341 393 1341 c 0,5,6
 341 1341 341 1341 341 1383 c 0,7,8
 341 1417 341 1417 360.5 1435.5 c 128,-1,9
 380 1454 380 1454 416 1454 c 2,10,-1
 483 1457 l 1,11,-1
 485 1505 l 1,12,13
 492 1537 492 1537 512 1552 c 128,-1,14
 532 1567 532 1567 554 1567 c 0,15,16
 578 1567 578 1567 594 1548.5 c 128,-1,17
 610 1530 610 1530 610 1498 c 2,18,-1
 610 1468 l 1,19,20
 822 1472 822 1472 959.5 1469 c 128,-1,21
 1097 1466 1097 1466 1176.5 1458 c 128,-1,22
 1256 1450 1256 1450 1287 1435 c 128,-1,23
 1318 1420 1318 1420 1318 1399 c 256,24,25
 1318 1378 1318 1378 1300 1357.5 c 128,-1,26
 1282 1337 1282 1337 1252 1325 c 1,27,28
 1174 1341 1174 1341 1084 1348 c 128,-1,29
 994 1355 994 1355 853 1355 c 0,30,31
 794 1355 794 1355 735.5 1354 c 128,-1,32
 677 1353 677 1353 593 1351 c 1,33,34
 577 1224 577 1224 553 1086 c 128,-1,35
 529 948 529 948 499 799 c 1,36,37
 520 799 520 799 552 801 c 128,-1,38
 584 803 584 803 623 805.5 c 128,-1,39
 662 808 662 808 706 810 c 128,-1,40
 750 812 750 812 792 812 c 0,41,42
 844 812 844 812 890.5 808.5 c 128,-1,43
 937 805 937 805 973.5 797 c 128,-1,44
 1010 789 1010 789 1031 775.5 c 128,-1,45
 1052 762 1052 762 1052 741 c 0,46,47
 1052 708 1052 708 1031 692 c 128,-1,48
 1010 676 1010 676 982 676 c 0,49,50
 907 683 907 683 833 687.5 c 128,-1,51
 759 692 759 692 679 692 c 0,52,53
 585 692 585 692 472 681 c 1,54,-1
 465 644 l 2,55,56
 439 522 439 522 414 408 c 128,-1,57
 389 294 389 294 363.5 206.5 c 128,-1,58
 338 119 338 119 311.5 66.5 c 128,-1,59
 285 14 285 14 258 14 c 0,60,61
 233 14 233 14 213 24 c 128,-1,62
 193 34 193 34 193 51 c 0,63,64
 193 53 193 53 194 55 c 128,-1,65
 195 57 195 57 195 58 c 0,66,67
 225 152 225 152 246 231.5 c 128,-1,68
 267 311 267 311 284.5 383 c 128,-1,69
 302 455 302 455 317.5 524.5 c 128,-1,70
 333 594 333 594 348 669 c 1,71,-1
 345 669 l 1,72,73
 333 663 333 663 308 654.5 c 128,-1,74
 283 646 283 646 259 641.5 c 128,-1,75
 235 637 235 637 216.5 643 c 128,-1,76
 198 649 198 649 198 676 c 0,77,78
 198 709 198 709 213 728.5 c 128,-1,79
 228 748 228 748 249 757 c 1,0,-1
EndSplineSet
EndChar
StartChar: G
Encoding: 71 71 42
Width: 1517
VWidth: 3622
Flags: W
HStem: 7 120<577.792 1014.84> 612 119.5<1219.46 1321.88 1447 1472.97 1472.97 1504.26> 1330 120<821.281 1178.54>
VStem: 1323 124<535.672 612> 1506 107<1266.16 1301 1301 1340.92>
Fore
1503 729 m 0,0,1
 1534 725 1534 725 1541.5 709 c 128,-1,2
 1549 693 1549 693 1541 669 c 256,3,4
 1532 644 1532 644 1512.5 633.5 c 128,-1,5
 1493 623 1493 623 1447 623 c 1,6,7
 1426 516 1426 516 1377 406.5 c 128,-1,8
 1328 297 1328 297 1247 208 c 128,-1,9
 1166 119 1166 119 1049 63 c 128,-1,10
 932 7 932 7 775 7 c 0,11,12
 612 7 612 7 497 67 c 128,-1,13
 382 127 382 127 315 228 c 128,-1,14
 248 329 248 329 230 461 c 128,-1,15
 212 593 212 593 242 734 c 0,16,17
 272 874 272 874 346.5 1002 c 128,-1,18
 421 1130 421 1130 527 1228.5 c 128,-1,19
 633 1327 633 1327 766 1387 c 128,-1,20
 899 1447 899 1447 1044 1450 c 0,21,22
 1118 1452 1118 1452 1180.5 1444 c 128,-1,23
 1243 1436 1243 1436 1298 1415 c 128,-1,24
 1353 1394 1353 1394 1402.5 1357 c 128,-1,25
 1452 1320 1452 1320 1500 1259 c 1,26,27
 1505 1279 1505 1279 1506 1301 c 128,-1,28
 1507 1323 1507 1323 1511.5 1341.5 c 128,-1,29
 1516 1360 1516 1360 1528.5 1371.5 c 128,-1,30
 1541 1383 1541 1383 1569 1383 c 0,31,32
 1618 1383 1618 1383 1613 1343 c 0,33,34
 1611 1302 1611 1302 1606 1265 c 128,-1,35
 1601 1228 1601 1228 1589.5 1198.5 c 128,-1,36
 1578 1169 1578 1169 1556.5 1151.5 c 128,-1,37
 1535 1134 1535 1134 1503 1134 c 1,38,39
 1449 1148 1449 1148 1414.5 1180.5 c 128,-1,40
 1380 1213 1380 1213 1336.5 1246 c 128,-1,41
 1293 1279 1293 1279 1223 1304.5 c 128,-1,42
 1153 1330 1153 1330 1029 1330 c 0,43,44
 923 1330 923 1330 818 1285 c 128,-1,45
 713 1240 713 1240 623.5 1160.5 c 128,-1,46
 534 1081 534 1081 468 971 c 128,-1,47
 402 861 402 861 375 734 c 0,48,49
 347 605 347 605 360 493.5 c 128,-1,50
 373 382 373 382 427 300.5 c 128,-1,51
 481 219 481 219 575 173 c 128,-1,52
 669 127 669 127 801 127 c 0,53,54
 922 127 922 127 1009.5 164.5 c 128,-1,55
 1097 202 1097 202 1158.5 267.5 c 128,-1,56
 1220 333 1220 333 1259 421 c 128,-1,57
 1298 509 1298 509 1323 612 c 1,58,-1
 1312 612 l 1,59,-1
 1228 619 l 2,60,61
 1196 623 1196 623 1185 640.5 c 128,-1,62
 1174 658 1174 658 1178 679 c 0,63,64
 1183 704 1183 704 1203.5 721 c 128,-1,65
 1224 738 1224 738 1254 738 c 0,66,67
 1334 731 1334 731 1391.5 731.5 c 128,-1,68
 1449 732 1449 732 1503 729 c 0,0,1
EndSplineSet
EndChar
StartChar: H
Encoding: 72 72 43
Width: 1383
VWidth: 3622
Flags: W
HStem: 601 121<842.768 1194 1332 1401.66> 620 111<279.5 328.758 328.758 347 501 642.25 642.25 826.5 826.5 855.5 855.5 1177.73>
Fore
384 731 m 1,0,-1
 600 1461 l 2,1,2
 608 1493 608 1493 629.5 1505.5 c 128,-1,3
 651 1518 651 1518 674 1518 c 256,4,5
 697 1518 697 1518 712 1505.5 c 128,-1,6
 727 1493 727 1493 727 1472 c 0,7,8
 727 1457 727 1457 723 1450 c 1,9,-1
 723 1454 l 1,10,11
 667 1268 667 1268 612 1093 c 128,-1,12
 557 918 557 918 501 731 c 1,13,-1
 1210 722 l 1,14,-1
 1335 1457 l 2,15,16
 1341 1491 1341 1491 1363 1504.5 c 128,-1,17
 1385 1518 1385 1518 1410 1518 c 0,18,19
 1431 1518 1431 1518 1447 1507 c 128,-1,20
 1463 1496 1463 1496 1463 1477 c 0,21,22
 1463 1465 1463 1465 1459 1457 c 1,23,24
 1426 1270 1426 1270 1396 1090.5 c 128,-1,25
 1366 911 1366 911 1332 722 c 1,26,27
 1374 722 1374 722 1406 715 c 128,-1,28
 1438 708 1438 708 1438 676 c 0,29,30
 1438 639 1438 639 1418.5 620 c 128,-1,31
 1399 601 1399 601 1369 601 c 2,32,-1
 1307 601 l 1,33,-1
 1206 90 l 2,34,35
 1201 65 1201 65 1172 51 c 128,-1,36
 1143 37 1143 37 1116 37 c 0,37,38
 1102 37 1102 37 1090.5 42.5 c 128,-1,39
 1079 48 1079 48 1079 62 c 0,40,41
 1079 64 1079 64 1080 64.5 c 128,-1,42
 1081 65 1081 65 1081 69 c 1,43,-1
 1194 601 l 1,44,45
 1006 605 1006 605 826.5 608.5 c 128,-1,46
 647 612 647 612 458 616 c 1,47,-1
 302 46 l 1,48,49
 288 27 288 27 265 17 c 128,-1,50
 242 7 242 7 221 7 c 0,51,52
 205 7 205 7 193.5 14 c 128,-1,53
 182 21 182 21 182 35 c 0,54,55
 182 46 182 46 189 60 c 1,56,-1
 347 619 l 1,57,58
 329 619 329 619 310.5 620 c 128,-1,59
 292 621 292 621 276 624.5 c 128,-1,60
 260 628 260 628 249.5 636 c 128,-1,61
 239 644 239 644 239 660 c 0,62,63
 239 695 239 695 263 715.5 c 128,-1,64
 287 736 287 736 311 734 c 2,65,-1
 384 731 l 1,0,-1
EndSplineSet
EndChar
StartChar: I
Encoding: 73 73 44
Width: 804
VWidth: 3622
Flags: W
HStem: 21 113<97.6758 380 533.766 681.788 681.788 745.782> 1360 115<346.472 520.491> 1371 120<537.234 812.065 626.546 664.908 664.908 685 801 820.973 820.973 922.972 925.035 997.584>
VStem: 57 1020<60 1443 -118.454 -80.0923>
Fore
380 134 m 1,0,1
 391 172 391 172 407 236.5 c 128,-1,2
 423 301 423 301 442.5 383 c 128,-1,3
 462 465 462 465 485.5 559.5 c 128,-1,4
 509 654 509 654 536 752 c 1,5,-1
 536 750 l 1,6,7
 562 853 562 853 586 950 c 128,-1,8
 610 1047 610 1047 629.5 1129.5 c 128,-1,9
 649 1212 649 1212 663 1273.5 c 128,-1,10
 677 1335 677 1335 685 1367 c 1,11,12
 662 1369 662 1369 645 1370 c 128,-1,13
 628 1371 628 1371 608 1371 c 0,14,15
 570 1371 570 1371 522 1365.5 c 128,-1,16
 474 1360 474 1360 391 1360 c 0,17,18
 361 1360 361 1360 346 1373.5 c 128,-1,19
 331 1387 331 1387 331 1404 c 0,20,21
 331 1459 331 1459 454 1475 c 128,-1,22
 577 1491 577 1491 805 1491 c 0,23,24
 923 1491 923 1491 1000 1484 c 128,-1,25
 1077 1477 1077 1477 1077 1443 c 0,26,27
 1077 1427 1077 1427 1069 1413 c 128,-1,28
 1061 1399 1061 1399 1050.5 1388.5 c 128,-1,29
 1040 1378 1040 1378 1027.5 1372 c 128,-1,30
 1015 1366 1015 1366 1005 1366 c 0,31,32
 957 1369 957 1369 924 1371.5 c 128,-1,33
 891 1374 891 1374 872 1374 c 256,34,35
 853 1374 853 1374 840.5 1374 c 128,-1,36
 828 1374 828 1374 801 1371 c 1,37,38
 791 1320 791 1320 767 1220 c 128,-1,39
 743 1120 743 1120 714 996 c 128,-1,40
 685 872 685 872 652 737.5 c 128,-1,41
 619 603 619 603 588 483 c 128,-1,42
 557 363 557 363 533 269 c 128,-1,43
 509 175 509 175 497 134 c 1,44,45
 568 126 568 126 625.5 123 c 128,-1,46
 683 120 683 120 738 124 c 0,47,48
 785 122 785 122 785 85 c 0,49,50
 785 50 785 50 764 30.5 c 128,-1,51
 743 11 743 11 715 11 c 2,52,-1
 94 21 l 1,53,54
 57 34 57 34 57 60 c 0,55,56
 57 90 57 90 79 112 c 128,-1,57
 101 134 101 134 120 134 c 2,58,-1
 380 134 l 1,0,1
EndSplineSet
EndChar
StartChar: J
Encoding: 74 74 45
Width: 1017
VWidth: 3622
Flags: W
HStem: 16 108<326.673 352 406 425.003 425.003 447.062 436.032 582.715> 1364 116<961.385 999.48 1001.51 1052 1176 1192.55 1192.55 1297.87>
VStem: 120 119<216.757 421.813>
Fore
1238 1364 m 0,0,1
 1224 1364 1224 1364 1209 1364 c 128,-1,2
 1194 1364 1194 1364 1176 1362 c 1,3,4
 1136 1187 1136 1187 1108.5 1063 c 128,-1,5
 1081 939 1081 939 1061.5 853.5 c 128,-1,6
 1042 768 1042 768 1030.5 715.5 c 128,-1,7
 1019 663 1019 663 1012 631.5 c 128,-1,8
 1005 600 1005 600 1001.5 583 c 128,-1,9
 998 566 998 566 994 552 c 0,10,11
 959 409 959 409 900.5 304.5 c 128,-1,12
 842 200 842 200 770.5 133.5 c 128,-1,13
 699 67 699 67 621 35.5 c 128,-1,14
 543 4 543 4 471 4 c 0,15,16
 414 4 414 4 352 16 c 128,-1,17
 290 28 290 28 238.5 64.5 c 128,-1,18
 187 101 187 101 153.5 166.5 c 128,-1,19
 120 232 120 232 120 338 c 0,20,21
 120 363 120 363 123 407 c 128,-1,22
 126 451 126 451 135.5 493.5 c 128,-1,23
 145 536 145 536 162 568 c 128,-1,24
 179 600 179 600 207 600 c 0,25,26
 260 600 260 600 260 557 c 0,27,28
 260 501 260 501 249.5 455 c 128,-1,29
 239 409 239 409 239 370 c 0,30,31
 239 283 239 283 263.5 232.5 c 128,-1,32
 288 182 288 182 325.5 156.5 c 128,-1,33
 363 131 363 131 406 124 c 128,-1,34
 449 117 449 117 488 117 c 0,35,36
 541 117 541 117 597 140 c 128,-1,37
 653 163 653 163 703.5 215 c 128,-1,38
 754 267 754 267 798 349.5 c 128,-1,39
 842 432 842 432 874 550 c 0,40,41
 904 662 904 662 923.5 759 c 128,-1,42
 943 856 943 856 960.5 951.5 c 128,-1,43
 978 1047 978 1047 999.5 1147 c 128,-1,44
 1021 1247 1021 1247 1052 1364 c 1,45,46
 1033 1364 1033 1364 1000.5 1361 c 128,-1,47
 968 1358 968 1358 916 1358 c 0,48,49
 891 1358 891 1358 879.5 1373.5 c 128,-1,50
 868 1389 868 1389 868 1404 c 0,51,52
 868 1452 868 1452 923 1466 c 128,-1,53
 978 1480 978 1480 1098 1480 c 0,54,55
 1160 1480 1160 1480 1211.5 1478.5 c 128,-1,56
 1263 1477 1263 1477 1299 1472.5 c 128,-1,57
 1335 1468 1335 1468 1355.5 1459 c 128,-1,58
 1376 1450 1376 1450 1376 1436 c 256,59,60
 1376 1422 1376 1422 1362 1399 c 0,61,62
 1346 1373 1346 1373 1317.5 1368.5 c 128,-1,63
 1289 1364 1289 1364 1238 1364 c 0,0,1
EndSplineSet
EndChar
StartChar: K
Encoding: 75 75 46
Width: 1216
VWidth: 3622
Flags: W
Fore
941 1024 m 0,0,1
 851 971 851 971 753.5 913.5 c 128,-1,2
 656 856 656 856 557 799 c 1,3,4
 566 761 566 761 621 686.5 c 128,-1,5
 676 612 676 612 760 520 c 128,-1,6
 844 428 844 428 949 329 c 128,-1,7
 1054 230 1054 230 1166 142 c 0,8,9
 1206 111 1206 111 1205.5 85.5 c 128,-1,10
 1205 60 1205 60 1182.5 45 c 128,-1,11
 1160 30 1160 30 1127.5 29 c 128,-1,12
 1095 28 1095 28 1072 46 c 0,13,14
 953 143 953 143 864 224.5 c 128,-1,15
 775 306 775 306 702.5 383 c 128,-1,16
 630 460 630 460 569 539.5 c 128,-1,17
 508 619 508 619 448 711 c 1,18,-1
 310 97 l 1,19,20
 295 62 295 62 271.5 46 c 128,-1,21
 248 30 248 30 226 30 c 0,22,23
 207 30 207 30 193.5 46 c 128,-1,24
 180 62 180 62 180 87 c 0,25,26
 180 88 180 88 181 96 c 128,-1,27
 182 104 182 104 190 137 c 128,-1,28
 198 170 198 170 213 240 c 128,-1,29
 228 310 228 310 258 437 c 0,30,31
 290 580 290 580 320 710 c 128,-1,32
 350 840 350 840 376.5 964 c 128,-1,33
 403 1088 403 1088 427 1206.5 c 128,-1,34
 451 1325 451 1325 474 1445 c 0,35,36
 478 1459 478 1459 495.5 1466 c 128,-1,37
 513 1473 513 1473 534 1473 c 0,38,39
 562 1473 562 1473 580 1463.5 c 128,-1,40
 598 1454 598 1454 598 1438 c 1,41,42
 578 1350 578 1350 563 1278 c 128,-1,43
 548 1206 548 1206 535 1142.5 c 128,-1,44
 522 1079 522 1079 510.5 1020.5 c 128,-1,45
 499 962 499 962 488 900 c 1,46,-1
 881 1127 l 2,47,48
 998 1194 998 1194 1099.5 1262 c 128,-1,49
 1201 1330 1201 1330 1276 1374.5 c 128,-1,50
 1351 1419 1351 1419 1395.5 1427.5 c 128,-1,51
 1440 1436 1440 1436 1440 1383 c 0,52,53
 1440 1350 1440 1350 1412 1330 c 1,54,-1
 1413 1332 l 1,55,56
 1381 1305 1381 1305 1331.5 1271.5 c 128,-1,57
 1282 1238 1282 1238 1221 1198.5 c 128,-1,58
 1160 1159 1160 1159 1088.5 1114.5 c 128,-1,59
 1017 1070 1017 1070 941 1024 c 0,0,1
EndSplineSet
EndChar
StartChar: L
Encoding: 76 76 47
Width: 1047
VWidth: 3622
Flags: W
HStem: 33.5 111.5<374.95 536.08 536.08 600.532 600.532 624.5 659 763.781>
VStem: 168 117.5<224.81 301.883> 168 846<97.0787 136 136 142.203>
Fore
302 373 m 1,0,1
 288 325 288 325 285.5 281 c 128,-1,2
 283 237 283 237 301.5 204.5 c 128,-1,3
 320 172 320 172 366 155 c 128,-1,4
 412 138 412 138 495 145 c 0,5,6
 554 149 554 149 624.5 157.5 c 128,-1,7
 695 166 695 166 766 177 c 0,8,9
 807 184 807 184 853.5 189.5 c 128,-1,10
 900 195 900 195 948 202 c 0,11,12
 978 205 978 205 998.5 183 c 128,-1,13
 1019 161 1019 161 1014 136 c 0,14,15
 1008 115 1008 115 991.5 96.5 c 128,-1,16
 975 78 975 78 939 74 c 2,17,-1
 822 57 l 2,18,19
 738 42 738 42 659 33.5 c 128,-1,20
 580 25 580 25 478 25 c 0,21,22
 379 25 379 25 311.5 31 c 128,-1,23
 244 37 244 37 208 74 c 128,-1,24
 172 111 172 111 168 191 c 128,-1,25
 164 271 164 271 196 417 c 0,26,27
 253 649 253 649 304.5 837.5 c 128,-1,28
 356 1026 356 1026 402 1164 c 1,29,-1
 402 1162 l 1,30,31
 428 1243 428 1243 453.5 1316.5 c 128,-1,32
 479 1390 479 1390 504 1456 c 0,33,34
 513 1482 513 1482 533.5 1493.5 c 128,-1,35
 554 1505 554 1505 577 1505 c 0,36,37
 603 1505 603 1505 618 1487.5 c 128,-1,38
 633 1470 633 1470 624 1438 c 0,39,40
 584 1334 584 1334 545 1220 c 128,-1,41
 506 1106 506 1106 471.5 991.5 c 128,-1,42
 437 877 437 877 406 765 c 128,-1,43
 375 653 375 653 348 550 c 0,44,45
 338 509 338 509 325.5 463 c 128,-1,46
 313 417 313 417 304 375 c 1,47,-1
 302 373 l 1,0,1
EndSplineSet
EndChar
StartChar: M
Encoding: 77 77 48
Width: 1690
VWidth: 3622
Flags: W
HStem: 1385 124<655.516 752.54>
VStem: 1578 109<1271.56 1370.4>
Fore
1493 73 m 0,0,1
 1486 35 1486 35 1465.5 15.5 c 128,-1,2
 1445 -4 1445 -4 1424 -4 c 128,-1,3
 1403 -4 1403 -4 1387 15.5 c 128,-1,4
 1371 35 1371 35 1371 76 c 1,5,6
 1387 159 1387 159 1409 281 c 128,-1,7
 1431 403 1431 403 1455 538.5 c 128,-1,8
 1479 674 1479 674 1502 812 c 128,-1,9
 1525 950 1525 950 1542.5 1066 c 128,-1,10
 1560 1182 1560 1182 1570 1264 c 128,-1,11
 1580 1346 1580 1346 1578 1371 c 1,12,13
 1530 1360 1530 1360 1475 1314 c 128,-1,14
 1420 1268 1420 1268 1362.5 1202 c 128,-1,15
 1305 1136 1305 1136 1249.5 1052.5 c 128,-1,16
 1194 969 1194 969 1145.5 883.5 c 128,-1,17
 1097 798 1097 798 1059 716.5 c 128,-1,18
 1021 635 1021 635 999 568 c 0,19,20
 980 509 980 509 934 509 c 0,21,22
 911 509 911 509 897 519 c 128,-1,23
 883 529 883 529 884 550 c 0,24,25
 888 628 888 628 885.5 721 c 128,-1,26
 883 814 883 814 872 906 c 128,-1,27
 861 998 861 998 844.5 1084.5 c 128,-1,28
 828 1171 828 1171 805 1238 c 128,-1,29
 782 1305 782 1305 752 1345 c 128,-1,30
 722 1385 722 1385 686 1385 c 0,31,32
 674 1385 674 1385 652 1335.5 c 128,-1,33
 630 1286 630 1286 600.5 1196.5 c 128,-1,34
 571 1107 571 1107 536.5 983.5 c 128,-1,35
 502 860 502 860 464 711 c 128,-1,36
 426 562 426 562 386.5 393.5 c 128,-1,37
 347 225 347 225 310 48 c 1,38,39
 301 35 301 35 280.5 25.5 c 128,-1,40
 260 16 260 16 239 13.5 c 128,-1,41
 218 11 218 11 202 19 c 128,-1,42
 186 27 186 27 186 48 c 1,43,44
 345 775 345 775 467 1142 c 128,-1,45
 589 1509 589 1509 704 1509 c 0,46,47
 768 1509 768 1509 820 1460.5 c 128,-1,48
 872 1412 872 1412 910 1324 c 128,-1,49
 948 1236 948 1236 972 1115 c 128,-1,50
 996 994 996 994 1003 851 c 1,51,52
 1067 994 1067 994 1149 1114.5 c 128,-1,53
 1231 1235 1231 1235 1316 1322.5 c 128,-1,54
 1401 1410 1401 1410 1482.5 1459.5 c 128,-1,55
 1564 1509 1564 1509 1627 1509 c 0,56,57
 1661 1509 1661 1509 1674 1471 c 128,-1,58
 1687 1433 1687 1433 1687 1364 c 0,59,60
 1687 1275 1687 1275 1669.5 1144.5 c 128,-1,61
 1652 1014 1652 1014 1623.5 848.5 c 128,-1,62
 1595 683 1595 683 1560.5 486.5 c 128,-1,63
 1526 290 1526 290 1493 73 c 0,0,1
EndSplineSet
EndChar
StartChar: N
Encoding: 78 78 49
Width: 1551
VWidth: 3622
Flags: W
HStem: 1482 20G<569.5 596 1609.5 1633.5>
Fore
582 1281 m 1,0,1
 543 1134 543 1134 509.5 980 c 128,-1,2
 476 826 476 826 446 672 c 128,-1,3
 416 518 416 518 386 366 c 128,-1,4
 356 214 356 214 325 69 c 0,5,6
 322 58 322 58 300 47.5 c 128,-1,7
 278 37 278 37 253 32.5 c 128,-1,8
 228 28 228 28 209.5 35 c 128,-1,9
 191 42 191 42 195 69 c 0,10,11
 221 191 221 191 252 345 c 128,-1,12
 283 499 283 499 316.5 658 c 128,-1,13
 350 817 350 817 384.5 969 c 128,-1,14
 419 1121 419 1121 452.5 1239 c 128,-1,15
 486 1357 486 1357 520 1429.5 c 128,-1,16
 554 1502 554 1502 585 1502 c 0,17,18
 607 1502 607 1502 646 1444.5 c 128,-1,19
 685 1387 685 1387 734.5 1291.5 c 128,-1,20
 784 1196 784 1196 840.5 1075.5 c 128,-1,21
 897 955 897 955 953.5 828.5 c 128,-1,22
 1010 702 1010 702 1062 582 c 128,-1,23
 1114 462 1114 462 1154 367 c 128,-1,24
 1194 272 1194 272 1219.5 214.5 c 128,-1,25
 1245 157 1245 157 1247 159 c 1,26,27
 1252 159 1252 159 1278.5 264.5 c 128,-1,28
 1305 370 1305 370 1346 547.5 c 128,-1,29
 1387 725 1387 725 1437.5 957.5 c 128,-1,30
 1488 1190 1488 1190 1542 1447 c 1,31,32
 1557 1477 1557 1477 1576 1488.5 c 128,-1,33
 1595 1500 1595 1500 1624 1500 c 1,34,35
 1643 1496 1643 1496 1656.5 1484 c 128,-1,36
 1670 1472 1670 1472 1666 1450 c 0,37,38
 1601 1141 1601 1141 1554 923.5 c 128,-1,39
 1507 706 1507 706 1473.5 558 c 128,-1,40
 1440 410 1440 410 1418.5 321 c 128,-1,41
 1397 232 1397 232 1385 179 c 0,42,43
 1369 131 1369 131 1348 101 c 128,-1,44
 1327 71 1327 71 1304 54 c 128,-1,45
 1281 37 1281 37 1258.5 32 c 128,-1,46
 1236 27 1236 27 1220 28 c 1,47,48
 1192 27 1192 27 1150.5 89.5 c 128,-1,49
 1109 152 1109 152 1057.5 256.5 c 128,-1,50
 1006 361 1006 361 948 494.5 c 128,-1,51
 890 628 890 628 829 767 c 128,-1,52
 768 906 768 906 705 1040 c 128,-1,53
 642 1174 642 1174 582 1281 c 1,0,1
EndSplineSet
EndChar
StartChar: O
Encoding: 79 79 50
Width: 1630
VWidth: 3622
Flags: W
HStem: 21 124<654.796 979.364> 1358 128<834.712 1292.99>
VStem: 1544 110<701.525 963 963 1020.43>
Fore
1654 697 m 1,0,1
 1608 516 1608 516 1516 388 c 128,-1,2
 1424 260 1424 260 1304.5 178.5 c 128,-1,3
 1185 97 1185 97 1047 59 c 128,-1,4
 909 21 909 21 771 21 c 0,5,6
 654 21 654 21 543 60 c 128,-1,7
 432 99 432 99 353 181.5 c 128,-1,8
 274 264 274 264 241.5 391 c 128,-1,9
 209 518 209 518 246 695 c 0,10,11
 285 876 285 876 363.5 1021.5 c 128,-1,12
 442 1167 442 1167 552 1270.5 c 128,-1,13
 662 1374 662 1374 797 1430 c 128,-1,14
 932 1486 932 1486 1086 1486 c 0,15,16
 1242 1486 1242 1486 1365.5 1431 c 128,-1,17
 1489 1376 1489 1376 1567 1273.5 c 128,-1,18
 1645 1171 1645 1171 1670.5 1025 c 128,-1,19
 1696 879 1696 879 1654 699 c 1,20,-1
 1654 697 l 1,0,1
805 145 m 0,21,22
 911 145 911 145 1023.5 170.5 c 128,-1,23
 1136 196 1136 196 1235 259 c 128,-1,24
 1334 322 1334 322 1412.5 429 c 128,-1,25
 1491 536 1491 536 1530 697 c 0,26,27
 1560 842 1560 842 1544 963 c 128,-1,28
 1528 1084 1528 1084 1468 1171 c 128,-1,29
 1408 1258 1408 1258 1305.5 1307.5 c 128,-1,30
 1203 1357 1203 1357 1060 1358 c 0,31,32
 943 1358 943 1358 835 1316 c 128,-1,33
 727 1274 727 1274 637 1190.5 c 128,-1,34
 547 1107 547 1107 479.5 983.5 c 128,-1,35
 412 860 412 860 377 695 c 0,36,37
 343 538 343 538 376 432.5 c 128,-1,38
 409 327 409 327 477 263.5 c 128,-1,39
 545 200 545 200 634 172.5 c 128,-1,40
 723 145 723 145 805 145 c 0,21,22
EndSplineSet
EndChar
StartChar: P
Encoding: 80 80 51
Width: 1199
VWidth: 3622
Flags: W
HStem: 566 124<542.557 890.97> 1366 109<605.625 963.741> 1478 20G<507.5 523.5>
VStem: 1256 117<916.652 1205.66>
Fore
456 738 m 1,0,1
 591 690 591 690 731 690 c 0,2,3
 822 690 822 690 916 714.5 c 128,-1,4
 1010 739 1010 739 1085 788.5 c 128,-1,5
 1160 838 1160 838 1208 911.5 c 128,-1,6
 1256 985 1256 985 1256 1083 c 0,7,8
 1256 1144 1256 1144 1225 1196.5 c 128,-1,9
 1194 1249 1194 1249 1140 1286 c 128,-1,10
 1086 1323 1086 1323 1012.5 1344.5 c 128,-1,11
 939 1366 939 1366 854 1366 c 0,12,13
 709 1366 709 1366 545 1298 c 1,14,-1
 456 738 l 1,0,1
557 1413 m 1,15,16
 711 1475 711 1475 877 1475 c 0,17,18
 975 1475 975 1475 1064 1452 c 128,-1,19
 1153 1429 1153 1429 1222 1386 c 128,-1,20
 1291 1343 1291 1343 1332 1277.5 c 128,-1,21
 1373 1212 1373 1212 1373 1127 c 0,22,23
 1373 985 1373 985 1315.5 880 c 128,-1,24
 1258 775 1258 775 1165 705 c 128,-1,25
 1072 635 1072 635 957 600.5 c 128,-1,26
 842 566 842 566 729 566 c 0,27,28
 654 566 654 566 578 579.5 c 128,-1,29
 502 593 502 593 430 619 c 1,30,31
 400 476 400 476 366.5 330 c 128,-1,32
 333 184 333 184 302 41 c 1,33,34
 294 18 294 18 267.5 3 c 128,-1,35
 241 -12 241 -12 216 -12 c 0,36,37
 187 -12 187 -12 175 5.5 c 128,-1,38
 163 23 163 23 170 48 c 0,39,40
 218 225 218 225 254 394.5 c 128,-1,41
 290 564 290 564 320 718 c 128,-1,42
 350 872 350 872 375 1004.5 c 128,-1,43
 400 1137 400 1137 421 1242 c 1,44,45
 403 1224 403 1224 378.5 1233.5 c 128,-1,46
 354 1243 354 1243 354 1274 c 0,47,48
 354 1289 354 1289 367 1305 c 128,-1,49
 380 1321 380 1321 397 1334.5 c 128,-1,50
 414 1348 414 1348 428 1357 c 128,-1,51
 442 1366 442 1366 444 1366 c 1,52,53
 453 1404 453 1404 458 1430 c 128,-1,54
 463 1456 463 1456 470.5 1470 c 128,-1,55
 478 1484 478 1484 488.5 1490 c 128,-1,56
 499 1496 499 1496 516 1498 c 1,57,58
 531 1496 531 1496 540.5 1487.5 c 128,-1,59
 550 1479 550 1479 555.5 1466.5 c 128,-1,60
 561 1454 561 1454 561 1440 c 128,-1,61
 561 1426 561 1426 557 1413 c 1,15,16
EndSplineSet
EndChar
StartChar: Q
Encoding: 81 81 52
Width: 1593
VWidth: 3622
Flags: W
HStem: 32 122<578.502 1007.62> 1366 129<869.784 1266.74>
Fore
1480 138 m 1,0,1
 1489 117 1489 117 1482 97.5 c 128,-1,2
 1475 78 1475 78 1459 64.5 c 128,-1,3
 1443 51 1443 51 1423 46 c 128,-1,4
 1403 41 1403 41 1385 50 c 1,5,6
 1383 51 1383 51 1377 56.5 c 128,-1,7
 1371 62 1371 62 1357.5 78 c 128,-1,8
 1344 94 1344 94 1321 122 c 128,-1,9
 1298 150 1298 150 1265 198 c 1,10,11
 1153 119 1153 119 1024 75.5 c 128,-1,12
 895 32 895 32 762 32 c 0,13,14
 608 32 608 32 497.5 79.5 c 128,-1,15
 387 127 387 127 321.5 219 c 128,-1,16
 256 311 256 311 237.5 442 c 128,-1,17
 219 573 219 573 251 741 c 0,18,19
 285 920 285 920 375 1059.5 c 128,-1,20
 465 1199 465 1199 584.5 1296.5 c 128,-1,21
 704 1394 704 1394 841 1444.5 c 128,-1,22
 978 1495 978 1495 1107 1495 c 0,23,24
 1229 1495 1229 1495 1340.5 1445.5 c 128,-1,25
 1452 1396 1452 1396 1531 1299.5 c 128,-1,26
 1610 1203 1610 1203 1641.5 1061.5 c 128,-1,27
 1673 920 1673 920 1634 738 c 0,28,29
 1618 660 1618 660 1596 598 c 128,-1,30
 1574 536 1574 536 1542.5 481 c 128,-1,31
 1511 426 1511 426 1469 375.5 c 128,-1,32
 1427 325 1427 325 1373 271 c 1,33,-1
 1480 138 l 1,0,1
1208 501 m 1,34,35
 1222 486 1222 486 1240.5 454.5 c 128,-1,36
 1259 423 1259 423 1305 361 c 1,37,38
 1387 440 1387 440 1439 533 c 128,-1,39
 1491 626 1491 626 1511 743 c 0,40,41
 1528 879 1528 879 1501.5 994 c 128,-1,42
 1475 1109 1475 1109 1416 1191.5 c 128,-1,43
 1357 1274 1357 1274 1270 1320 c 128,-1,44
 1183 1366 1183 1366 1081 1366 c 0,45,46
 980 1366 980 1366 869.5 1322.5 c 128,-1,47
 759 1279 759 1279 660.5 1197.5 c 128,-1,48
 562 1116 562 1116 486 1000 c 128,-1,49
 410 884 410 884 380 741 c 0,50,51
 352 608 352 608 367 499.5 c 128,-1,52
 382 391 382 391 436 314 c 128,-1,53
 490 237 490 237 579.5 195.5 c 128,-1,54
 669 154 669 154 789 154 c 0,55,56
 895 154 895 154 998.5 187.5 c 128,-1,57
 1102 221 1102 221 1197 292 c 1,58,59
 1166 333 1166 333 1133 371.5 c 128,-1,60
 1100 410 1100 410 1070 451 c 1,61,62
 1063 479 1063 479 1072 503 c 128,-1,63
 1081 527 1081 527 1100.5 537.5 c 128,-1,64
 1120 548 1120 548 1148 540 c 128,-1,65
 1176 532 1176 532 1208 501 c 1,34,35
EndSplineSet
EndChar
StartChar: R
Encoding: 82 82 53
Width: 1292
VWidth: 3622
Flags: W
HStem: 604 136<551.597 686.969 686.969 933.014> 1355 118<796.951 1040.34>
Fore
886 1355 m 1,0,1
 807 1355 807 1355 720 1337.5 c 128,-1,2
 633 1320 633 1320 538 1282 c 1,3,4
 513 1159 513 1159 497 1075.5 c 128,-1,5
 481 992 481 992 471.5 934.5 c 128,-1,6
 462 877 462 877 456.5 838 c 128,-1,7
 451 799 451 799 448 764 c 1,8,9
 520 746 520 746 603 740 c 128,-1,10
 686 734 686 734 771 740 c 128,-1,11
 856 746 856 746 935.5 765.5 c 128,-1,12
 1015 785 1015 785 1079.5 819.5 c 128,-1,13
 1144 854 1144 854 1189.5 904.5 c 128,-1,14
 1235 955 1235 955 1249 1022 c 0,15,16
 1265 1097 1265 1097 1245.5 1158 c 128,-1,17
 1226 1219 1226 1219 1176.5 1262 c 128,-1,18
 1127 1305 1127 1305 1052.5 1330 c 128,-1,19
 978 1355 978 1355 886 1355 c 1,0,1
561 1408 m 1,20,21
 653 1440 653 1440 746.5 1456.5 c 128,-1,22
 840 1473 840 1473 925 1473 c 0,23,24
 1035 1473 1035 1473 1128.5 1446 c 128,-1,25
 1222 1419 1222 1419 1285 1361.5 c 128,-1,26
 1348 1304 1348 1304 1372 1218 c 128,-1,27
 1396 1132 1396 1132 1367 1015 c 0,28,29
 1334 888 1334 888 1245.5 802 c 128,-1,30
 1157 716 1157 716 1040 666.5 c 128,-1,31
 923 617 923 617 793 604 c 128,-1,32
 663 591 663 591 548 610 c 1,33,34
 693 490 693 490 836.5 372.5 c 128,-1,35
 980 255 980 255 1125 138 c 1,36,37
 1141 117 1141 117 1133 94 c 128,-1,38
 1125 71 1125 71 1107.5 53 c 128,-1,39
 1090 35 1090 35 1066 27 c 128,-1,40
 1042 19 1042 19 1026 32 c 2,41,-1
 409 557 l 1,42,43
 379 419 379 419 359.5 326 c 128,-1,44
 340 233 340 233 326.5 176 c 128,-1,45
 313 119 313 119 305 88.5 c 128,-1,46
 297 58 297 58 292 44 c 0,47,48
 283 21 283 21 262 7 c 128,-1,49
 241 -7 241 -7 218 -7 c 0,50,51
 193 -7 193 -7 178.5 7 c 128,-1,52
 164 21 164 21 172 53 c 0,53,54
 212 193 212 193 245 345 c 128,-1,55
 278 497 278 497 306 650 c 128,-1,56
 334 803 334 803 360.5 952.5 c 128,-1,57
 387 1102 387 1102 416 1238 c 1,58,59
 380 1210 380 1210 356 1243 c 0,60,61
 331 1275 331 1275 371 1311 c 0,62,63
 391 1328 391 1328 406 1340.5 c 128,-1,64
 421 1353 421 1353 439 1362 c 1,65,66
 442 1380 442 1380 444 1394 c 128,-1,67
 446 1408 446 1408 449 1426 c 0,68,69
 455 1479 455 1479 508 1479 c 0,70,71
 550 1479 550 1479 568 1450 c 1,72,-1
 561 1408 l 1,20,21
EndSplineSet
EndChar
StartChar: S
Encoding: 83 83 54
Width: 1098
VWidth: 3622
Flags: W
HStem: 4 120<467.336 754.696> 1369 120<682.909 975.009>
VStem: 208 128<223.41 273.5 327 361.089 361.089 390.877 390.877 449 449 492.296> 947 127.5<385.311 445.5 445.5 539.139> 1079 122<1039.22 1181.68>
Fore
1079 1081 m 0,0,1
 1086 1132 1086 1132 1080.5 1183.5 c 128,-1,2
 1075 1235 1075 1235 1049.5 1276.5 c 128,-1,3
 1024 1318 1024 1318 976.5 1343.5 c 128,-1,4
 929 1369 929 1369 854 1369 c 0,5,6
 692 1374 692 1374 591 1282 c 0,7,8
 485 1192 485 1192 465 1063 c 0,9,10
 460 1024 460 1024 467 988 c 128,-1,11
 474 952 474 952 503 917.5 c 128,-1,12
 532 883 532 883 590.5 851 c 128,-1,13
 649 819 649 819 750 789 c 0,14,15
 881 754 881 754 951 699 c 128,-1,16
 1021 644 1021 644 1049 582 c 128,-1,17
 1077 520 1077 520 1074.5 455.5 c 128,-1,18
 1072 391 1072 391 1056 334 c 0,19,20
 1042 281 1042 281 1005 223.5 c 128,-1,21
 968 166 968 166 909.5 118.5 c 128,-1,22
 851 71 851 71 771.5 39 c 128,-1,23
 692 7 692 7 589 4 c 0,24,25
 478 0 478 0 398 34.5 c 128,-1,26
 318 69 318 69 270.5 130 c 128,-1,27
 223 191 223 191 208 273.5 c 128,-1,28
 193 356 193 356 212 449 c 1,29,30
 214 481 214 481 235 499.5 c 128,-1,31
 256 518 256 518 280 521 c 128,-1,32
 304 524 304 524 322.5 508 c 128,-1,33
 341 492 341 492 340 455 c 0,34,35
 329 387 329 387 336 327 c 128,-1,36
 343 267 343 267 375 222 c 128,-1,37
 407 177 407 177 465.5 150.5 c 128,-1,38
 524 124 524 124 614 124 c 0,39,40
 699 124 699 124 756.5 148 c 128,-1,41
 814 172 814 172 851 206.5 c 128,-1,42
 888 241 888 241 907.5 277 c 128,-1,43
 927 313 927 313 936 338 c 0,44,45
 953 394 953 394 947 445.5 c 128,-1,46
 941 497 941 497 909 540.5 c 128,-1,47
 877 584 877 584 817 617.5 c 128,-1,48
 757 651 757 651 665 676 c 0,49,50
 499 716 499 716 409.5 808 c 128,-1,51
 320 900 320 900 340 1060 c 0,52,53
 350 1150 350 1150 397 1228.5 c 128,-1,54
 444 1307 444 1307 515.5 1365.5 c 128,-1,55
 587 1424 587 1424 680 1456.5 c 128,-1,56
 773 1489 773 1489 879 1489 c 0,57,58
 1056 1486 1056 1486 1143 1378 c 0,59,60
 1233 1272 1233 1272 1201 1090 c 1,61,62
 1176 1029 1176 1029 1128 1028 c 0,63,64
 1074 1022 1074 1022 1079 1081 c 0,0,1
EndSplineSet
EndChar
StartChar: T
Encoding: 84 84 55
Width: 1137
VWidth: 3622
Flags: W
HStem: 1334 123<432 474 474 590.218 1232.44 1289> 1349 133<436.055 538 538 590.218 591.782 674.665 674.665 723.962 723.962 746.027 746.027 787 945 1024.62 1024.62 1027.24 1027.24 1201.71>
VStem: 394.5 958.5<1365.13 1422.68 1394 1401 2194.44 2251>
Fore
1203 1343 m 0,0,1
 1162 1346 1162 1346 1103 1349.5 c 128,-1,2
 1044 1353 1044 1353 945 1355 c 1,3,4
 920 1286 920 1286 887 1173 c 128,-1,5
 854 1060 854 1060 819 926 c 128,-1,6
 784 792 784 792 750 652.5 c 128,-1,7
 716 513 716 513 688 393.5 c 128,-1,8
 660 274 660 274 639.5 188.5 c 128,-1,9
 619 103 619 103 614 76 c 0,10,11
 607 46 607 46 580.5 32 c 128,-1,12
 554 18 554 18 527 18 c 0,13,14
 497 18 497 18 476.5 32 c 128,-1,15
 456 46 456 46 463 76 c 0,16,17
 467 94 467 94 481 151.5 c 128,-1,18
 495 209 495 209 514.5 292 c 128,-1,19
 534 375 534 375 559.5 476 c 128,-1,20
 585 577 585 577 614 683 c 0,21,22
 649 810 649 810 681 934 c 128,-1,23
 713 1058 713 1058 738 1162 c 0,24,25
 755 1233 755 1233 766.5 1277 c 128,-1,26
 778 1321 778 1321 787 1351 c 1,27,28
 739 1351 739 1351 705.5 1350.5 c 128,-1,29
 672 1350 672 1350 644 1349 c 128,-1,30
 616 1348 616 1348 591 1346 c 128,-1,31
 566 1344 566 1344 538 1343 c 2,32,-1
 410 1334 l 2,33,34
 400 1334 400 1334 395.5 1352.5 c 128,-1,35
 391 1371 391 1371 394.5 1394 c 128,-1,36
 398 1417 398 1417 407 1436.5 c 128,-1,37
 416 1456 416 1456 432 1457 c 0,38,39
 541 1470 541 1470 658 1476 c 128,-1,40
 775 1482 775 1482 893 1482 c 256,41,42
 1012 1482 1012 1482 1117 1478.5 c 128,-1,43
 1222 1475 1222 1475 1314 1468 c 0,44,45
 1343 1466 1343 1466 1352.5 1448.5 c 128,-1,46
 1362 1431 1362 1431 1353 1401 c 0,47,48
 1337 1343 1337 1343 1289 1337 c 0,49,50
 1240 1337 1240 1337 1203 1343 c 0,0,1
EndSplineSet
EndChar
StartChar: U
Encoding: 85 85 56
Width: 1365
VWidth: 3622
Flags: W
HStem: 7 126<483.063 882.818>
Fore
1098 195 m 1,0,1
 1028 110 1028 110 914.5 58.5 c 128,-1,2
 801 7 801 7 637 7 c 0,3,4
 524 7 524 7 448.5 42.5 c 128,-1,5
 373 78 373 78 328 134.5 c 128,-1,6
 283 191 283 191 264.5 262 c 128,-1,7
 246 333 246 333 246 405 c 1,8,9
 297 649 297 649 333.5 823.5 c 128,-1,10
 370 998 370 998 393.5 1116.5 c 128,-1,11
 417 1235 417 1235 435 1306.5 c 128,-1,12
 453 1378 453 1378 468 1416 c 128,-1,13
 483 1454 483 1454 499 1465.5 c 128,-1,14
 515 1477 515 1477 539 1477 c 0,15,16
 603 1477 603 1477 603 1420 c 1,17,18
 545 1173 545 1173 504 998.5 c 128,-1,19
 463 824 463 824 437.5 705.5 c 128,-1,20
 412 587 412 587 398 514.5 c 128,-1,21
 384 442 384 442 379 398 c 0,22,23
 364 272 364 272 446.5 202.5 c 128,-1,24
 529 133 529 133 679 133 c 0,25,26
 803 133 803 133 889.5 180.5 c 128,-1,27
 976 228 976 228 1036.5 303.5 c 128,-1,28
 1097 379 1097 379 1132 473.5 c 128,-1,29
 1167 568 1167 568 1187 663 c 2,30,-1
 1350 1431 l 2,31,32
 1357 1461 1357 1461 1380 1475 c 128,-1,33
 1403 1489 1403 1489 1429 1489 c 256,34,35
 1456 1489 1456 1489 1472.5 1476 c 128,-1,36
 1489 1463 1489 1463 1489 1438 c 1,37,-1
 1212 62 l 2,38,39
 1206 37 1206 37 1183 19.5 c 128,-1,40
 1160 2 1160 2 1134.5 -2.5 c 128,-1,41
 1109 -7 1109 -7 1088 5.5 c 128,-1,42
 1067 18 1067 18 1067 53 c 0,43,44
 1067 81 1067 81 1077.5 115 c 128,-1,45
 1088 149 1088 149 1098 195 c 1,0,1
EndSplineSet
EndChar
StartChar: V
Encoding: 86 86 57
Width: 1379
VWidth: 3622
Flags: W
Fore
681 177 m 2,0,1
 685 149 685 149 693.5 141 c 128,-1,2
 702 133 702 133 712.5 135.5 c 128,-1,3
 723 138 723 138 732 148.5 c 128,-1,4
 741 159 741 159 746 170 c 2,5,-1
 1383 1431 l 2,6,7
 1396 1457 1396 1457 1420.5 1468.5 c 128,-1,8
 1445 1480 1445 1480 1469 1477.5 c 128,-1,9
 1493 1475 1493 1475 1509 1458.5 c 128,-1,10
 1525 1442 1525 1442 1518 1413 c 1,11,12
 1475 1323 1475 1323 1418.5 1206.5 c 128,-1,13
 1362 1090 1362 1090 1299 961.5 c 128,-1,14
 1236 833 1236 833 1171.5 703 c 128,-1,15
 1107 573 1107 573 1047 455.5 c 128,-1,16
 987 338 987 338 935.5 241.5 c 128,-1,17
 884 145 884 145 849 85 c 0,18,19
 833 48 833 48 788 24 c 128,-1,20
 743 0 743 0 693.5 -3.5 c 128,-1,21
 644 -7 644 -7 602.5 13.5 c 128,-1,22
 561 34 561 34 554 81 c 0,23,24
 529 308 529 308 511 479.5 c 128,-1,25
 493 651 493 651 480 781 c 128,-1,26
 467 911 467 911 458 1007.5 c 128,-1,27
 449 1104 449 1104 443 1178 c 128,-1,28
 437 1252 437 1252 432.5 1311.5 c 128,-1,29
 428 1371 428 1371 425 1429 c 1,30,31
 430 1456 430 1456 452 1472 c 128,-1,32
 474 1488 474 1488 500.5 1489.5 c 128,-1,33
 527 1491 527 1491 550 1478.5 c 128,-1,34
 573 1466 573 1466 577 1440 c 2,35,-1
 681 177 l 2,0,1
EndSplineSet
EndChar
StartChar: W
Encoding: 87 87 58
Width: 1862
VWidth: 3622
Flags: W
HStem: 12 21G<1303.5 1332>
Fore
653 228 m 1,0,-1
 992 741 l 2,1,2
 1015 775 1015 775 1028.5 794.5 c 128,-1,3
 1042 814 1042 814 1053.5 824.5 c 128,-1,4
 1065 835 1065 835 1077.5 838.5 c 128,-1,5
 1090 842 1090 842 1109 842 c 0,6,7
 1127 842 1127 842 1140 838.5 c 128,-1,8
 1153 835 1153 835 1162 824.5 c 128,-1,9
 1171 814 1171 814 1180 793.5 c 128,-1,10
 1189 773 1189 773 1199 738 c 0,11,12
 1212 704 1212 704 1224 659 c 128,-1,13
 1236 614 1236 614 1251 553 c 128,-1,14
 1266 492 1266 492 1286.5 412.5 c 128,-1,15
 1307 333 1307 333 1335 230 c 1,16,17
 1413 410 1413 410 1474 553.5 c 128,-1,18
 1535 697 1535 697 1585.5 810 c 128,-1,19
 1636 923 1636 923 1676 1012.5 c 128,-1,20
 1716 1102 1716 1102 1749.5 1175.5 c 128,-1,21
 1783 1249 1783 1249 1812 1311.5 c 128,-1,22
 1841 1374 1841 1374 1870 1436 c 0,23,24
 1877 1452 1877 1452 1899 1454.5 c 128,-1,25
 1921 1457 1921 1457 1944 1452 c 128,-1,26
 1967 1447 1967 1447 1984.5 1435.5 c 128,-1,27
 2002 1424 2002 1424 2002 1413 c 1,28,29
 1997.5 1402.5 l 2,30,31
 1993 1392 1993 1392 1987 1380.5 c 128,-1,32
 1981 1369 1981 1369 1975.5 1359.5 c 128,-1,33
 1970 1350 1970 1350 1970 1348 c 1,34,35
 1903 1206 1903 1206 1837 1063 c 128,-1,36
 1771 920 1771 920 1702 765 c 128,-1,37
 1633 610 1633 610 1560.5 440.5 c 128,-1,38
 1488 271 1488 271 1412 78 c 0,39,40
 1396 42 1396 42 1371 27 c 128,-1,41
 1346 12 1346 12 1318 12 c 256,42,43
 1289 12 1289 12 1265.5 31 c 128,-1,44
 1242 50 1242 50 1238 80 c 1,45,-1
 1238 76 l 1,46,-1
 1074 646 l 1,47,48
 1028 580 1028 580 968.5 494.5 c 128,-1,49
 909 409 909 409 852.5 326.5 c 128,-1,50
 796 244 796 244 750 176 c 128,-1,51
 704 108 704 108 686 78 c 1,52,-1
 686 80 l 1,53,54
 647 9 647 9 582 9 c 0,55,56
 524 9 524 9 513 69 c 1,57,58
 509 343 509 343 497.5 585.5 c 128,-1,59
 486 828 486 828 478 1010 c 1,60,-1
 478 1008 l 1,61,62
 469 1114 469 1114 462 1213 c 128,-1,63
 455 1312 455 1312 444 1404 c 1,64,65
 448 1442 448 1442 466.5 1461 c 128,-1,66
 485 1480 485 1480 508 1483 c 128,-1,67
 531 1486 531 1486 553 1472.5 c 128,-1,68
 575 1459 575 1459 584 1427 c 1,69,-1
 653 228 l 1,0,-1
EndSplineSet
EndChar
StartChar: X
Encoding: 88 88 59
Width: 1386
VWidth: 3622
Flags: W
HStem: 1482 20G<512.75 540.25>
Fore
741 766 m 1,0,1
 663 925 663 925 582.5 1093 c 128,-1,2
 502 1261 502 1261 433 1420 c 0,3,4
 423 1442 423 1442 437 1461 c 128,-1,5
 451 1480 451 1480 475 1491 c 128,-1,6
 499 1502 499 1502 526.5 1502 c 128,-1,7
 554 1502 554 1502 568 1484 c 1,8,9
 635 1335 635 1335 713.5 1180.5 c 128,-1,10
 792 1026 792 1026 861 883 c 1,11,12
 1015 1042 1015 1042 1112.5 1143.5 c 128,-1,13
 1210 1245 1210 1245 1271 1309 c 128,-1,14
 1332 1373 1332 1373 1367.5 1410 c 128,-1,15
 1403 1447 1403 1447 1433 1477 c 0,16,17
 1447 1491 1447 1491 1468 1487.5 c 128,-1,18
 1489 1484 1489 1484 1506 1470.5 c 128,-1,19
 1523 1457 1523 1457 1532 1438.5 c 128,-1,20
 1541 1420 1541 1420 1530 1404 c 1,21,-1
 923 766 l 1,22,-1
 1270 96 l 2,23,24
 1279 78 1279 78 1263 61 c 128,-1,25
 1247 44 1247 44 1221.5 34.5 c 128,-1,26
 1196 25 1196 25 1168.5 24 c 128,-1,27
 1141 23 1141 23 1127 37 c 1,28,-1
 808 653 l 1,29,30
 670 501 670 501 528.5 349.5 c 128,-1,31
 387 198 387 198 249 48 c 0,32,33
 235 34 235 34 212 38 c 128,-1,34
 189 42 189 42 169.5 55.5 c 128,-1,35
 150 69 150 69 141.5 86.5 c 128,-1,36
 133 104 133 104 145 117 c 2,37,-1
 741 766 l 1,0,1
EndSplineSet
EndChar
StartChar: Y
Encoding: 89 89 60
Width: 1361
VWidth: 3622
Flags: W
HStem: 11 21G<666.5 692.5> 1476 20G<502 535 1446 1474.5>
Fore
768 76 m 2,0,1
 759 42 759 42 732.5 26.5 c 128,-1,2
 706 11 706 11 679 11 c 0,3,4
 654 11 654 11 635.5 22.5 c 128,-1,5
 617 34 617 34 617 57 c 1,6,-1
 741 681 l 1,7,8
 708 699 708 699 675 746.5 c 128,-1,9
 642 794 642 794 610 859.5 c 128,-1,10
 578 925 578 925 550 1004 c 128,-1,11
 522 1083 522 1083 499 1162.5 c 128,-1,12
 476 1242 476 1242 461 1315.5 c 128,-1,13
 446 1389 446 1389 439 1445 c 0,14,15
 439 1470 439 1470 462.5 1483 c 128,-1,16
 486 1496 486 1496 518 1496 c 0,17,18
 552 1496 552 1496 568 1477.5 c 128,-1,19
 584 1459 584 1459 592.5 1428 c 128,-1,20
 601 1397 601 1397 606.5 1355.5 c 128,-1,21
 612 1314 612 1314 626 1266 c 0,22,23
 651 1183 651 1183 675.5 1099 c 128,-1,24
 700 1015 700 1015 727 949 c 128,-1,25
 754 883 754 883 782 841 c 128,-1,26
 810 799 810 799 842 799 c 0,27,28
 863 799 863 799 900 831 c 128,-1,29
 937 863 937 863 983 915.5 c 128,-1,30
 1029 968 1029 968 1081.5 1037 c 128,-1,31
 1134 1106 1134 1106 1186 1178.5 c 128,-1,32
 1238 1251 1238 1251 1287.5 1322.5 c 128,-1,33
 1337 1394 1337 1394 1378 1454 c 0,34,35
 1390 1472 1390 1472 1413 1481.5 c 128,-1,36
 1436 1491 1436 1491 1456 1491 c 0,37,38
 1493 1491 1493 1491 1509 1466.5 c 128,-1,39
 1525 1442 1525 1442 1507 1412 c 0,40,41
 1440 1312 1440 1312 1357 1193.5 c 128,-1,42
 1274 1075 1274 1075 1188 967.5 c 128,-1,43
 1102 860 1102 860 1022.5 780 c 128,-1,44
 943 700 943 700 884 677 c 1,45,-1
 768 76 l 2,0,1
EndSplineSet
EndChar
StartChar: Z
Encoding: 90 90 61
Width: 1358
VWidth: 3622
Flags: W
HStem: 42.5 116.5<227.667 251.924 251.924 354.566 633.524 817.5 859.5 924.854 924.854 946.283 946.283 1186.09> 51.5 108<357.442 480.239 480.239 548.781 548.781 813.798> 1320.5 123.5<763.179 791.577 791.577 933.873 933.873 974.696 974.696 1120.05 1120.05 1165.03 1165.03 1327.52>
Fore
734 577 m 0,0,1
 644 499 644 499 559 425.5 c 128,-1,2
 474 352 474 352 404 293.5 c 128,-1,3
 334 235 334 235 286.5 199 c 128,-1,4
 239 163 239 163 226 159 c 1,5,6
 279 156 279 156 375.5 159.5 c 128,-1,7
 472 163 472 163 585.5 166.5 c 128,-1,8
 699 170 699 170 817.5 172.5 c 128,-1,9
 936 175 936 175 1031.5 169 c 128,-1,10
 1127 163 1127 163 1188 148 c 128,-1,11
 1249 133 1249 133 1249 101 c 0,12,13
 1249 64 1249 64 1227 48 c 128,-1,14
 1205 32 1205 32 1173 32 c 0,15,16
 992 41 992 41 859.5 46 c 128,-1,17
 727 51 727 51 630.5 52 c 128,-1,18
 534 53 534 53 468 51.5 c 128,-1,19
 402 50 402 50 356 47 c 128,-1,20
 310 44 310 44 278 42.5 c 128,-1,21
 246 41 246 41 218 41 c 0,22,23
 198 41 198 41 177 42.5 c 128,-1,24
 156 44 156 44 138 50.5 c 128,-1,25
 120 57 120 57 108.5 68.5 c 128,-1,26
 97 80 97 80 97 99 c 0,27,28
 97 133 97 133 167 210.5 c 128,-1,29
 237 288 237 288 344 389 c 128,-1,30
 451 490 451 490 578.5 599.5 c 128,-1,31
 706 709 706 709 822 807 c 0,32,33
 900 872 900 872 979 941 c 128,-1,34
 1058 1010 1058 1010 1134 1079 c 128,-1,35
 1210 1148 1210 1148 1280 1215 c 128,-1,36
 1350 1282 1350 1282 1410 1341 c 1,37,38
 1314 1328 1314 1328 1240 1324 c 128,-1,39
 1166 1320 1166 1320 1090 1320 c 0,40,41
 973 1320 973 1320 859.5 1320.5 c 128,-1,42
 746 1321 746 1321 657 1331 c 128,-1,43
 568 1341 568 1341 513 1361 c 128,-1,44
 458 1381 458 1381 458 1419 c 0,45,46
 458 1449 458 1449 483.5 1461 c 128,-1,47
 509 1473 509 1473 539 1473 c 0,48,49
 589 1473 589 1473 635 1469 c 128,-1,50
 681 1465 681 1465 734 1459.5 c 128,-1,51
 787 1454 787 1454 854.5 1449.5 c 128,-1,52
 922 1445 922 1445 1014 1444 c 128,-1,53
 1106 1443 1106 1443 1227 1447.5 c 128,-1,54
 1348 1452 1348 1452 1509 1465 c 0,55,56
 1535 1465 1535 1465 1565 1450.5 c 128,-1,57
 1595 1436 1595 1436 1595 1401 c 0,58,59
 1595 1378 1595 1378 1555.5 1329.5 c 128,-1,60
 1516 1281 1516 1281 1449.5 1214.5 c 128,-1,61
 1383 1148 1383 1148 1294.5 1068.5 c 128,-1,62
 1206 989 1206 989 1110.5 905 c 128,-1,63
 1015 821 1015 821 918 737 c 128,-1,64
 821 653 821 653 734 577 c 0,0,1
EndSplineSet
EndChar
StartChar: bracketleft
Encoding: 91 91 62
Width: 590
VWidth: 3622
Flags: W
HStem: -318.5 117.5<193 211.268 211.268 227.758 227.758 272.573 272.573 288.519 288.519 347.75 347.75 374.658 374.658 381.5 407.5 436.004> 1427 123.5<529 548.242 548.242 560.458 560.458 591.362 591.362 624.823 624.823 649.089 649.089 690.485 690.485 731.208 731.208 790.414>
VStem: 27 834<-276 1493 -257.732 -241.242>
Fore
780 1424 m 0,0,1
 722 1426 722 1426 683 1427.5 c 128,-1,2
 644 1429 644 1429 615.5 1429 c 128,-1,3
 587 1429 587 1429 567.5 1428 c 128,-1,4
 548 1427 548 1427 529 1427 c 1,5,6
 493 1238 493 1238 451 1017 c 128,-1,7
 409 796 409 796 363.5 576 c 128,-1,8
 318 356 318 356 274 155 c 128,-1,9
 230 -46 230 -46 193 -195 c 1,10,11
 228 -202 228 -202 262.5 -201 c 128,-1,12
 297 -200 297 -200 314 -197.5 c 0,13,-1
 381.5 -188.5 l 0,14,15
 432 -182 432 -182 467 -182 c 0,16,17
 486 -182 486 -182 497.5 -196 c 128,-1,18
 509 -210 509 -210 509 -230 c 0,19,20
 509 -264 509 -264 480 -282.5 c 128,-1,21
 451 -301 451 -301 407.5 -309 c 128,-1,22
 364 -317 364 -317 315.5 -318.5 c 128,-1,23
 267 -320 267 -320 230 -320 c 0,24,25
 200 -320 200 -320 164.5 -318.5 c 128,-1,26
 129 -317 129 -317 98 -312.5 c 128,-1,27
 67 -308 67 -308 47 -299 c 128,-1,28
 27 -290 27 -290 27 -276 c 1,29,30
 69 -129 69 -129 116 50.5 c 128,-1,31
 163 230 163 230 213.5 451 c 128,-1,32
 264 672 264 672 314 936.5 c 128,-1,33
 364 1201 364 1201 412 1518 c 0,34,35
 414 1534 414 1534 446 1541 c 128,-1,36
 478 1548 478 1548 517.5 1550.5 c 128,-1,37
 557 1553 557 1553 596 1552 c 128,-1,38
 635 1551 635 1551 653 1551 c 0,39,40
 690 1551 690 1551 728 1549.5 c 128,-1,41
 766 1548 766 1548 795 1541.5 c 128,-1,42
 824 1535 824 1535 842.5 1523.5 c 128,-1,43
 861 1512 861 1512 861 1493 c 0,44,45
 861 1466 861 1466 841 1445 c 128,-1,46
 821 1424 821 1424 780 1424 c 0,0,1
EndSplineSet
EndChar
StartChar: backslash
Encoding: 92 92 63
Width: 1009
VWidth: 3622
Flags: W
VStem: 532.5 116.5<1806.54 1843.12 1843.12 1903.37> 725 122<47.0547 74 74 137.997>
Fore
847 117 m 2,0,1
 853 65 853 65 836 40.5 c 128,-1,2
 819 16 819 16 795 13.5 c 128,-1,3
 771 11 771 11 749 27.5 c 128,-1,4
 727 44 727 44 725 74 c 0,5,6
 676 516 676 516 641.5 819.5 c 128,-1,7
 607 1123 607 1123 584.5 1319.5 c 128,-1,8
 562 1516 562 1516 550 1623 c 128,-1,9
 538 1730 538 1730 532.5 1779.5 c 128,-1,10
 527 1829 527 1829 526 1838 c 128,-1,11
 525 1847 525 1847 525 1848 c 0,12,13
 525 1884 525 1884 547.5 1904 c 128,-1,14
 570 1924 570 1924 598 1924 c 0,15,16
 617 1924 617 1924 631.5 1912 c 128,-1,17
 646 1900 646 1900 649 1870 c 2,18,-1
 847 117 l 2,0,1
EndSplineSet
EndChar
StartChar: bracketright
Encoding: 93 93 64
Width: 590
VWidth: 3622
Flags: W
HStem: -313 116<19.9071 50.5 80.5 95.7748 95.7748 114 114 182.485 182.485 252.273 252.273 287> 1427 124<419.359 440.331 440.331 534.392 534.392 638.852>
VStem: -46 838<-258 1521 -661.202 -498.779>
Fore
384 1424 m 0,0,1
 354 1424 354 1424 340.5 1436.5 c 128,-1,2
 327 1449 327 1449 327 1468 c 0,3,4
 327 1496 327 1496 347.5 1513 c 128,-1,5
 368 1530 368 1530 402.5 1538 c 128,-1,6
 437 1546 437 1546 484 1548.5 c 128,-1,7
 531 1551 531 1551 585 1551 c 0,8,9
 598 1551 598 1551 631.5 1551 c 128,-1,10
 665 1551 665 1551 700.5 1549.5 c 128,-1,11
 736 1548 736 1548 764 1541 c 128,-1,12
 792 1534 792 1534 792 1521 c 2,13,-1
 792 1518 l 1,14,15
 706 1194 706 1194 643 929.5 c 128,-1,16
 580 665 580 665 536.5 447.5 c 128,-1,17
 493 230 493 230 464 53 c 128,-1,18
 435 -124 435 -124 416 -272 c 0,19,20
 414 -288 414 -288 390 -296 c 128,-1,21
 366 -304 366 -304 333.5 -308.5 c 128,-1,22
 301 -313 301 -313 268 -313 c 128,-1,23
 235 -313 235 -313 214 -313 c 0,24,25
 180 -313 180 -313 135 -313 c 128,-1,26
 90 -313 90 -313 50.5 -308.5 c 128,-1,27
 11 -304 11 -304 -17.5 -292.5 c 128,-1,28
 -46 -281 -46 -281 -46 -258 c 0,29,30
 -46 -218 -46 -218 -25.5 -198.5 c 128,-1,31
 -5 -179 -5 -179 19 -179 c 0,32,33
 48 -179 48 -179 80.5 -183 c 128,-1,34
 113 -187 113 -187 147.5 -191.5 c 128,-1,35
 182 -196 182 -196 217.5 -197 c 128,-1,36
 253 -198 253 -198 287 -191 c 1,37,38
 343 133 343 133 429.5 541.5 c 128,-1,39
 516 950 516 950 639 1427 c 1,40,41
 575 1427 575 1427 533.5 1427 c 128,-1,42
 492 1427 492 1427 463.5 1427 c 128,-1,43
 435 1427 435 1427 417.5 1426.5 c 128,-1,44
 400 1426 400 1426 384 1424 c 0,0,1
EndSplineSet
EndChar
StartChar: asciicircum
Encoding: 94 94 65
Width: 1268
VWidth: 3622
Flags: W
HStem: 1325 143<896.65 965.924>
VStem: 1077 117<453.788 546.302>
Fore
1077 476 m 0,0,1
 1070 543 1070 543 1062 633 c 128,-1,2
 1054 723 1054 723 1044.5 817 c 128,-1,3
 1035 911 1035 911 1023.5 1002 c 128,-1,4
 1012 1093 1012 1093 997.5 1164.5 c 128,-1,5
 983 1236 983 1236 966.5 1280.5 c 128,-1,6
 950 1325 950 1325 930 1325 c 0,7,8
 916 1325 916 1325 888 1291.5 c 128,-1,9
 860 1258 860 1258 822 1203 c 128,-1,10
 784 1148 784 1148 739.5 1076.5 c 128,-1,11
 695 1005 695 1005 650 929 c 128,-1,12
 605 853 605 853 561.5 778.5 c 128,-1,13
 518 704 518 704 483.5 642 c 128,-1,14
 449 580 449 580 424.5 536.5 c 128,-1,15
 400 493 400 493 393 479 c 0,16,17
 377 451 377 451 350.5 441.5 c 128,-1,18
 324 432 324 432 302.5 438 c 128,-1,19
 281 444 281 444 273 467 c 128,-1,20
 265 490 265 490 285 527 c 0,21,22
 433 794 433 794 541 974.5 c 128,-1,23
 649 1155 649 1155 727 1264.5 c 128,-1,24
 805 1374 805 1374 856 1421 c 128,-1,25
 907 1468 907 1468 939 1468 c 0,26,27
 983 1466 983 1466 1020.5 1409.5 c 128,-1,28
 1058 1353 1058 1353 1086 1264.5 c 128,-1,29
 1114 1176 1114 1176 1134.5 1069 c 128,-1,30
 1155 962 1155 962 1168.5 858.5 c 128,-1,31
 1182 755 1182 755 1188 667.5 c 128,-1,32
 1194 580 1194 580 1194 532 c 0,33,34
 1194 478 1194 478 1172 453 c 128,-1,35
 1150 428 1150 428 1127 428 c 0,36,37
 1109 428 1109 428 1095 440.5 c 128,-1,38
 1081 453 1081 453 1077 476 c 0,0,1
EndSplineSet
EndChar
StartChar: underscore
Encoding: 95 95 66
Width: 1814
VWidth: 3622
Flags: W
HStem: -32 117<54.0818 67 94 213.099 213.099 252.865 252.865 460.215 460.215 564.888 512.552 735.423 684.931 785.915 785.915 960.454 960.454 960.512 960.512 1156.8 1156.8 1271.94 1271.94 1356.82 1356.82 1511.7 1511.7 1586.03 1586.03 1644.7 1644.7 1735.88>
Fore
1739 85 m 0,0,1
 1767 85 1767 85 1776.5 67.5 c 128,-1,2
 1786 50 1786 50 1779 27.5 c 128,-1,3
 1772 5 1772 5 1753.5 -14.5 c 128,-1,4
 1735 -34 1735 -34 1709 -35 c 0,5,6
 1643 -35 1643 -35 1580.5 -34.5 c 128,-1,7
 1518 -34 1518 -34 1442.5 -34 c 128,-1,8
 1367 -34 1367 -34 1270.5 -33 c 128,-1,9
 1174 -32 1174 -32 1042 -32 c 0,10,11
 959 -32 959 -32 879 -33 c 128,-1,12
 799 -34 799 -34 692 -34 c 128,-1,13
 585 -34 585 -34 436.5 -32 c 128,-1,14
 288 -30 288 -30 67 -25 c 0,15,16
 34 -25 34 -25 24 -4.5 c 128,-1,17
 14 16 14 16 20.5 39 c 128,-1,18
 27 62 27 62 47 79.5 c 128,-1,19
 67 97 67 97 94 92 c 1,20,21
 251 85 251 85 359 82.5 c 128,-1,22
 467 80 467 80 561 80 c 0,23,24
 667 80 667 80 810 81.5 c 128,-1,25
 953 83 953 83 1111.5 85 c 128,-1,26
 1270 87 1270 87 1432.5 87 c 128,-1,27
 1595 87 1595 87 1739 85 c 0,0,1
EndSplineSet
EndChar
StartChar: grave
Encoding: 96 96 67
Width: 652
VWidth: 3622
Flags: W
HStem: 979 476.5<443 713.5 443 443>
VStem: 375 408<1036.5 1401 1401 1401>
Fore
773 1083 m 0,0,1
 789 1061 789 1061 783 1036.5 c 128,-1,2
 777 1012 777 1012 758 996 c 128,-1,3
 739 980 739 980 713.5 979 c 128,-1,4
 688 978 688 978 663 1006 c 2,5,-1
 384 1357 l 2,6,7
 368 1378 368 1378 375 1401 c 128,-1,8
 382 1424 382 1424 399.5 1439 c 128,-1,9
 417 1454 417 1454 443 1455.5 c 128,-1,10
 469 1457 469 1457 490 1436 c 0,11,12
 516 1403 516 1403 543.5 1368.5 c 128,-1,13
 571 1334 571 1334 604 1293 c 128,-1,14
 637 1252 637 1252 678.5 1201 c 128,-1,15
 720 1150 720 1150 773 1083 c 0,0,1
EndSplineSet
EndChar
StartChar: a
Encoding: 97 97 68
Width: 1202
VWidth: 3622
Flags: W
HStem: -14 125<418.669 717.419> 927 115<607.871 864.037>
VStem: 183 133.5<305.693 342.5 342.5 446.701>
Fore
1008 665 m 1,0,1
 1008 727 1008 727 988 775.5 c 128,-1,2
 968 824 968 824 934 857.5 c 128,-1,3
 900 891 900 891 857 909 c 128,-1,4
 814 927 814 927 766 927 c 0,5,6
 665 927 665 927 587 878.5 c 128,-1,7
 509 830 509 830 455.5 763.5 c 128,-1,8
 402 697 402 697 371 630.5 c 128,-1,9
 340 564 340 564 333 527 c 0,10,11
 318 460 318 460 316.5 386.5 c 128,-1,12
 315 313 315 313 339.5 252 c 128,-1,13
 364 191 364 191 421 151 c 128,-1,14
 478 111 478 111 580 111 c 0,15,16
 685 111 685 111 777.5 155.5 c 128,-1,17
 870 200 870 200 916 287 c 1,18,-1
 1008 665 l 1,0,1
911 101 m 1,19,20
 840 39 840 39 750 12.5 c 128,-1,21
 660 -14 660 -14 559 -14 c 0,22,23
 416 -14 416 -14 335.5 36.5 c 128,-1,24
 255 87 255 87 218.5 166.5 c 128,-1,25
 182 246 182 246 183 342.5 c 128,-1,26
 184 439 184 439 205 531 c 0,27,28
 214 571 214 571 234.5 624 c 128,-1,29
 255 677 255 677 289.5 734 c 128,-1,30
 324 791 324 791 371.5 846.5 c 128,-1,31
 419 902 419 902 481 945.5 c 128,-1,32
 543 989 543 989 619 1015.5 c 128,-1,33
 695 1042 695 1042 787 1042 c 0,34,35
 884 1042 884 1042 951.5 1013.5 c 128,-1,36
 1019 985 1019 985 1072 906 c 1,37,38
 1086 946 1086 946 1099.5 971 c 128,-1,39
 1113 996 1113 996 1125 1008.5 c 128,-1,40
 1137 1021 1137 1021 1149.5 1024.5 c 128,-1,41
 1162 1028 1162 1028 1176 1028 c 0,42,43
 1203 1028 1203 1028 1224 1013.5 c 128,-1,44
 1245 999 1245 999 1245 980 c 0,45,46
 1245 971 1245 971 1239 953.5 c 128,-1,47
 1233 936 1233 936 1223 913 c 128,-1,48
 1213 890 1213 890 1203.5 864 c 128,-1,49
 1194 838 1194 838 1187 812 c 0,50,51
 1151 667 1151 667 1127.5 566 c 128,-1,52
 1104 465 1104 465 1088 397 c 128,-1,53
 1072 329 1072 329 1063 289 c 128,-1,54
 1054 249 1054 249 1049.5 227 c 128,-1,55
 1045 205 1045 205 1044.5 196 c 128,-1,56
 1044 187 1044 187 1044 182 c 0,57,58
 1044 156 1044 156 1061.5 143.5 c 128,-1,59
 1079 131 1079 131 1099.5 123 c 128,-1,60
 1120 115 1120 115 1137.5 106 c 128,-1,61
 1155 97 1155 97 1155 74 c 0,62,63
 1155 35 1155 35 1119 17.5 c 128,-1,64
 1083 0 1083 0 1037.5 2.5 c 128,-1,65
 992 5 992 5 954 29 c 128,-1,66
 916 53 916 53 911 101 c 1,19,20
EndSplineSet
Substitution2: "Single Substitution lookup 22 subtable" uni0E38
Substitution2: "Single Substitution lookup 22 subtable" uni0E38
EndChar
StartChar: b
Encoding: 98 98 69
Width: 1202
VWidth: 3622
Flags: W
HStem: -15 120.5<438.751 726.454> 923 138.5<578.297 661.5 661.5 750.69 750.69 892.413>
VStem: 1104 131<400.892 807.98>
Fore
281 256 m 1,0,1
 348 187 348 187 436 148.5 c 128,-1,2
 524 110 524 110 616 105.5 c 128,-1,3
 708 101 708 101 795.5 130 c 128,-1,4
 883 159 883 159 952 226.5 c 128,-1,5
 1021 294 1021 294 1062.5 400 c 128,-1,6
 1104 506 1104 506 1104 653 c 0,7,8
 1104 745 1104 745 1065 805 c 128,-1,9
 1026 865 1026 865 962.5 897 c 128,-1,10
 899 929 899 929 820 934 c 128,-1,11
 741 939 741 939 661.5 923 c 128,-1,12
 582 907 582 907 509.5 871 c 128,-1,13
 437 835 437 835 387 784 c 1,14,-1
 281 256 l 1,0,1
414 941 m 1,15,16
 486 994 486 994 575.5 1025 c 128,-1,17
 665 1056 665 1056 756 1061.5 c 128,-1,18
 847 1067 847 1067 933 1046.5 c 128,-1,19
 1019 1026 1019 1026 1086 980 c 128,-1,20
 1153 934 1153 934 1194 859.5 c 128,-1,21
 1235 785 1235 785 1235 683 c 0,22,23
 1235 497 1235 497 1178 364.5 c 128,-1,24
 1121 232 1121 232 1031 146 c 128,-1,25
 941 60 941 60 828.5 21 c 128,-1,26
 716 -18 716 -18 603 -15 c 128,-1,27
 490 -12 490 -12 388.5 31 c 128,-1,28
 287 74 287 74 219 154 c 1,29,30
 175 83 175 83 131 50.5 c 128,-1,31
 87 18 87 18 50 18 c 0,32,33
 0 18 0 18 0 57 c 0,34,35
 0 78 0 78 15 94 c 128,-1,36
 30 110 30 110 49.5 126 c 128,-1,37
 69 142 69 142 86.5 159.5 c 128,-1,38
 104 177 104 177 111 198 c 0,39,40
 147 320 147 320 185 475 c 128,-1,41
 223 630 223 630 262.5 826 c 128,-1,42
 302 1022 302 1022 343 1263.5 c 128,-1,43
 384 1505 384 1505 426 1802 c 1,44,45
 439 1824 439 1824 460 1837 c 128,-1,46
 481 1850 481 1850 502.5 1851 c 128,-1,47
 524 1852 524 1852 539 1839.5 c 128,-1,48
 554 1827 554 1827 554 1797 c 1,49,50
 522 1597 522 1597 500 1458.5 c 128,-1,51
 478 1320 478 1320 463 1227 c 128,-1,52
 448 1134 448 1134 439 1080 c 128,-1,53
 430 1026 430 1026 424.5 997.5 c 128,-1,54
 419 969 419 969 417.5 958.5 c 128,-1,55
 416 948 416 948 414 941 c 1,15,16
EndSplineSet
Substitution2: "Single Substitution lookup 22 subtable" uni0E39
Substitution2: "Single Substitution lookup 22 subtable" uni0E39
EndChar
StartChar: c
Encoding: 99 99 70
Width: 1086
VWidth: 3622
Flags: W
HStem: 4 129<450.464 717.942> 953 130<595.099 920.437>
VStem: 145 133<292.704 530.904>
Fore
1047 769 m 1,0,1
 1022 865 1022 865 951.5 909 c 128,-1,2
 881 953 881 953 782 953 c 0,3,4
 663 953 663 953 569.5 903 c 128,-1,5
 476 853 476 853 411.5 773 c 128,-1,6
 347 693 347 693 312.5 597 c 128,-1,7
 278 501 278 501 278 409 c 0,8,9
 278 350 278 350 295.5 299.5 c 128,-1,10
 313 249 313 249 351 212 c 128,-1,11
 389 175 389 175 449 154 c 128,-1,12
 509 133 509 133 596 133 c 0,13,14
 700 133 700 133 773.5 168 c 128,-1,15
 847 203 847 203 896.5 249 c 128,-1,16
 946 295 946 295 972.5 339.5 c 128,-1,17
 999 384 999 384 1008 400 c 1,18,19
 1017 426 1017 426 1039 443 c 128,-1,20
 1061 460 1061 460 1083.5 463.5 c 128,-1,21
 1106 467 1106 467 1122.5 455.5 c 128,-1,22
 1139 444 1139 444 1139 416 c 0,23,24
 1139 394 1139 394 1124 356 c 128,-1,25
 1109 318 1109 318 1078 272 c 128,-1,26
 1047 226 1047 226 1000 178.5 c 128,-1,27
 953 131 953 131 889.5 92 c 128,-1,28
 826 53 826 53 744.5 28.5 c 128,-1,29
 663 4 663 4 566 4 c 0,30,31
 451 4 451 4 370.5 34 c 128,-1,32
 290 64 290 64 239.5 115 c 128,-1,33
 189 166 189 166 167 234 c 128,-1,34
 145 302 145 302 145 380 c 0,35,36
 145 449 145 449 163.5 528 c 128,-1,37
 182 607 182 607 218.5 684.5 c 128,-1,38
 255 762 255 762 310.5 834.5 c 128,-1,39
 366 907 366 907 439.5 962 c 128,-1,40
 513 1017 513 1017 606 1050 c 128,-1,41
 699 1083 699 1083 810 1083 c 0,42,43
 879 1083 879 1083 947 1063.5 c 128,-1,44
 1015 1044 1015 1044 1069 1006.5 c 128,-1,45
 1123 969 1123 969 1156.5 913.5 c 128,-1,46
 1190 858 1190 858 1190 787 c 0,47,48
 1190 768 1190 768 1175 750 c 128,-1,49
 1160 732 1160 732 1138 726 c 128,-1,50
 1116 720 1116 720 1091.5 728 c 128,-1,51
 1067 736 1067 736 1047 769 c 1,0,1
EndSplineSet
Substitution2: "Single Substitution lookup 22 subtable" uni0E3A
Substitution2: "Single Substitution lookup 22 subtable" uni0E3A
EndChar
StartChar: d
Encoding: 100 100 71
Width: 1202
VWidth: 3622
Flags: W
HStem: -11 130<534.908 687.444> 927 133<616.165 892.078>
VStem: 168 133<266.824 630.159>
Fore
1118 746 m 1,0,1
 1097 794 1097 794 1060.5 828.5 c 128,-1,2
 1024 863 1024 863 980.5 884.5 c 128,-1,3
 937 906 937 906 889.5 916.5 c 128,-1,4
 842 927 842 927 798 927 c 0,5,6
 720 927 720 927 633.5 897.5 c 128,-1,7
 547 868 547 868 472.5 806.5 c 128,-1,8
 398 745 398 745 349.5 648.5 c 128,-1,9
 301 552 301 552 301 417 c 0,10,11
 301 331 301 331 335.5 273.5 c 128,-1,12
 370 216 370 216 419.5 181.5 c 128,-1,13
 469 147 469 147 523.5 133 c 128,-1,14
 578 119 578 119 619 119 c 0,15,16
 681 119 681 119 749 137.5 c 128,-1,17
 817 156 817 156 875.5 183 c 128,-1,18
 934 210 934 210 974.5 240.5 c 128,-1,19
 1015 271 1015 271 1024 292 c 1,20,-1
 1118 746 l 1,0,1
1155 945 m 1,21,22
 1162 976 1162 976 1177 1036.5 c 128,-1,23
 1192 1097 1192 1097 1211.5 1171 c 128,-1,24
 1231 1245 1231 1245 1253 1331 c 128,-1,25
 1275 1417 1275 1417 1298 1500 c 128,-1,26
 1321 1583 1321 1583 1341.5 1660 c 128,-1,27
 1362 1737 1362 1737 1380 1797 c 0,28,29
 1389 1824 1389 1824 1412.5 1839 c 128,-1,30
 1436 1854 1436 1854 1457 1854 c 256,31,32
 1479 1854 1479 1854 1495 1842.5 c 128,-1,33
 1511 1831 1511 1831 1511 1802 c 1,34,35
 1422 1491 1422 1491 1360 1245 c 128,-1,36
 1298 999 1298 999 1256.5 805.5 c 128,-1,37
 1215 612 1215 612 1190.5 463.5 c 128,-1,38
 1166 315 1166 315 1151 198 c 1,39,40
 1146 182 1146 182 1153 167 c 128,-1,41
 1160 152 1160 152 1165 145 c 0,42,-1
 1184.5 117 l 0,43,44
 1199 96 1199 96 1199 80 c 0,45,46
 1199 50 1199 50 1178 34 c 128,-1,47
 1157 18 1157 18 1127 18 c 0,48,49
 1113 18 1113 18 1092.5 25 c 128,-1,50
 1072 32 1072 32 1053.5 45 c 128,-1,51
 1035 58 1035 58 1020.5 79.5 c 128,-1,52
 1006 101 1006 101 1005 131 c 1,53,54
 973 88 973 88 919 61 c 128,-1,55
 865 34 865 34 803 18 c 128,-1,56
 741 2 741 2 680 -4.5 c 128,-1,57
 619 -11 619 -11 575 -11 c 0,58,59
 516 -11 516 -11 445.5 8.5 c 128,-1,60
 375 28 375 28 313 74 c 128,-1,61
 251 120 251 120 209.5 196 c 128,-1,62
 168 272 168 272 168 386 c 0,63,64
 168 541 168 541 227.5 666 c 128,-1,65
 287 791 287 791 379.5 878.5 c 128,-1,66
 472 966 472 966 585.5 1013 c 128,-1,67
 699 1060 699 1060 807 1060 c 0,68,69
 904 1060 904 1060 998.5 1037 c 128,-1,70
 1093 1014 1093 1014 1155 945 c 1,21,22
EndSplineSet
EndChar
StartChar: e
Encoding: 101 101 72
Width: 1195
VWidth: 3622
Flags: W
HStem: 0 133<479.65 691.898> 532 112<345.076 473.327 473.327 817.215 817.215 978.431 978.431 1103.99> 953 130<658.858 969.445>
VStem: 166 135<328.977 495.834>
Fore
313 529 m 1,0,1
 306 502 306 502 303.5 466 c 128,-1,2
 301 430 301 430 301 405 c 0,3,4
 301 347 301 347 318.5 297.5 c 128,-1,5
 336 248 336 248 376 211.5 c 128,-1,6
 416 175 416 175 477.5 154 c 128,-1,7
 539 133 539 133 628 133 c 0,8,9
 672 133 672 133 724.5 146 c 128,-1,10
 777 159 777 159 829 184.5 c 128,-1,11
 881 210 881 210 928.5 249 c 128,-1,12
 976 288 976 288 1014 340 c 1,13,14
 1037 354 1037 354 1058 354 c 128,-1,15
 1079 354 1079 354 1092.5 340.5 c 128,-1,16
 1106 327 1106 327 1107.5 302.5 c 128,-1,17
 1109 278 1109 278 1095 246 c 1,18,-1
 1095 248 l 1,19,20
 1052 191 1052 191 994.5 146 c 128,-1,21
 937 101 937 101 872.5 68 c 128,-1,22
 808 35 808 35 738.5 17.5 c 128,-1,23
 669 0 669 0 601 0 c 0,24,25
 486 0 486 0 404 32.5 c 128,-1,26
 322 65 322 65 269 121 c 128,-1,27
 216 177 216 177 191 251 c 128,-1,28
 166 325 166 325 166 407 c 0,29,30
 166 522 166 522 213 641.5 c 128,-1,31
 260 761 260 761 346.5 859 c 128,-1,32
 433 957 433 957 555 1020 c 128,-1,33
 677 1083 677 1083 828 1083 c 0,34,35
 929 1083 929 1083 1006 1052 c 128,-1,36
 1083 1021 1083 1021 1134 972 c 128,-1,37
 1185 923 1185 923 1211.5 861 c 128,-1,38
 1238 799 1238 799 1238 738 c 0,39,40
 1238 637 1238 637 1202 584.5 c 128,-1,41
 1166 532 1166 532 1116 532 c 2,42,-1
 313 529 l 1,0,1
345 640 m 1,43,44
 347 642 347 642 403.5 644 c 128,-1,45
 460 646 460 646 544 646 c 128,-1,46
 628 646 628 646 726 646 c 128,-1,47
 824 646 824 646 908 644 c 128,-1,48
 992 642 992 642 1048 639.5 c 128,-1,49
 1104 637 1104 637 1104 633 c 1,50,51
 1111 677 1111 677 1101 733 c 128,-1,52
 1091 789 1091 789 1056.5 838.5 c 128,-1,53
 1022 888 1022 888 959.5 920.5 c 128,-1,54
 897 953 897 953 796 953 c 0,55,56
 718 953 718 953 650 928.5 c 128,-1,57
 582 904 582 904 524.5 860.5 c 128,-1,58
 467 817 467 817 422 760.5 c 128,-1,59
 377 704 377 704 345 640 c 1,43,44
EndSplineSet
EndChar
StartChar: f
Encoding: 102 102 73
Width: 652
VWidth: 3622
Flags: W
HStem: 731 134<287.108 313.512 313.512 347 511 543.532 543.532 573.479 573.479 669.746> 1417 129<695.686 851.803>
VStem: 174 850<787 1357 604.27 924.323> 889 133.5<1247.01 1291 1291 1329.91 1329.91 1338 1338 1355.5>
Fore
237 854 m 256,0,1
 267 860 267 860 286.5 862.5 c 128,-1,2
 306 865 306 865 320 865 c 128,-1,3
 334 865 334 865 345.5 865 c 128,-1,4
 357 865 357 865 371 865 c 1,5,6
 403 1019 403 1019 440.5 1145.5 c 128,-1,7
 478 1272 478 1272 528 1360.5 c 128,-1,8
 578 1449 578 1449 648 1497.5 c 128,-1,9
 718 1546 718 1546 817 1546 c 0,10,11
 863 1546 863 1546 902 1533.5 c 128,-1,12
 941 1521 941 1521 968.5 1496.5 c 128,-1,13
 996 1472 996 1472 1011 1436.5 c 128,-1,14
 1026 1401 1026 1401 1024 1357 c 0,15,16
 1024 1335 1024 1335 1022.5 1302.5 c 128,-1,17
 1021 1270 1021 1270 1013.5 1238 c 128,-1,18
 1006 1206 1006 1206 989.5 1183 c 128,-1,19
 973 1160 973 1160 943 1159 c 0,20,21
 918 1157 918 1157 898.5 1173 c 128,-1,22
 879 1189 879 1189 879 1213 c 1,23,24
 888 1254 888 1254 889 1291 c 128,-1,25
 890 1328 890 1328 880 1355.5 c 128,-1,26
 870 1383 870 1383 849 1400 c 128,-1,27
 828 1417 828 1417 791 1417 c 0,28,29
 738 1417 738 1417 698 1380 c 128,-1,30
 658 1343 658 1343 626 1273 c 128,-1,31
 594 1203 594 1203 566.5 1100.5 c 128,-1,32
 539 998 539 998 511 868 c 1,33,34
 601 868 601 868 654.5 857.5 c 128,-1,35
 708 847 708 847 708 805 c 0,36,37
 708 769 708 769 685 754 c 128,-1,38
 662 739 662 739 630 739 c 0,39,40
 605 739 605 739 576.5 739 c 128,-1,41
 548 739 548 739 483 741 c 1,42,-1
 357 60 l 1,43,44
 331 0 331 0 274 0 c 256,45,46
 218 0 218 0 218 44 c 1,47,-1
 347 734 l 1,48,49
 306 732 306 732 280.5 731.5 c 128,-1,50
 255 731 255 731 241 731 c 0,51,52
 205 731 205 731 189 748.5 c 128,-1,53
 173 766 173 766 174 787 c 128,-1,54
 175 808 175 808 191 828.5 c 128,-1,55
 207 849 207 849 237 854 c 256,0,1
EndSplineSet
EndChar
StartChar: g
Encoding: 103 103 74
Width: 1116
VWidth: 3622
Flags: W
HStem: -495 111<391.47 649.575> 81 122<471.466 594.283> 1001 136<568.203 823.824>
VStem: 111 117<-234.389 -191 -191 -132.691>
Fore
999 879 m 1,0,1
 985 911 985 911 957 935 c 128,-1,2
 929 959 929 959 891.5 973 c 128,-1,3
 854 987 854 987 811.5 994 c 128,-1,4
 769 1001 769 1001 727 1001 c 0,5,6
 649 1001 649 1001 579 968.5 c 128,-1,7
 509 936 509 936 452.5 883 c 128,-1,8
 396 830 396 830 356.5 761 c 128,-1,9
 317 692 317 692 301 619 c 0,10,11
 276 506 276 506 288.5 425.5 c 128,-1,12
 301 345 301 345 338 294.5 c 128,-1,13
 375 244 375 244 431.5 222 c 128,-1,14
 488 200 488 200 554 203 c 0,15,16
 617 205 617 205 681.5 223 c 128,-1,17
 746 241 746 241 799.5 268 c 128,-1,18
 853 295 853 295 889 329 c 128,-1,19
 925 363 925 363 934 400 c 2,20,-1
 999 879 l 1,0,1
937 228 m 1,21,22
 883 182 883 182 824.5 153 c 128,-1,23
 766 124 766 124 708.5 108 c 128,-1,24
 651 92 651 92 596 86.5 c 128,-1,25
 541 81 541 81 495 81 c 0,26,27
 400 81 400 81 329 126.5 c 128,-1,28
 258 172 258 172 215 248 c 128,-1,29
 172 324 172 324 159.5 420 c 128,-1,30
 147 516 147 516 168 619 c 0,31,32
 189 715 189 715 241.5 807.5 c 128,-1,33
 294 900 294 900 371 973.5 c 128,-1,34
 448 1047 448 1047 546 1092 c 128,-1,35
 644 1137 644 1137 755 1137 c 0,36,37
 830 1137 830 1137 899 1115 c 128,-1,38
 968 1093 968 1093 1017 1042 c 1,39,40
 1029 1061 1029 1061 1042.5 1088.5 c 128,-1,41
 1056 1116 1056 1116 1065 1137 c 1,42,43
 1084 1169 1084 1169 1105.5 1183 c 128,-1,44
 1127 1197 1127 1197 1148 1197 c 0,45,46
 1164 1197 1164 1197 1177 1189.5 c 128,-1,47
 1190 1182 1190 1182 1197.5 1169.5 c 128,-1,48
 1205 1157 1205 1157 1203 1139 c 128,-1,49
 1201 1121 1201 1121 1187 1104 c 1,50,-1
 1189 1107 l 1,51,-1
 1130 994 l 1,52,53
 1125 968 1125 968 1119.5 929 c 128,-1,54
 1114 890 1114 890 1106 803 c 128,-1,55
 1098 716 1098 716 1085 563 c 128,-1,56
 1072 410 1072 410 1051 156 c 0,57,58
 1019 -133 1019 -133 875.5 -303.5 c 128,-1,59
 732 -474 732 -474 486 -495 c 0,60,61
 384 -497 384 -497 311.5 -469.5 c 128,-1,62
 239 -442 239 -442 194 -398 c 128,-1,63
 149 -354 149 -354 128.5 -299 c 128,-1,64
 108 -244 108 -244 111 -191 c 0,65,66
 113 -154 113 -154 131 -132 c 128,-1,67
 149 -110 149 -110 170 -106.5 c 128,-1,68
 191 -103 191 -103 208.5 -118 c 128,-1,69
 226 -133 226 -133 228 -170 c 0,70,71
 228 -233 228 -233 249.5 -275.5 c 128,-1,72
 271 -318 271 -318 307 -344 c 128,-1,73
 343 -370 343 -370 390 -378.5 c 128,-1,74
 437 -387 437 -387 488 -384 c 0,75,76
 617 -373 617 -373 704 -308.5 c 128,-1,77
 791 -244 791 -244 842 -153 c 128,-1,78
 893 -62 893 -62 915 40.5 c 128,-1,79
 937 143 937 143 937 228 c 1,21,22
EndSplineSet
EndChar
StartChar: h
Encoding: 104 104 75
Width: 1147
VWidth: 3622
Flags: W
HStem: 957 122<795.328 1010.03>
VStem: 1070 126<464.488 699 699 840.712>
Fore
531 913 m 1,0,1
 559 945 559 945 598 975.5 c 128,-1,2
 637 1006 637 1006 683 1030 c 128,-1,3
 729 1054 729 1054 782 1068.5 c 128,-1,4
 835 1083 835 1083 893 1079 c 0,5,6
 971 1074 971 1074 1028.5 1047.5 c 128,-1,7
 1086 1021 1086 1021 1124 977.5 c 128,-1,8
 1162 934 1162 934 1179.5 878 c 128,-1,9
 1197 822 1197 822 1196 761 c 0,10,11
 1190 635 1190 635 1160 459 c 128,-1,12
 1130 283 1130 283 1081 46 c 0,13,14
 1077 32 1077 32 1058.5 24 c 128,-1,15
 1040 16 1040 16 1017 17 c 128,-1,16
 994 18 994 18 976.5 28.5 c 128,-1,17
 959 39 959 39 959 62 c 1,18,19
 1003 271 1003 271 1035 429 c 128,-1,20
 1067 587 1067 587 1070 699 c 0,21,22
 1075 831 1075 831 1028.5 893 c 128,-1,23
 982 955 982 955 876 957 c 0,24,25
 773 959 773 959 697 909.5 c 128,-1,26
 621 860 621 860 565 778.5 c 128,-1,27
 509 697 509 697 471 596 c 128,-1,28
 433 495 433 495 407.5 392.5 c 128,-1,29
 382 290 382 290 365 196.5 c 128,-1,30
 348 103 348 103 334 39 c 0,31,32
 331 18 331 18 312.5 10 c 128,-1,33
 294 2 294 2 272.5 3.5 c 128,-1,34
 251 5 251 5 232.5 14 c 128,-1,35
 214 23 214 23 209 35 c 1,36,37
 285 453 285 453 379.5 847.5 c 128,-1,38
 474 1242 474 1242 594 1636 c 0,39,40
 600 1654 600 1654 620 1663.5 c 128,-1,41
 640 1673 640 1673 663 1673 c 128,-1,42
 686 1673 686 1673 704.5 1661.5 c 128,-1,43
 723 1650 723 1650 722 1626 c 2,44,45
 721 1621.5 l 2,46,47
 720 1617 720 1617 714.5 1597.5 c 128,-1,48
 709 1578 709 1578 697.5 1534.5 c 128,-1,49
 686 1491 686 1491 665 1411.5 c 128,-1,50
 644 1332 644 1332 611 1211 c 128,-1,51
 578 1090 578 1090 531 913 c 1,0,1
EndSplineSet
EndChar
StartChar: i
Encoding: 105 105 76
Width: 590
VWidth: 3622
Flags: W
HStem: 12 21G<302.5 325.5> 1047 20G<543 566.5>
VStem: 260 549<76 1444.5 76 76>
Fore
755 1509 m 256,0,1
 792 1488 792 1488 809 1444.5 c 128,-1,2
 826 1401 826 1401 808 1358 c 0,3,4
 789 1314 789 1314 760 1276 c 128,-1,5
 731 1238 731 1238 693.5 1215 c 128,-1,6
 656 1192 656 1192 612 1187.5 c 128,-1,7
 568 1183 568 1183 520 1206 c 0,8,9
 488 1228 488 1228 474 1257 c 128,-1,10
 460 1286 460 1286 459 1318 c 128,-1,11
 458 1350 458 1350 469.5 1381.5 c 128,-1,12
 481 1413 481 1413 502 1440 c 0,13,14
 520 1459 520 1459 547.5 1480.5 c 128,-1,15
 575 1502 575 1502 608.5 1515 c 128,-1,16
 642 1528 642 1528 680 1529 c 128,-1,17
 718 1530 718 1530 755 1509 c 256,0,1
393 78 m 2,18,19
 382 44 382 44 359 28 c 128,-1,20
 336 12 336 12 315 12 c 0,21,22
 290 12 290 12 275 29 c 128,-1,23
 260 46 260 46 260 76 c 1,24,-1
 478 1001 l 2,25,26
 485 1035 485 1035 508 1051 c 128,-1,27
 531 1067 531 1067 555 1067 c 0,28,29
 578 1067 578 1067 596 1051 c 128,-1,30
 614 1035 614 1035 607 1001 c 2,31,-1
 393 78 l 2,18,19
EndSplineSet
EndChar
StartChar: j
Encoding: 106 106 77
Width: 590
VWidth: 3622
Flags: W
HStem: -479 138<-85.7631 47.3372>
VStem: -253 145<-296.342 -146.976>
Fore
419 69 m 2,0,1
 393 -71 393 -71 341.5 -174.5 c 128,-1,2
 290 -278 290 -278 224.5 -345 c 128,-1,3
 159 -412 159 -412 88.5 -445.5 c 128,-1,4
 18 -479 18 -479 -46 -479 c 0,5,6
 -134 -479 -134 -479 -193.5 -419 c 128,-1,7
 -253 -359 -253 -359 -253 -239 c 0,8,9
 -253 -177 -253 -177 -230 -146 c 128,-1,10
 -207 -115 -207 -115 -172 -115 c 0,11,12
 -108 -115 -108 -115 -108 -177 c 0,13,14
 -108 -216 -108 -216 -108 -246 c 128,-1,15
 -108 -276 -108 -276 -102 -297 c 128,-1,16
 -96 -318 -96 -318 -79 -329.5 c 128,-1,17
 -62 -341 -62 -341 -30 -341 c 0,18,19
 5 -341 5 -341 52 -316.5 c 128,-1,20
 99 -292 99 -292 144 -241.5 c 128,-1,21
 189 -191 189 -191 228 -113 c 128,-1,22
 267 -35 267 -35 287 69 c 2,23,-1
 501 991 l 2,24,25
 506 1021 506 1021 530 1038.5 c 128,-1,26
 554 1056 554 1056 578 1056 c 0,27,28
 608 1056 608 1056 620.5 1037.5 c 128,-1,29
 633 1019 633 1019 633 991 c 1,30,-1
 419 69 l 2,0,1
835 1399 m 0,31,32
 835 1362 835 1362 817 1324 c 128,-1,33
 799 1286 799 1286 769 1255 c 128,-1,34
 739 1224 739 1224 701 1205.5 c 128,-1,35
 663 1187 663 1187 623 1187 c 0,36,37
 591 1187 591 1187 564.5 1199.5 c 128,-1,38
 538 1212 538 1212 519.5 1232 c 128,-1,39
 501 1252 501 1252 491 1278 c 128,-1,40
 481 1304 481 1304 481 1328 c 0,41,42
 481 1364 481 1364 499.5 1401 c 128,-1,43
 518 1438 518 1438 549 1468 c 128,-1,44
 580 1498 580 1498 620 1517.5 c 128,-1,45
 660 1537 660 1537 700 1537 c 0,46,47
 759 1537 759 1537 797 1494.5 c 128,-1,48
 835 1452 835 1452 835 1399 c 0,31,32
EndSplineSet
EndChar
StartChar: k
Encoding: 107 107 78
Width: 1093
VWidth: 3622
Flags: W
VStem: 219 1014<46 1055 879.065 1660.46>
Fore
486 587 m 1,0,-1
 1015 92 l 1,1,2
 1029 67 1029 67 1027.5 49.5 c 128,-1,3
 1026 32 1026 32 1013.5 21.5 c 128,-1,4
 1001 11 1001 11 981.5 5.5 c 128,-1,5
 962 0 962 0 941 4 c 1,6,7
 838 96 838 96 765.5 166.5 c 128,-1,8
 693 237 693 237 635.5 293.5 c 128,-1,9
 578 350 578 350 530.5 395 c 128,-1,10
 483 440 483 440 430 483 c 1,11,-1
 340 46 l 2,12,13
 334 30 334 30 314.5 17.5 c 128,-1,14
 295 5 295 5 274 1.5 c 128,-1,15
 253 -2 253 -2 236 8 c 128,-1,16
 219 18 219 18 219 46 c 1,17,-1
 548 1567 l 1,18,19
 573 1626 573 1626 617 1626 c 0,20,21
 642 1626 642 1626 656 1605.5 c 128,-1,22
 670 1585 670 1585 662 1542 c 2,23,-1
 490 729 l 1,24,25
 624 803 624 803 719 856 c 128,-1,26
 814 909 814 909 886.5 950.5 c 128,-1,27
 959 992 959 992 1018 1027.5 c 128,-1,28
 1077 1063 1077 1063 1141 1104 c 0,29,30
 1159 1114 1159 1114 1181 1110.5 c 128,-1,31
 1203 1107 1203 1107 1217 1092 c 128,-1,32
 1231 1077 1231 1077 1233 1055 c 128,-1,33
 1235 1033 1235 1033 1212 1008 c 1,34,-1
 486 587 l 1,0,-1
EndSplineSet
EndChar
StartChar: l
Encoding: 108 108 79
Width: 497
VWidth: 3622
Flags: W
HStem: 1766 20G<591.5 615.5>
VStem: 184 469<83 1721 83 83>
Fore
313 80 m 1,0,1
 301 46 301 46 279.5 32 c 128,-1,2
 258 18 258 18 233 18 c 256,3,4
 209 18 209 18 193 33 c 128,-1,5
 177 48 177 48 184 83 c 2,6,-1
 522 1725 l 1,7,8
 534 1755 534 1755 557 1770.5 c 128,-1,9
 580 1786 580 1786 603 1786 c 0,10,11
 628 1786 628 1786 643 1769.5 c 128,-1,12
 658 1753 658 1753 653 1721 c 2,13,-1
 313 80 l 1,0,1
EndSplineSet
EndChar
StartChar: m
Encoding: 109 109 80
Width: 1662
VWidth: 3622
Flags: W
HStem: 982 111<1261.73 1408.06>
VStem: 1489 119<642.672 814.614 814.614 816.696 816.696 844.5 874.5 915.06>
Fore
499 876 m 1,0,1
 566 999 566 999 640.5 1045 c 128,-1,2
 715 1091 715 1091 807 1086 c 0,3,4
 847 1083 847 1083 886 1064 c 128,-1,5
 925 1045 925 1045 956 1011.5 c 128,-1,6
 987 978 987 978 1006.5 930.5 c 128,-1,7
 1026 883 1026 883 1028 822 c 1,8,9
 1056 884 1056 884 1088.5 933.5 c 128,-1,10
 1121 983 1121 983 1159 1018.5 c 128,-1,11
 1197 1054 1197 1054 1245 1073.5 c 128,-1,12
 1293 1093 1293 1093 1351 1093 c 0,13,14
 1429 1093 1429 1093 1481.5 1062 c 128,-1,15
 1534 1031 1534 1031 1564 982.5 c 128,-1,16
 1594 934 1594 934 1603.5 874.5 c 128,-1,17
 1613 815 1613 815 1608 759 c 0,18,19
 1588 570 1588 570 1550 398 c 128,-1,20
 1512 226 1512 226 1477 53 c 0,21,22
 1473 34 1473 34 1456.5 19.5 c 128,-1,23
 1440 5 1440 5 1419.5 0.5 c 128,-1,24
 1399 -4 1399 -4 1381.5 5 c 128,-1,25
 1364 14 1364 14 1358 39 c 1,26,27
 1362 85 1362 85 1382.5 169 c 128,-1,28
 1403 253 1403 253 1426.5 354 c 128,-1,29
 1450 455 1450 455 1469.5 560 c 128,-1,30
 1489 665 1489 665 1489 754 c 0,31,32
 1489 803 1489 803 1480.5 844.5 c 128,-1,33
 1472 886 1472 886 1453 916 c 128,-1,34
 1434 946 1434 946 1404 964 c 128,-1,35
 1374 982 1374 982 1330 982 c 0,36,37
 1274 982 1274 982 1223.5 921 c 128,-1,38
 1173 860 1173 860 1130.5 767 c 128,-1,39
 1088 674 1088 674 1052.5 561 c 128,-1,40
 1017 448 1017 448 991.5 344.5 c 128,-1,41
 966 241 966 241 950 159.5 c 128,-1,42
 934 78 934 78 929 48 c 0,43,44
 925 28 925 28 904.5 16.5 c 128,-1,45
 884 5 884 5 861 3.5 c 128,-1,46
 838 2 838 2 819.5 11.5 c 128,-1,47
 801 21 801 21 801 42 c 0,48,49
 801 62 801 62 810 102.5 c 128,-1,50
 819 143 819 143 833 198 c 128,-1,51
 847 253 847 253 862 317.5 c 128,-1,52
 877 382 877 382 891.5 450 c 128,-1,53
 906 518 906 518 914.5 586 c 128,-1,54
 923 654 923 654 923 716 c 0,55,56
 923 769 923 769 914.5 816 c 128,-1,57
 906 863 906 863 887 897.5 c 128,-1,58
 868 932 868 932 839 951.5 c 128,-1,59
 810 971 810 971 771 971 c 0,60,61
 720 971 720 971 671.5 927.5 c 128,-1,62
 623 884 623 884 577 812.5 c 128,-1,63
 531 741 531 741 491 647.5 c 128,-1,64
 451 554 451 554 419 453 c 128,-1,65
 387 352 387 352 365 250.5 c 128,-1,66
 343 149 343 149 334 60 c 1,67,68
 329 39 329 39 308 25 c 128,-1,69
 287 11 287 11 264 8 c 128,-1,70
 241 5 241 5 222 15 c 128,-1,71
 203 25 203 25 203 51 c 1,72,73
 204 56.5 l 2,74,75
 205 62 205 62 209.5 85 c 128,-1,76
 214 108 214 108 223.5 158.5 c 128,-1,77
 233 209 233 209 252 299 c 128,-1,78
 271 389 271 389 299 529.5 c 128,-1,79
 327 670 327 670 368 874 c 1,80,81
 368 891 368 891 362 906.5 c 128,-1,82
 356 922 356 922 348.5 936 c 128,-1,83
 341 950 341 950 335 965 c 128,-1,84
 329 980 329 980 329 996 c 0,85,86
 329 1022 329 1022 355.5 1044.5 c 128,-1,87
 382 1067 382 1067 414 1067 c 0,88,89
 435 1067 435 1067 449 1050 c 128,-1,90
 463 1033 463 1033 473 1006.5 c 128,-1,91
 483 980 483 980 488 945.5 c 128,-1,92
 493 911 493 911 499 876 c 1,0,1
EndSplineSet
EndChar
StartChar: n
Encoding: 110 110 81
Width: 1123
VWidth: 3622
Flags: W
HStem: 957 117<711.592 933.244>
VStem: 205 908.5<57 755 123.841 279.489>
Fore
490 883 m 1,0,1
 525 941 525 941 565 978 c 128,-1,2
 605 1015 605 1015 647.5 1036.5 c 128,-1,3
 690 1058 690 1058 737 1066 c 128,-1,4
 784 1074 784 1074 835 1074 c 0,5,6
 950 1074 950 1074 1012 1030.5 c 128,-1,7
 1074 987 1074 987 1097 916 c 128,-1,8
 1120 845 1120 845 1113.5 755 c 128,-1,9
 1107 665 1107 665 1086 573 c 2,10,-1
 978 60 l 1,11,12
 968 39 968 39 947.5 25.5 c 128,-1,13
 927 12 927 12 905.5 9.5 c 128,-1,14
 884 7 884 7 869 16 c 128,-1,15
 854 25 854 25 854 48 c 0,16,17
 854 50 854 50 855 53.5 c 128,-1,18
 856 57 856 57 858.5 72 c 128,-1,19
 861 87 861 87 867.5 119.5 c 128,-1,20
 874 152 874 152 886.5 210.5 c 128,-1,21
 899 269 899 269 917.5 358.5 c 128,-1,22
 936 448 936 448 962 578 c 1,23,-1
 962 577 l 1,24,25
 971 637 971 637 981 703 c 128,-1,26
 991 769 991 769 981 826 c 128,-1,27
 971 883 971 883 931 920 c 128,-1,28
 891 957 891 957 801 957 c 0,29,30
 727 957 727 957 667 902 c 128,-1,31
 607 847 607 847 559 761.5 c 128,-1,32
 511 676 511 676 474 570.5 c 128,-1,33
 437 465 437 465 410.5 366 c 128,-1,34
 384 267 384 267 366 185.5 c 128,-1,35
 348 104 348 104 338 64 c 0,36,37
 331 39 331 39 309.5 24 c 128,-1,38
 288 9 288 9 265 6.5 c 128,-1,39
 242 4 242 4 223.5 15.5 c 128,-1,40
 205 27 205 27 205 57 c 1,41,42
 206 62 l 2,43,44
 207 67 207 67 211.5 89 c 128,-1,45
 216 111 216 111 225.5 158 c 128,-1,46
 235 205 235 205 253 292.5 c 128,-1,47
 271 380 271 380 298 513 c 128,-1,48
 325 646 325 646 366 840 c 0,49,50
 368 853 368 853 359 872 c 128,-1,51
 350 891 350 891 339.5 912.5 c 128,-1,52
 329 934 329 934 320 955 c 128,-1,53
 311 976 311 976 311 992 c 0,54,55
 311 1019 311 1019 337.5 1041 c 128,-1,56
 364 1063 364 1063 394 1063 c 0,57,58
 419 1063 419 1063 436 1047 c 128,-1,59
 453 1031 453 1031 463.5 1005.5 c 128,-1,60
 474 980 474 980 480 947 c 128,-1,61
 486 914 486 914 490 883 c 1,0,1
EndSplineSet
EndChar
StartChar: o
Encoding: 111 111 82
Width: 1202
VWidth: 3622
Flags: W
HStem: 0 133<506.077 751.106> 968 122<581.948 958.316>
Fore
1235 524 m 0,0,1
 1205 380 1205 380 1141 280 c 128,-1,2
 1077 180 1077 180 990.5 117.5 c 128,-1,3
 904 55 904 55 798.5 27.5 c 128,-1,4
 693 0 693 0 580 0 c 0,5,6
 495 0 495 0 407.5 25 c 128,-1,7
 320 50 320 50 254.5 108 c 128,-1,8
 189 166 189 166 160 262.5 c 128,-1,9
 131 359 131 359 161 504 c 0,10,11
 189 642 189 642 247.5 750 c 128,-1,12
 306 858 306 858 389 934 c 128,-1,13
 472 1010 472 1010 582 1050 c 128,-1,14
 692 1090 692 1090 824 1090 c 0,15,16
 927 1090 927 1090 1016.5 1054.5 c 128,-1,17
 1106 1019 1106 1019 1164 948 c 128,-1,18
 1222 877 1222 877 1243.5 771 c 128,-1,19
 1265 665 1265 665 1235 524 c 0,0,1
1100 495 m 0,20,21
 1127 621 1127 621 1112 710 c 128,-1,22
 1097 799 1097 799 1052.5 856.5 c 128,-1,23
 1008 914 1008 914 942 941 c 128,-1,24
 876 968 876 968 799 968 c 0,25,26
 601 968 601 968 472 854.5 c 128,-1,27
 343 741 343 741 292 504 c 0,28,29
 269 396 269 396 290 324.5 c 128,-1,30
 311 253 311 253 360 210.5 c 128,-1,31
 409 168 409 168 474 150.5 c 128,-1,32
 539 133 539 133 607 133 c 0,33,34
 693 133 693 133 773 152.5 c 128,-1,35
 853 172 853 172 918 214 c 128,-1,36
 983 256 983 256 1031 325 c 128,-1,37
 1079 394 1079 394 1100 495 c 0,20,21
EndSplineSet
EndChar
StartChar: p
Encoding: 112 112 83
Width: 1247
VWidth: 3622
Flags: W
HStem: 6.5 129.5<567.882 812.984> 957 126<680.999 892.614>
VStem: 4 130<-403.061 -275.534>
Fore
398 734 m 1,0,1
 371 633 371 633 356 567 c 128,-1,2
 341 501 341 501 333 455 c 128,-1,3
 325 409 325 409 321 376 c 128,-1,4
 317 343 317 343 311 310 c 1,5,6
 331 265 331 265 367 233.5 c 128,-1,7
 403 202 403 202 447.5 180.5 c 128,-1,8
 492 159 492 159 540.5 148.5 c 128,-1,9
 589 138 589 138 635 136 c 0,10,11
 723 142 723 142 802 171 c 128,-1,12
 881 200 881 200 944.5 253 c 128,-1,13
 1008 306 1008 306 1054 382 c 128,-1,14
 1100 458 1100 458 1123 559 c 0,15,16
 1143 662 1143 662 1119 737 c 128,-1,17
 1095 812 1095 812 1046.5 861.5 c 128,-1,18
 998 911 998 911 932.5 934 c 128,-1,19
 867 957 867 957 803 957 c 0,20,21
 741 957 741 957 678.5 941 c 128,-1,22
 616 925 616 925 562 896 c 128,-1,23
 508 867 508 867 464.5 825.5 c 128,-1,24
 421 784 421 784 398 734 c 1,0,1
610 4 m 0,25,26
 566 4 566 4 522 6.5 c 128,-1,27
 478 9 478 9 433.5 21.5 c 128,-1,28
 389 34 389 34 348.5 56 c 128,-1,29
 308 78 308 78 271 119 c 1,30,-1
 239 -5 l 2,31,32
 221 -73 221 -73 195.5 -170 c 128,-1,33
 170 -267 170 -267 134 -400 c 0,34,35
 129 -425 129 -425 108 -438 c 128,-1,36
 87 -451 87 -451 64 -453 c 128,-1,37
 41 -455 41 -455 22.5 -443.5 c 128,-1,38
 4 -432 4 -432 4 -403 c 1,39,40
 83 -108 83 -108 135 102.5 c 128,-1,41
 187 313 187 313 218 459 c 128,-1,42
 249 605 249 605 261.5 698.5 c 128,-1,43
 274 792 274 792 274 854 c 0,44,45
 274 884 274 884 261.5 907 c 128,-1,46
 249 930 249 930 218 955 c 1,47,48
 202 992 202 992 226.5 1018.5 c 128,-1,49
 251 1045 251 1045 287 1045 c 0,50,51
 320 1045 320 1045 341.5 1027.5 c 128,-1,52
 363 1010 363 1010 376 988 c 128,-1,53
 389 966 389 966 395.5 944 c 128,-1,54
 402 922 402 922 403 911 c 1,55,56
 522 1001 522 1001 637 1042 c 128,-1,57
 752 1083 752 1083 845 1083 c 0,58,59
 904 1083 904 1083 977.5 1066 c 128,-1,60
 1051 1049 1051 1049 1115.5 1004.5 c 128,-1,61
 1180 960 1180 960 1224 886 c 128,-1,62
 1268 812 1268 812 1268 697 c 0,63,64
 1268 527 1268 527 1210.5 398 c 128,-1,65
 1153 269 1153 269 1059.5 181.5 c 128,-1,66
 966 94 966 94 848.5 49.5 c 128,-1,67
 731 5 731 5 610 4 c 0,25,26
EndSplineSet
EndChar
StartChar: q
Encoding: 113 113 84
Width: 1278
VWidth: 3622
Flags: W
HStem: 2 132<465.189 766.309> 955 128<611.139 842.23>
VStem: 154 131<253.119 646.303>
Fore
1098 699 m 1,0,1
 1098 755 1098 755 1069 802 c 128,-1,2
 1040 849 1040 849 993 883.5 c 128,-1,3
 946 918 946 918 888 936.5 c 128,-1,4
 830 955 830 955 769 955 c 0,5,6
 693 955 693 955 608.5 921.5 c 128,-1,7
 524 888 524 888 452 821 c 128,-1,8
 380 754 380 754 332.5 653 c 128,-1,9
 285 552 285 552 285 416 c 0,10,11
 285 276 285 276 375 205 c 128,-1,12
 465 134 465 134 626 134 c 0,13,14
 725 134 725 134 823.5 172 c 128,-1,15
 922 210 922 210 996 288 c 1,16,-1
 1098 699 l 1,0,1
946 101 m 1,17,18
 853 37 853 37 772.5 19.5 c 128,-1,19
 692 2 692 2 612 2 c 0,20,21
 515 2 515 2 431 26 c 128,-1,22
 347 50 347 50 286 97.5 c 128,-1,23
 225 145 225 145 189.5 216 c 128,-1,24
 154 287 154 287 154 382 c 0,25,26
 154 573 154 573 216 707.5 c 128,-1,27
 278 842 278 842 374.5 926 c 128,-1,28
 471 1010 471 1010 590 1047 c 128,-1,29
 709 1084 709 1084 826 1083 c 0,30,31
 922 1081 922 1081 1010 1036 c 128,-1,32
 1098 991 1098 991 1187 890 c 1,33,34
 1208 918 1208 918 1233 941 c 0,35,36
 1288 989 1288 989 1312.5 1002 c 128,-1,37
 1337 1015 1337 1015 1353 1015 c 0,38,39
 1385 1015 1385 1015 1398.5 1003 c 128,-1,40
 1412 991 1412 991 1409 972 c 128,-1,41
 1406 953 1406 953 1388.5 931 c 128,-1,42
 1371 909 1371 909 1343 890 c 0,43,44
 1307 860 1307 860 1279 784 c 128,-1,45
 1251 708 1251 708 1213 591 c 0,46,47
 1192 527 1192 527 1168 441.5 c 128,-1,48
 1144 356 1144 356 1114 233.5 c 128,-1,49
 1084 111 1084 111 1046 -52.5 c 128,-1,50
 1008 -216 1008 -216 960 -435 c 1,51,52
 950 -460 950 -460 929.5 -470.5 c 128,-1,53
 909 -481 909 -481 890 -481 c 0,54,55
 868 -481 868 -481 850.5 -468 c 128,-1,56
 833 -455 833 -455 833 -432 c 0,57,58
 833 -430 833 -430 834 -426.5 c 128,-1,59
 835 -423 835 -423 837.5 -407 c 128,-1,60
 840 -391 840 -391 847 -359 c 128,-1,61
 854 -327 854 -327 867.5 -268 c 128,-1,62
 881 -209 881 -209 899.5 -119.5 c 128,-1,63
 918 -30 918 -30 946 101 c 1,17,18
EndSplineSet
EndChar
StartChar: r
Encoding: 114 114 85
Width: 850
VWidth: 3622
Flags: W
HStem: 950 129<622.055 806.397>
VStem: 99 861<34 858 18.7861 55.313> 833 127<779.451 921.115>
Fore
405 1051 m 1,0,1
 403 1042 403 1042 401.5 1030.5 c 128,-1,2
 400 1019 400 1019 396.5 998.5 c 128,-1,3
 393 978 393 978 387.5 945.5 c 128,-1,4
 382 913 382 913 373 861 c 1,5,6
 410 920 410 920 455.5 961.5 c 128,-1,7
 501 1003 501 1003 547.5 1029.5 c 128,-1,8
 594 1056 594 1056 639.5 1067.5 c 128,-1,9
 685 1079 685 1079 722 1079 c 0,10,11
 792 1077 792 1077 839 1060.5 c 128,-1,12
 886 1044 886 1044 912.5 1014.5 c 128,-1,13
 939 985 939 985 949.5 945.5 c 128,-1,14
 960 906 960 906 960 858 c 0,15,16
 960 799 960 799 941.5 746 c 128,-1,17
 923 693 923 693 890.5 651.5 c 128,-1,18
 858 610 858 610 812 585.5 c 128,-1,19
 766 561 766 561 708 561 c 0,20,21
 676 561 676 561 653.5 569.5 c 128,-1,22
 631 578 631 578 631 601 c 0,23,24
 633 635 633 635 649 651 c 128,-1,25
 665 667 665 667 687 675 c 128,-1,26
 709 683 709 683 735 689 c 128,-1,27
 761 695 761 695 783 709 c 128,-1,28
 805 723 805 723 819 751.5 c 128,-1,29
 833 780 833 780 833 833 c 0,30,31
 833 881 833 881 803 915.5 c 128,-1,32
 773 950 773 950 695 950 c 0,33,34
 635 950 635 950 583.5 910 c 128,-1,35
 532 870 532 870 490 804.5 c 128,-1,36
 448 739 448 739 414 656 c 128,-1,37
 380 573 380 573 352 484.5 c 128,-1,38
 324 396 324 396 302.5 311 c 128,-1,39
 281 226 281 226 265 159 c 2,40,-1
 235 48 l 2,41,42
 226 18 226 18 203 2 c 128,-1,43
 180 -14 180 -14 156 -14 c 256,44,45
 131 -14 131 -14 115 -2.5 c 128,-1,46
 99 9 99 9 99 34 c 0,47,48
 99 65 99 65 116 117.5 c 128,-1,49
 133 170 133 170 147 249 c 0,50,51
 173 368 173 368 206 561 c 128,-1,52
 239 754 239 754 274 1045 c 0,53,54
 281 1077 281 1077 302.5 1092 c 128,-1,55
 324 1107 324 1107 347 1107 c 0,56,57
 371 1107 371 1107 388 1093 c 128,-1,58
 405 1079 405 1079 405 1056 c 2,59,-1
 405 1051 l 1,0,1
EndSplineSet
EndChar
StartChar: s
Encoding: 115 115 86
Width: 840
VWidth: 3622
Flags: W
HStem: -4 130<341.704 596.234> 964 129<515.553 663.862>
VStem: 214 136<726.403 813.238> 704 133<279.681 401.51> 796 134<763.335 853.673>
Fore
796 807 m 0,0,1
 796 828 796 828 790 854.5 c 128,-1,2
 784 881 784 881 761.5 905.5 c 128,-1,3
 739 930 739 930 697.5 947 c 128,-1,4
 656 964 656 964 585 964 c 0,5,6
 518 964 518 964 475 943 c 128,-1,7
 432 922 432 922 405.5 893.5 c 128,-1,8
 379 865 379 865 366.5 836.5 c 128,-1,9
 354 808 354 808 350 792 c 0,10,11
 340 739 340 739 371.5 706.5 c 128,-1,12
 403 674 403 674 457 650 c 128,-1,13
 511 626 511 626 577.5 604 c 128,-1,14
 644 582 644 582 701.5 550 c 128,-1,15
 759 518 759 518 798 469.5 c 128,-1,16
 837 421 837 421 837 343 c 0,17,18
 837 290 837 290 812 229 c 128,-1,19
 787 168 787 168 736 116 c 128,-1,20
 685 64 685 64 607 30 c 128,-1,21
 529 -4 529 -4 421 -4 c 0,22,23
 340 -4 340 -4 278 22 c 128,-1,24
 216 48 216 48 173.5 89.5 c 128,-1,25
 131 131 131 131 109 182 c 128,-1,26
 87 233 87 233 87 287 c 0,27,28
 90 338 90 338 114 359 c 128,-1,29
 138 380 138 380 163 379 c 0,30,31
 191 377 191 377 205 358.5 c 128,-1,32
 219 340 219 340 229 311.5 c 128,-1,33
 239 283 239 283 250.5 250.5 c 128,-1,34
 262 218 262 218 284 190.5 c 128,-1,35
 306 163 306 163 345 144.5 c 128,-1,36
 384 126 384 126 449 126 c 0,37,38
 539 126 539 126 589.5 152.5 c 128,-1,39
 640 179 640 179 666 211.5 c 128,-1,40
 692 244 692 244 698 274 c 128,-1,41
 704 304 704 304 704 310 c 0,42,43
 704 364 704 364 667.5 398.5 c 128,-1,44
 631 433 631 433 576.5 457 c 128,-1,45
 522 481 522 481 459 501.5 c 128,-1,46
 396 522 396 522 341.5 550 c 128,-1,47
 287 578 287 578 250.5 620.5 c 128,-1,48
 214 663 214 663 214 732 c 0,49,50
 214 814 214 814 246 883 c 128,-1,51
 278 952 278 952 333.5 1000.5 c 128,-1,52
 389 1049 389 1049 464 1073.5 c 128,-1,53
 539 1098 539 1098 626 1093 c 0,54,55
 693 1090 693 1090 749 1067.5 c 128,-1,56
 805 1045 805 1045 844.5 1011.5 c 128,-1,57
 884 978 884 978 907 934.5 c 128,-1,58
 930 891 930 891 930 844 c 0,59,60
 930 789 930 789 909 762.5 c 128,-1,61
 888 736 888 736 862.5 733.5 c 128,-1,62
 837 731 837 731 815.5 750 c 128,-1,63
 794 769 794 769 796 807 c 0,0,1
EndSplineSet
EndChar
StartChar: t
Encoding: 116 116 87
Width: 742
VWidth: 3622
Flags: W
HStem: 27 136<451.917 569.419> 812 129<557.965 626.485 626.485 670.134> 830.5 140.5<295.94 346 366 372.288 372.288 393.656>
VStem: 297 140<173.924 384.935>
Fore
295 978 m 0,0,1
 325 978 325 978 366 971 c 128,-1,2
 407 964 407 964 426 957 c 1,3,4
 458 1054 458 1054 483 1148 c 128,-1,5
 508 1242 508 1242 529 1317 c 128,-1,6
 550 1392 550 1392 570.5 1444 c 128,-1,7
 591 1496 591 1496 614 1511 c 1,8,9
 623 1519 623 1519 641.5 1522.5 c 128,-1,10
 660 1526 660 1526 678.5 1522.5 c 128,-1,11
 697 1519 697 1519 709.5 1508.5 c 128,-1,12
 722 1498 722 1498 718 1479 c 0,13,14
 704 1413 704 1413 689 1361 c 128,-1,15
 674 1309 674 1309 654.5 1250.5 c 128,-1,16
 635 1192 635 1192 611 1119.5 c 128,-1,17
 587 1047 587 1047 557 941 c 1,18,19
 628 941 628 941 671.5 935 c 128,-1,20
 715 929 715 929 738.5 920 c 128,-1,21
 762 911 762 911 769.5 899.5 c 128,-1,22
 777 888 777 888 777 877 c 0,23,24
 777 842 777 842 744 828.5 c 128,-1,25
 711 815 711 815 668.5 812.5 c 128,-1,26
 626 810 626 810 584.5 812 c 128,-1,27
 543 814 543 814 527 808 c 1,28,29
 483 603 483 603 460 478.5 c 128,-1,30
 437 354 437 354 437 287 c 0,31,32
 437 163 437 163 527 163 c 0,33,34
 564 163 564 163 586 193 c 128,-1,35
 608 223 608 223 627 260 c 128,-1,36
 646 297 646 297 666 327 c 128,-1,37
 686 357 686 357 718 357 c 0,38,39
 743 357 743 357 767 335 c 128,-1,40
 791 313 791 313 778 281 c 0,41,42
 748 202 748 202 715.5 152.5 c 128,-1,43
 683 103 683 103 645.5 75.5 c 128,-1,44
 608 48 608 48 568.5 37.5 c 128,-1,45
 529 27 529 27 485 27 c 0,46,47
 384 27 384 27 340.5 92 c 128,-1,48
 297 157 297 157 297 278 c 0,49,50
 297 379 297 379 322.5 518.5 c 128,-1,51
 348 658 348 658 394 821 c 1,52,53
 375 826 375 826 346 830.5 c 128,-1,54
 317 835 317 835 288.5 843 c 128,-1,55
 260 851 260 851 239 865 c 128,-1,56
 218 879 218 879 216 904 c 0,57,58
 212 950 212 950 236 964 c 128,-1,59
 260 978 260 978 295 978 c 0,0,1
EndSplineSet
EndChar
StartChar: u
Encoding: 117 117 88
Width: 1101
VWidth: 3622
Flags: W
HStem: 4 115<441.296 576.999> 1054 20G<1047.5 1075>
VStem: 203 128<190.452 321.654> 980 133<944.769 1048.61>
Fore
837 187 m 1,0,1
 801 131 801 131 759.5 95.5 c 128,-1,2
 718 60 718 60 673 39.5 c 128,-1,3
 628 19 628 19 580 11.5 c 128,-1,4
 532 4 532 4 483 4 c 0,5,6
 334 0 334 0 268.5 66.5 c 128,-1,7
 203 133 203 133 203 276 c 1,8,-1
 341 1015 l 2,9,10
 345 1035 345 1035 364.5 1046.5 c 128,-1,11
 384 1058 384 1058 405 1060.5 c 128,-1,12
 426 1063 426 1063 444 1056 c 128,-1,13
 462 1049 462 1049 462 1028 c 1,14,15
 432 877 432 877 410.5 769.5 c 128,-1,16
 389 662 389 662 375 585.5 c 128,-1,17
 361 509 361 509 352 459.5 c 128,-1,18
 343 410 343 410 338.5 379 c 128,-1,19
 334 348 334 348 332.5 329.5 c 128,-1,20
 331 311 331 311 331 297 c 0,21,22
 331 256 331 256 335.5 224.5 c 128,-1,23
 340 193 340 193 358.5 170 c 128,-1,24
 377 147 377 147 414 133.5 c 128,-1,25
 451 120 451 120 516 119 c 0,26,27
 607 115 607 115 676 169 c 128,-1,28
 745 223 745 223 795 308 c 128,-1,29
 845 393 845 393 879 497 c 128,-1,30
 913 601 913 601 935 702 c 128,-1,31
 957 803 957 803 966.5 886 c 128,-1,32
 976 969 976 969 980 1012 c 0,33,34
 983 1042 983 1042 1009 1058 c 128,-1,35
 1035 1074 1035 1074 1060 1074 c 0,36,37
 1090 1074 1090 1074 1101.5 1053.5 c 128,-1,38
 1113 1033 1113 1033 1113 1008 c 1,39,40
 1075 810 1075 810 1049.5 673 c 128,-1,41
 1024 536 1024 536 1006.5 446 c 128,-1,42
 989 356 989 356 979 306 c 128,-1,43
 969 256 969 256 964 231.5 c 128,-1,44
 959 207 959 207 958 201.5 c 128,-1,45
 957 196 957 196 957 195 c 0,46,47
 957 164 957 164 972 132.5 c 128,-1,48
 987 101 987 101 987 76 c 0,49,50
 987 16 987 16 929 16 c 0,51,52
 913 16 913 16 897 21.5 c 128,-1,53
 881 27 881 27 869.5 45.5 c 128,-1,54
 858 64 858 64 849 97.5 c 128,-1,55
 840 131 840 131 837 187 c 1,0,1
EndSplineSet
EndChar
StartChar: v
Encoding: 118 118 89
Width: 1050
VWidth: 3622
Flags: W
HStem: 21 129<529.98 605.806> 1066 20G<1121.5 1150>
VStem: 315 139.5<792.002 964.042 964.042 1006.67>
Fore
448 1010 m 1,0,1
 451 989 451 989 454.5 916.5 c 128,-1,2
 458 844 458 844 464.5 748.5 c 128,-1,3
 471 653 471 653 479.5 547.5 c 128,-1,4
 488 442 488 442 499.5 353.5 c 128,-1,5
 511 265 511 265 526 207.5 c 128,-1,6
 541 150 541 150 561 150 c 0,7,8
 577 150 577 150 616.5 210.5 c 128,-1,9
 656 271 656 271 708.5 363 c 128,-1,10
 761 455 761 455 817.5 562.5 c 128,-1,11
 874 670 874 670 923.5 765.5 c 128,-1,12
 973 861 973 861 1007.5 930 c 128,-1,13
 1042 999 1042 999 1049 1012 c 1,14,-1
 1049 1010 l 1,15,16
 1065 1044 1065 1044 1087 1065 c 128,-1,17
 1109 1086 1109 1086 1134 1086 c 0,18,19
 1166 1086 1166 1086 1179 1060.5 c 128,-1,20
 1192 1035 1192 1035 1187 1012 c 1,21,22
 1159 953 1159 953 1111 857.5 c 128,-1,23
 1063 762 1063 762 1004 651.5 c 128,-1,24
 945 541 945 541 880 429 c 128,-1,25
 815 317 815 317 751.5 226.5 c 128,-1,26
 688 136 688 136 631.5 78.5 c 128,-1,27
 575 21 575 21 532 21 c 0,28,29
 472 21 472 21 439.5 93.5 c 128,-1,30
 407 166 407 166 387.5 290 c 128,-1,31
 368 414 368 414 353 576.5 c 128,-1,32
 338 739 338 739 315 918 c 0,33,34
 310 976 310 976 324 1012.5 c 128,-1,35
 338 1049 338 1049 361 1060.5 c 128,-1,36
 384 1072 384 1072 408.5 1059.5 c 128,-1,37
 433 1047 433 1047 448 1010 c 1,0,1
EndSplineSet
EndChar
StartChar: w
Encoding: 119 119 90
Width: 1623
VWidth: 3622
Flags: W
HStem: 1066 20G<421.75 441.25>
VStem: 334 126<256.608 597.264 575.875 618.652 618.652 728.5 752.5 1037.85> 1569 120<580.106 1064.13>
Fore
1689 1028 m 1,0,1
 1603 768 1603 768 1526 564.5 c 128,-1,2
 1449 361 1449 361 1380.5 227.5 c 128,-1,3
 1312 94 1312 94 1251 39 c 128,-1,4
 1190 -16 1190 -16 1135.5 21 c 128,-1,5
 1081 58 1081 58 1031.5 197 c 128,-1,6
 982 336 982 336 934 589 c 1,7,8
 883 448 883 448 819 328.5 c 128,-1,9
 755 209 755 209 688 130 c 128,-1,10
 621 51 621 51 557 20 c 128,-1,11
 493 -11 493 -11 443.5 23.5 c 128,-1,12
 394 58 394 58 364 167 c 128,-1,13
 334 276 334 276 334 476 c 0,14,15
 334 587 334 587 345 728.5 c 128,-1,16
 356 870 356 870 380 1049 c 0,17,18
 382 1067 382 1067 397 1076.5 c 128,-1,19
 412 1086 412 1086 431.5 1086 c 128,-1,20
 451 1086 451 1086 470.5 1077 c 128,-1,21
 490 1068 490 1068 499 1051 c 1,22,23
 479 884 479 884 469.5 752.5 c 128,-1,24
 460 621 460 621 460 518 c 0,25,26
 460 364 460 364 474 279.5 c 128,-1,27
 488 195 488 195 513 164.5 c 128,-1,28
 538 134 538 134 570.5 152 c 128,-1,29
 603 170 603 170 640 219.5 c 128,-1,30
 677 269 677 269 716 344 c 128,-1,31
 755 419 755 419 794 504 c 128,-1,32
 833 589 833 589 867.5 677.5 c 128,-1,33
 902 766 902 766 929 842 c 0,34,35
 937 867 937 867 956 877.5 c 128,-1,36
 975 888 975 888 998 888 c 0,37,38
 1044 888 1044 888 1045 845 c 0,39,40
 1063 492 1063 492 1103 332 c 128,-1,41
 1143 172 1143 172 1206.5 202 c 128,-1,42
 1270 232 1270 232 1359.5 448.5 c 128,-1,43
 1449 665 1449 665 1569 1063 c 0,44,45
 1574 1077 1574 1077 1591 1087 c 128,-1,46
 1608 1097 1608 1097 1627.5 1096 c 128,-1,47
 1647 1095 1647 1095 1665.5 1079 c 128,-1,48
 1684 1063 1684 1063 1689 1028 c 1,0,1
EndSplineSet
EndChar
StartChar: x
Encoding: 120 120 91
Width: 1036
VWidth: 3622
Flags: W
VStem: 94 991<50 1009 50 50>
Fore
853 34 m 0,0,1
 794 131 794 131 756 198 c 128,-1,2
 718 265 718 265 692.5 313 c 128,-1,3
 667 361 667 361 648.5 396.5 c 128,-1,4
 630 432 630 432 612 467 c 1,5,6
 531 387 531 387 469 324.5 c 128,-1,7
 407 262 407 262 357.5 209.5 c 128,-1,8
 308 157 308 157 270 114 c 128,-1,9
 232 71 232 71 198 30 c 0,10,11
 187 16 187 16 169.5 11.5 c 128,-1,12
 152 7 152 7 135.5 9.5 c 128,-1,13
 119 12 119 12 106.5 22 c 128,-1,14
 94 32 94 32 94 50 c 0,15,16
 94 73 94 73 120.5 113.5 c 128,-1,17
 147 154 147 154 189.5 204.5 c 128,-1,18
 232 255 232 255 284 309.5 c 128,-1,19
 336 364 336 364 386.5 416.5 c 128,-1,20
 437 469 437 469 480.5 515 c 128,-1,21
 524 561 524 561 550 591 c 1,22,23
 488 690 488 690 443 783 c 128,-1,24
 398 876 398 876 340 976 c 0,25,26
 315 1019 315 1019 324.5 1048 c 128,-1,27
 334 1077 334 1077 360 1089.5 c 128,-1,28
 386 1102 386 1102 417 1095 c 128,-1,29
 448 1088 448 1088 465 1054 c 0,30,31
 481 1017 481 1017 506 971 c 128,-1,32
 531 925 531 925 543.5 900.5 c 0,33,-1
 594.5 803.5 l 0,34,35
 633 731 633 731 653 686 c 1,36,-1
 985 1049 l 1,37,38
 1010 1065 1010 1065 1033 1062.5 c 128,-1,39
 1056 1060 1056 1060 1070 1045.5 c 128,-1,40
 1084 1031 1084 1031 1085 1009 c 128,-1,41
 1086 987 1086 987 1068 966 c 0,42,43
 1012 893 1012 893 917 788 c 128,-1,44
 822 683 822 683 711 571 c 1,45,46
 741 509 741 509 772 451.5 c 128,-1,47
 803 394 803 394 836.5 336 c 128,-1,48
 870 278 870 278 905.5 215 c 128,-1,49
 941 152 941 152 982 83 c 1,50,51
 987 58 987 58 973.5 37 c 128,-1,52
 960 16 960 16 938 5.5 c 128,-1,53
 916 -5 916 -5 892 0 c 128,-1,54
 868 5 868 5 853 34 c 0,0,1
EndSplineSet
EndChar
StartChar: y
Encoding: 121 121 92
Width: 1057
VWidth: 3622
Flags: W
VStem: 278 125<655.159 1022>
Fore
541 87 m 1,0,1
 497 106 497 106 453.5 163.5 c 128,-1,2
 410 221 410 221 374 330 c 128,-1,3
 338 439 338 439 311.5 607 c 128,-1,4
 285 775 285 775 278 1014 c 0,5,6
 279 1040 279 1040 297 1057.5 c 128,-1,7
 315 1075 315 1075 336 1078 c 128,-1,8
 357 1081 357 1081 376.5 1067.5 c 128,-1,9
 396 1054 396 1054 403 1022 c 1,10,11
 414 799 414 799 436 650.5 c 128,-1,12
 458 502 458 502 486.5 409.5 c 128,-1,13
 515 317 515 317 546 271 c 128,-1,14
 577 225 577 225 603 209 c 1,15,16
 621 225 621 225 654.5 273.5 c 128,-1,17
 688 322 688 322 739.5 417.5 c 128,-1,18
 791 513 791 513 862.5 661.5 c 128,-1,19
 934 810 934 810 1029 1022 c 0,20,21
 1045 1054 1045 1054 1071 1069 c 128,-1,22
 1097 1084 1097 1084 1119 1082.5 c 128,-1,23
 1141 1081 1141 1081 1154 1065 c 128,-1,24
 1167 1049 1167 1049 1159 1017 c 0,25,26
 1098 870 1098 870 1028.5 721.5 c 128,-1,27
 959 573 959 573 864 399 c 128,-1,28
 769 225 769 225 642.5 11 c 128,-1,29
 516 -203 516 -203 341 -483 c 1,30,31
 320 -508 320 -508 296 -515 c 128,-1,32
 272 -522 272 -522 254.5 -515.5 c 128,-1,33
 237 -509 237 -509 229 -493.5 c 128,-1,34
 221 -478 221 -478 230 -453 c 2,35,36
 230 -451 230 -451 231.5 -447.5 c 128,-1,37
 233 -444 233 -444 242 -430 c 128,-1,38
 251 -416 251 -416 269 -385 c 128,-1,39
 287 -354 287 -354 321.5 -295.5 c 128,-1,40
 356 -237 356 -237 409 -144 c 128,-1,41
 462 -51 462 -51 541 87 c 1,0,1
EndSplineSet
EndChar
StartChar: z
Encoding: 122 122 93
Width: 1144
VWidth: 3622
Flags: W
HStem: 7 81<230 264.136 264.136 279.426 782.122 962.186> 13.5 110.5<466.236 554.969 510.603 678.725 676.996 680.454 680.454 851.101> 932 106.5<437.873 483 612 668.45 668.45 690.296 679.373 850.879 804.696 897.062 897.062 918.565> 945.5 122.5<386.823 435 483 609.342>
Fore
230 88 m 1,0,1
 246 88 246 88 280.5 93.5 c 128,-1,2
 315 99 315 99 362 106 c 128,-1,3
 409 113 409 113 464.5 118.5 c 128,-1,4
 520 124 520 124 582 124 c 0,5,6
 679 124 679 124 779 118.5 c 128,-1,7
 879 113 879 113 968 99 c 1,8,9
 985 90 985 90 992 75 c 128,-1,10
 999 60 999 60 994 44 c 128,-1,11
 989 28 989 28 974 15 c 128,-1,12
 959 2 959 2 936 0 c 1,13,14
 830 11 830 11 749.5 15 c 128,-1,15
 669 19 669 19 605 19 c 0,16,17
 554 19 554 19 505 17.5 c 128,-1,18
 456 16 456 16 406 13.5 c 128,-1,19
 356 11 356 11 298.5 9 c 128,-1,20
 241 7 241 7 170 7 c 0,21,22
 161 7 161 7 148.5 10.5 c 128,-1,23
 136 14 136 14 123.5 22 c 128,-1,24
 111 30 111 30 103.5 40.5 c 128,-1,25
 96 51 96 51 96 65 c 0,26,27
 96 94 96 94 129 120 c 0,28,29
 294 253 294 253 438 375 c 128,-1,30
 582 497 582 497 701.5 602.5 c 128,-1,31
 821 708 821 708 916.5 793.5 c 128,-1,32
 1012 879 1012 879 1081 941 c 1,33,34
 1029 936 1029 936 964 934 c 128,-1,35
 899 932 899 932 830 932 c 0,36,37
 600 932 600 932 483 945.5 c 128,-1,38
 366 959 366 959 366 1019 c 0,39,40
 366 1042 366 1042 385.5 1057 c 128,-1,41
 405 1072 405 1072 435 1068 c 0,42,43
 527 1054 527 1054 612 1045.5 c 128,-1,44
 697 1037 697 1037 771 1037 c 0,45,46
 803 1037 803 1037 838.5 1038.5 c 128,-1,47
 874 1040 874 1040 920 1042.5 c 128,-1,48
 966 1045 966 1045 1029.5 1049.5 c 128,-1,49
 1093 1054 1093 1054 1183 1060 c 1,50,51
 1217 1056 1217 1056 1234 1043.5 c 128,-1,52
 1251 1031 1251 1031 1253.5 1014.5 c 128,-1,53
 1256 998 1256 998 1246 976.5 c 128,-1,54
 1236 955 1236 955 1215 937 c 0,55,56
 1070 807 1070 807 949 696 c 128,-1,57
 828 585 828 585 714 484.5 c 128,-1,58
 600 384 600 384 484 287.5 c 128,-1,59
 368 191 368 191 230 88 c 1,0,1
EndSplineSet
EndChar
StartChar: braceleft
Encoding: 123 123 94
Width: 753
VWidth: 3622
Flags: W
HStem: -354 113<452.972 542.212 542.212 562.32> 1482 108<775.301 945.023>
VStem: 265.5 111.5<-146.264 -116 -60 -45.8606 -45.8606 -14.9077 -30.3842 136.316> 297 113.5<298.092 338 338 368.567 368.567 406.885 406.885 479.323>
Fore
906 1482 m 0,0,1
 831 1482 831 1482 773.5 1454 c 128,-1,2
 716 1426 716 1426 675.5 1373.5 c 128,-1,3
 635 1321 635 1321 607.5 1247.5 c 128,-1,4
 580 1174 580 1174 564 1084 c 0,5,6
 555 1038 555 1038 539.5 976 c 128,-1,7
 524 914 524 914 500 849.5 c 128,-1,8
 476 785 476 785 445 726 c 128,-1,9
 414 667 414 667 377 628 c 1,10,11
 414 570 414 570 417.5 506 c 128,-1,12
 421 442 421 442 410.5 369.5 c 128,-1,13
 400 297 400 297 385 213 c 128,-1,14
 370 129 370 129 370 30 c 0,15,16
 370 -12 370 -12 377 -60 c 128,-1,17
 384 -108 384 -108 402.5 -147.5 c 128,-1,18
 421 -187 421 -187 452 -214 c 128,-1,19
 483 -241 483 -241 529 -241 c 0,20,21
 541 -241 541 -241 555.5 -241.5 c 128,-1,22
 570 -242 570 -242 582 -245.5 c 128,-1,23
 594 -249 594 -249 602 -259 c 128,-1,24
 610 -269 610 -269 610 -285 c 0,25,26
 610 -311 610 -311 586 -332.5 c 128,-1,27
 562 -354 562 -354 524 -354 c 0,28,29
 442 -354 442 -354 390 -318.5 c 128,-1,30
 338 -283 338 -283 308 -230 c 128,-1,31
 278 -177 278 -177 265.5 -116 c 128,-1,32
 253 -55 253 -55 253 -4 c 0,33,34
 253 62 253 62 261 121 c 128,-1,35
 269 180 269 180 278.5 235 c 128,-1,36
 288 290 288 290 297 338 c 128,-1,37
 306 386 306 386 306 428 c 256,38,39
 306 471 306 471 292 495.5 c 128,-1,40
 278 520 278 520 262 537 c 128,-1,41
 246 554 246 554 232 569 c 128,-1,42
 218 584 218 584 218 608 c 0,43,44
 218 639 218 639 239 668 c 128,-1,45
 260 697 260 697 301 713 c 0,46,47
 336 725 336 725 361.5 773.5 c 128,-1,48
 387 822 387 822 407.5 887 c 128,-1,49
 428 952 428 952 442 1021.5 c 128,-1,50
 456 1091 456 1091 469 1146 c 0,51,52
 515 1357 515 1357 631.5 1471 c 128,-1,53
 748 1585 748 1585 904 1590 c 0,54,55
 941 1592 941 1592 959.5 1575 c 128,-1,56
 978 1558 978 1558 979 1538 c 128,-1,57
 980 1518 980 1518 961.5 1500 c 128,-1,58
 943 1482 943 1482 906 1482 c 0,0,1
EndSplineSet
EndChar
StartChar: bar
Encoding: 124 124 95
Width: 504
VWidth: 3622
Flags: W
VStem: 186 575<-35 2154 -63.6553 2.1822>
Fore
642 2138 m 0,0,1
 647 2172 647 2172 666.5 2187 c 128,-1,2
 686 2202 686 2202 707.5 2202 c 128,-1,3
 729 2202 729 2202 745 2189.5 c 128,-1,4
 761 2177 761 2177 761 2154 c 0,5,6
 761 2114 761 2114 745 2030 c 128,-1,7
 729 1946 729 1946 705 1841.5 c 128,-1,8
 681 1737 681 1737 654.5 1624 c 128,-1,9
 628 1511 628 1511 607 1412 c 2,10,-1
 531 1051 l 2,11,12
 508 945 508 945 485.5 838.5 c 128,-1,13
 463 732 463 732 439 626 c 0,14,15
 387 398 387 398 358 260 c 128,-1,16
 329 122 329 122 308 49.5 c 128,-1,17
 287 -23 287 -23 267.5 -46 c 128,-1,18
 248 -69 248 -69 218 -67 c 0,19,20
 193 -65 193 -65 186 -35 c 128,-1,21
 179 -5 179 -5 187 18 c 1,22,23
 239 251 239 251 283 449 c 128,-1,24
 327 647 327 647 366 823 c 128,-1,25
 405 999 405 999 438.5 1159.5 c 128,-1,26
 472 1320 472 1320 505.5 1478 c 128,-1,27
 539 1636 539 1636 572 1798 c 128,-1,28
 605 1960 605 1960 642 2138 c 0,0,1
EndSplineSet
EndChar
StartChar: braceright
Encoding: 125 125 96
Width: 753
VWidth: 3622
Flags: W
HStem: -354 115<47.6929 169.619> 1482 107<457.047 474.546 474.546 516.546 495.546 609.251>
VStem: 621 108<728.899 900.328> 686 114.5<1205.03 1327.36 1327.36 1421.67>
Fore
538 1590 m 0,0,1
 623 1590 623 1590 678.5 1554 c 128,-1,2
 734 1518 734 1518 764 1462 c 128,-1,3
 794 1406 794 1406 800.5 1337 c 128,-1,4
 807 1268 807 1268 794 1203 c 0,5,6
 769 1088 769 1088 749 977.5 c 128,-1,7
 729 867 729 867 729 792 c 0,8,9
 729 745 729 745 742 724.5 c 128,-1,10
 755 704 755 704 771 694.5 c 128,-1,11
 787 685 787 685 800.5 676 c 128,-1,12
 814 667 814 667 814 642 c 0,13,14
 814 616 814 616 793.5 587.5 c 128,-1,15
 773 559 773 559 739 543 c 1,16,17
 709 534 709 534 687 507.5 c 128,-1,18
 665 481 665 481 649 450 c 128,-1,19
 633 419 633 419 623.5 387.5 c 128,-1,20
 614 356 614 356 610 336 c 0,21,22
 598 281 598 281 580 208.5 c 128,-1,23
 562 136 562 136 535 59 c 128,-1,24
 508 -18 508 -18 468 -91 c 128,-1,25
 428 -164 428 -164 373 -222.5 c 128,-1,26
 318 -281 318 -281 245.5 -317.5 c 128,-1,27
 173 -354 173 -354 80 -354 c 0,28,29
 51 -354 51 -354 38 -339 c 128,-1,30
 25 -324 25 -324 25 -306 c 0,31,32
 25 -281 25 -281 47 -260 c 128,-1,33
 69 -239 69 -239 113 -239 c 0,34,35
 166 -239 166 -239 209.5 -217.5 c 128,-1,36
 253 -196 253 -196 288.5 -161 c 128,-1,37
 324 -126 324 -126 353 -80.5 c 128,-1,38
 382 -35 382 -35 403 12 c 0,39,40
 453 122 453 122 483 265 c 0,41,42
 506 343 506 343 521 400.5 c 128,-1,43
 536 458 536 458 553.5 500.5 c 128,-1,44
 571 543 571 543 594 572 c 128,-1,45
 617 601 617 601 654 626 c 1,46,47
 635 656 635 656 628 697 c 128,-1,48
 621 738 621 738 621 785 c 0,49,50
 621 865 621 865 631.5 933 c 128,-1,51
 642 1001 642 1001 653.5 1061 c 128,-1,52
 665 1121 665 1121 675.5 1172.5 c 128,-1,53
 686 1224 686 1224 686 1270 c 0,54,55
 686 1320 686 1320 678 1358 c 128,-1,56
 670 1396 670 1396 648 1422.5 c 128,-1,57
 626 1449 626 1449 587 1464 c 128,-1,58
 548 1479 548 1479 488 1482 c 0,59,60
 476 1482 476 1482 461 1481 c 128,-1,61
 446 1480 446 1480 433.5 1482 c 128,-1,62
 421 1484 421 1484 413 1490 c 128,-1,63
 405 1496 405 1496 405 1512 c 0,64,65
 405 1541 405 1541 418.5 1556.5 c 128,-1,66
 432 1572 432 1572 452 1580 c 128,-1,67
 472 1588 472 1588 495 1589 c 128,-1,68
 518 1590 518 1590 538 1590 c 0,0,1
EndSplineSet
EndChar
StartChar: asciitilde
Encoding: 126 126 97
Width: 981
VWidth: 3622
Flags: W
HStem: 868 103<465.513 541.921 541.921 544.5 544.5 571 594 618.219>
VStem: 315 678.5<877 885.5 829.874 933.599>
Fore
315 877 m 0,0,1
 387 969 387 969 495 978 c 0,2,3
 541 982 541 982 594 971 c 128,-1,4
 647 960 647 960 690 943 c 0,5,6
 713 934 713 934 741 926 c 128,-1,7
 769 918 769 918 797.5 914.5 c 128,-1,8
 826 911 826 911 851.5 916.5 c 128,-1,9
 877 922 877 922 899 939 c 0,10,11
 960 980 960 980 991 948 c 1,12,13
 1012 913 1012 913 993.5 885.5 c 128,-1,14
 975 858 975 858 940.5 839.5 c 128,-1,15
 906 821 906 821 865 811 c 128,-1,16
 824 801 824 801 803 801 c 0,17,18
 761 801 761 801 709.5 814.5 c 128,-1,19
 658 828 658 828 619 842 c 0,20,21
 594 851 594 851 571 856 c 128,-1,22
 548 861 548 861 518 868 c 0,23,24
 497 872 497 872 464.5 860.5 c 128,-1,25
 432 849 432 849 402 819 c 0,26,27
 348 777 348 777 315 808 c 0,28,29
 281 842 281 842 315 877 c 0,0,1
EndSplineSet
EndChar
StartChar: Euro
Encoding: 8364 8364 98
Width: 1749
VWidth: 3622
Flags: W
HStem: -4 126<978.723 1365.57> 573 126<178.301 355.104 513 949 949 1385 1417 1448.76> 1043.5 134.5<281.785 352 352 416.485 416.485 449 656 1526.23> 1638 138<1183.68 1667.24>
VStem: 382 131<330.626 536.774>
Fore
218 559 m 2,0,1
 175 559 175 559 158.5 579.5 c 128,-1,2
 142 600 142 600 149 624 c 0,3,4
 152 649 152 649 177.5 668.5 c 128,-1,5
 203 688 203 688 244 692 c 2,6,-1
 368 700 l 1,7,8
 371 736 371 736 378.5 774 c 128,-1,9
 386 812 386 812 394 849 c 0,10,11
 405 900 405 900 417.5 948 c 128,-1,12
 430 996 430 996 449 1042 c 1,13,14
 416 1042 416 1042 384 1043.5 c 128,-1,15
 352 1045 352 1045 320 1045 c 0,16,17
 278 1045 278 1045 262 1066.5 c 128,-1,18
 246 1088 246 1088 251 1113 c 256,19,20
 256 1137 256 1137 281 1159.5 c 128,-1,21
 306 1182 306 1182 348 1182 c 2,22,-1
 520 1178 l 1,23,24
 585 1321 585 1321 685 1432.5 c 128,-1,25
 785 1544 785 1544 907 1620 c 128,-1,26
 1029 1696 1029 1696 1169 1736 c 128,-1,27
 1309 1776 1309 1776 1454 1776 c 0,28,29
 1580 1776 1580 1776 1714 1742.5 c 128,-1,30
 1848 1709 1848 1709 1972 1636 c 0,31,32
 1995 1618 1995 1618 2003 1598 c 128,-1,33
 2011 1578 2011 1578 2008 1560 c 0,34,35
 2004 1541 2004 1541 1991.5 1526 c 128,-1,36
 1979 1511 1979 1511 1963 1501 c 128,-1,37
 1947 1491 1947 1491 1928 1490 c 128,-1,38
 1909 1489 1909 1489 1891 1498 c 0,39,40
 1774 1565 1774 1565 1657.5 1601.5 c 128,-1,41
 1541 1638 1541 1638 1420 1638 c 0,42,43
 1302 1638 1302 1638 1190.5 1607 c 128,-1,44
 1079 1576 1079 1576 973 1511 c 0,45,46
 872 1450 872 1450 795 1368 c 128,-1,47
 718 1286 718 1286 656 1178 c 1,48,-1
 1512 1171 l 2,49,50
 1553 1171 1553 1171 1570 1149 c 128,-1,51
 1587 1127 1587 1127 1581 1102 c 256,52,53
 1576 1077 1576 1077 1550.5 1056 c 128,-1,54
 1525 1035 1525 1035 1484 1035 c 2,55,-1
 585 1042 l 1,56,57
 566 992 566 992 550 937.5 c 128,-1,58
 534 883 534 883 522 824 c 0,59,60
 515 794 515 794 508.5 758.5 c 128,-1,61
 502 723 502 723 501 699 c 1,62,-1
 1417 706 l 1,63,64
 1452 700 1452 700 1468 681 c 128,-1,65
 1484 662 1484 662 1479 637 c 256,66,67
 1473 612 1473 612 1449.5 592.5 c 128,-1,68
 1426 573 1426 573 1385 573 c 2,69,-1
 513 562 l 1,70,71
 536 446 536 446 599.5 362 c 128,-1,72
 663 278 663 278 755 225 c 128,-1,73
 847 172 847 172 960.5 147 c 128,-1,74
 1074 122 1074 122 1194 122 c 0,75,76
 1305 122 1305 122 1417.5 144 c 128,-1,77
 1530 166 1530 166 1622 216 c 0,78,79
 1647 226 1647 226 1664.5 214 c 128,-1,80
 1682 202 1682 202 1689 180.5 c 128,-1,81
 1696 159 1696 159 1691.5 137 c 128,-1,82
 1687 115 1687 115 1666 106 c 1,83,-1
 1668 106 l 1,84,85
 1551 53 1551 53 1416 24.5 c 128,-1,86
 1281 -4 1281 -4 1143 -4 c 0,87,88
 1006 -4 1006 -4 877 27 c 128,-1,89
 748 58 748 58 643.5 126.5 c 128,-1,90
 539 195 539 195 468.5 301 c 128,-1,91
 398 407 398 407 382 559 c 1,92,-1
 218 559 l 2,0,1
EndSplineSet
EndChar
StartChar: quotesinglbase
Encoding: 8218 8218 99
Width: 456
VWidth: 3622
Flags: W
HStem: -343 603<53 278 278 278> 159 101<230.219 289.344>
VStem: 8 411<-306 111 -306 -306>
Fore
97 -327 m 0,0,1
 74 -343 74 -343 53 -343 c 128,-1,2
 32 -343 32 -343 20.5 -333.5 c 128,-1,3
 9 -324 9 -324 8 -306 c 128,-1,4
 7 -288 7 -288 27 -267 c 0,5,6
 62 -235 62 -235 91 -207.5 c 128,-1,7
 120 -180 120 -180 146 -155.5 c 128,-1,8
 172 -131 172 -131 196.5 -104.5 c 128,-1,9
 221 -78 221 -78 248 -46 c 1,10,11
 239 -48 239 -48 232 -48 c 128,-1,12
 225 -48 225 -48 216 -48 c 0,13,14
 156 -48 156 -48 115 -8 c 128,-1,15
 74 32 74 32 90 108 c 0,16,17
 108 161 108 161 158.5 208 c 128,-1,18
 209 255 209 255 278 260 c 0,19,20
 313 262 313 262 340.5 249.5 c 128,-1,21
 368 237 368 237 386.5 216 c 128,-1,22
 405 195 405 195 413 167.5 c 128,-1,23
 421 140 421 140 419 111 c 0,24,25
 409 53 409 53 374.5 -11.5 c 128,-1,26
 340 -76 340 -76 293 -136 c 128,-1,27
 246 -196 246 -196 194 -246.5 c 128,-1,28
 142 -297 142 -297 97 -327 c 0,0,1
193 110 m 0,29,30
 186 83 186 83 198 63.5 c 128,-1,31
 210 44 210 44 237 48 c 0,32,33
 269 55 269 55 285 71.5 c 128,-1,34
 301 88 301 88 310 108 c 0,35,36
 317 124 317 124 302 141.5 c 128,-1,37
 287 159 287 159 262 159 c 0,38,39
 241 159 241 159 219.5 146.5 c 128,-1,40
 198 134 198 134 193 110 c 0,29,30
EndSplineSet
EndChar
StartChar: florin
Encoding: 402 402 100
Width: 1383
VWidth: 3622
Flags: W
HStem: -172.5 119.5<138.594 167.819 153.207 227.519 201.892 253.927> 911 108<479 768 929 1253.36> 1580 120<1258.3 1495.42>
Fore
1519 1565 m 0,0,1
 1459 1580 1459 1580 1419 1580 c 0,2,3
 1332 1580 1332 1580 1257.5 1536.5 c 128,-1,4
 1183 1493 1183 1493 1122 1417 c 128,-1,5
 1061 1341 1061 1341 1013.5 1239 c 128,-1,6
 966 1137 966 1137 929 1019 c 1,7,-1
 1205 1019 l 2,8,9
 1263 1019 1263 1019 1256 966 c 0,10,11
 1247 911 1247 911 1182 911 c 2,12,-1
 900 911 l 1,13,14
 844 676 844 676 785.5 505 c 128,-1,15
 727 334 727 334 667.5 215 c 128,-1,16
 608 96 608 96 547 21.5 c 128,-1,17
 486 -53 486 -53 427 -95.5 c 128,-1,18
 368 -138 368 -138 308.5 -154 c 128,-1,19
 249 -170 249 -170 195 -173 c 0,20,21
 170 -173 170 -173 140.5 -172.5 c 128,-1,22
 111 -172 111 -172 85 -168 c 0,23,24
 28 -157 28 -157 9 -131 c 0,25,26
 -21 -83 -21 -83 34 -46 c 1,27,-1
 32 -50 l 1,28,29
 48 -35 48 -35 71 -28 c 0,30,31
 80 -25 80 -25 88 -28 c 0,32,33
 119 -42 119 -42 138 -47.5 c 128,-1,34
 157 -53 157 -53 179 -53 c 0,35,36
 189 -53 189 -53 201.5 -52 c 128,-1,37
 214 -51 214 -51 232 -50 c 0,38,39
 394 -42 394 -42 529.5 196.5 c 128,-1,40
 665 435 665 435 768 911 c 1,41,-1
 524 911 l 2,42,43
 476 906 476 906 476 957 c 0,44,45
 481 1017 481 1017 543 1019 c 2,46,-1
 803 1019 l 1,47,48
 840 1151 840 1151 896 1275 c 128,-1,49
 952 1399 952 1399 1029.5 1493 c 128,-1,50
 1107 1587 1107 1587 1208 1643.5 c 128,-1,51
 1309 1700 1309 1700 1436 1700 c 0,52,53
 1473 1700 1473 1700 1508.5 1694.5 c 128,-1,54
 1544 1689 1544 1689 1580 1680 c 1,55,56
 1626 1659 1626 1659 1603 1604 c 0,57,58
 1590 1574 1590 1574 1568 1565.5 c 128,-1,59
 1546 1557 1546 1557 1519 1565 c 0,0,1
EndSplineSet
EndChar
StartChar: quotedblbase
Encoding: 8222 8222 101
Width: 971
VWidth: 3622
Flags: W
HStem: -48 96<209.164 250.451 671.093 697.75>
VStem: 17 867<-291 111 139.093 165.75>
Fore
108 -322 m 0,0,1
 87 -345 87 -345 62 -346.5 c 128,-1,2
 37 -348 37 -348 23 -333 c 256,3,4
 9 -317 9 -317 17 -291 c 128,-1,5
 25 -265 25 -265 69 -228 c 0,6,7
 108 -193 108 -193 159 -143.5 c 128,-1,8
 210 -94 210 -94 251 -46 c 1,9,10
 242 -48 242 -48 235 -48 c 128,-1,11
 228 -48 228 -48 219 -48 c 0,12,13
 189 -48 189 -48 162.5 -38 c 128,-1,14
 136 -28 136 -28 117.5 -8 c 128,-1,15
 99 12 99 12 91 41.5 c 128,-1,16
 83 71 83 71 92 108 c 0,17,18
 110 161 110 161 160 208 c 128,-1,19
 210 255 210 255 281 260 c 0,20,21
 317 262 317 262 344 249.5 c 128,-1,22
 371 237 371 237 390 216 c 128,-1,23
 409 195 409 195 417 167.5 c 128,-1,24
 425 140 425 140 423 111 c 0,25,26
 412 44 412 44 376 -18.5 c 128,-1,27
 340 -81 340 -81 293 -137 c 128,-1,28
 246 -193 246 -193 195.5 -240.5 c 128,-1,29
 145 -288 145 -288 108 -322 c 0,0,1
196 110 m 0,30,31
 189 83 189 83 201.5 63.5 c 128,-1,32
 214 44 214 44 241 48 c 1,33,34
 267 44 267 44 284.5 63.5 c 128,-1,35
 302 83 302 83 311 108 c 0,36,37
 317 126 317 126 307 141 c 128,-1,38
 297 156 297 156 265 159 c 0,39,40
 242 163 242 163 222 148.5 c 128,-1,41
 202 134 202 134 196 110 c 0,30,31
591 -302 m 0,42,43
 545 -340 545 -340 522 -344 c 128,-1,44
 499 -348 499 -348 485 -333 c 0,45,46
 458 -301 458 -301 478 -279 c 2,47,-1
 532 -228 l 2,48,49
 570 -193 570 -193 623 -141.5 c 128,-1,50
 676 -90 676 -90 715 -44 c 1,51,52
 706 -46 706 -46 698 -47 c 128,-1,53
 690 -48 690 -48 681 -48 c 0,54,55
 621 -48 621 -48 580 -8 c 128,-1,56
 539 32 539 32 555 108 c 0,57,58
 564 134 564 134 582 160 c 128,-1,59
 600 186 600 186 623.5 207 c 128,-1,60
 647 228 647 228 677.5 242 c 128,-1,61
 708 256 708 256 743 260 c 0,62,63
 778 262 778 262 805.5 249.5 c 128,-1,64
 833 237 833 237 851.5 216 c 128,-1,65
 870 195 870 195 878 167.5 c 128,-1,66
 886 140 886 140 884 111 c 0,67,68
 877 50 877 50 842 -11.5 c 128,-1,69
 807 -73 807 -73 761.5 -128.5 c 128,-1,70
 716 -184 716 -184 668.5 -229 c 128,-1,71
 621 -274 621 -274 591 -302 c 0,42,43
658 110 m 0,72,73
 651 83 651 83 663.5 63.5 c 128,-1,74
 676 44 676 44 702 48 c 1,75,76
 729 44 729 44 746.5 62.5 c 128,-1,77
 764 81 764 81 773 101 c 0,78,79
 782 119 782 119 771.5 137.5 c 128,-1,80
 761 156 761 156 727 159 c 0,81,82
 706 163 706 163 684.5 148.5 c 128,-1,83
 663 134 663 134 658 110 c 0,72,73
EndSplineSet
EndChar
StartChar: ellipsis
Encoding: 8230 8230 102
Width: 2608
VWidth: 3622
Flags: W
HStem: -4 218<454.824 485.418 1282.8 1312.21 2115.8 2145.21>
Fore
361 106 m 0,0,1
 366 127 366 127 378.5 146.5 c 128,-1,2
 391 166 391 166 409.5 181 c 128,-1,3
 428 196 428 196 450 205 c 128,-1,4
 472 214 472 214 495 214 c 0,5,6
 534 214 534 214 562.5 181.5 c 128,-1,7
 591 149 591 149 582 106 c 0,8,9
 577 85 577 85 562.5 64.5 c 128,-1,10
 548 44 548 44 529.5 29 c 128,-1,11
 511 14 511 14 490 5 c 128,-1,12
 469 -4 469 -4 449 -4 c 0,13,14
 403 -4 403 -4 377.5 29 c 128,-1,15
 352 62 352 62 361 106 c 0,0,1
1189 106 m 0,16,17
 1194 127 1194 127 1206.5 146.5 c 128,-1,18
 1219 166 1219 166 1237.5 181 c 128,-1,19
 1256 196 1256 196 1278 205 c 128,-1,20
 1300 214 1300 214 1321 214 c 0,21,22
 1362 214 1362 214 1389.5 181.5 c 128,-1,23
 1417 149 1417 149 1408 106 c 0,24,25
 1403 85 1403 85 1389.5 64.5 c 128,-1,26
 1376 44 1376 44 1357.5 29 c 128,-1,27
 1339 14 1339 14 1317 5 c 128,-1,28
 1295 -4 1295 -4 1275 -4 c 0,29,30
 1231 -4 1231 -4 1205.5 29 c 128,-1,31
 1180 62 1180 62 1189 106 c 0,16,17
2022 106 m 0,32,33
 2027 127 2027 127 2039.5 146.5 c 128,-1,34
 2052 166 2052 166 2070.5 181 c 128,-1,35
 2089 196 2089 196 2111 205 c 128,-1,36
 2133 214 2133 214 2154 214 c 0,37,38
 2195 214 2195 214 2223.5 181.5 c 128,-1,39
 2252 149 2252 149 2243 106 c 0,40,41
 2238 85 2238 85 2223.5 64.5 c 128,-1,42
 2209 44 2209 44 2190.5 29 c 128,-1,43
 2172 14 2172 14 2150 5 c 128,-1,44
 2128 -4 2128 -4 2108 -4 c 0,45,46
 2064 -4 2064 -4 2038.5 29 c 128,-1,47
 2013 62 2013 62 2022 106 c 0,32,33
EndSplineSet
EndChar
StartChar: dagger
Encoding: 8224 8224 103
Width: 1383
VWidth: 3622
Flags: W
HStem: 1051 131<393.05 518.969 518.969 519.158 519.158 654.035 654.035 714.453 714.453 749.731 749.731 815 1199.57 1226 1259.5 1299.49 1299.49 1315.78> 1060 127<989 1020.16 1020.16 1105.76 1105.76 1224.12>
VStem: 952 141<1643.84 1716.14>
Fore
440 1171 m 0,0,1
 532 1174 532 1174 597.5 1177 c 128,-1,2
 663 1180 663 1180 710 1181 c 128,-1,3
 757 1182 757 1182 789 1182 c 128,-1,4
 821 1182 821 1182 845 1182 c 1,5,-1
 952 1677 l 2,6,7
 955 1709 955 1709 981.5 1728.5 c 128,-1,8
 1008 1748 1008 1748 1035 1748 c 0,9,10
 1063 1748 1063 1748 1082.5 1730 c 128,-1,11
 1102 1712 1102 1712 1093 1675 c 2,12,-1
 989 1187 l 1,13,14
 1038 1187 1038 1187 1102 1187 c 128,-1,15
 1166 1187 1166 1187 1226 1183 c 0,16,17
 1298 1180 1298 1180 1350.5 1171 c 128,-1,18
 1403 1162 1403 1162 1412 1139 c 0,19,20
 1419 1120 1419 1120 1415.5 1102 c 128,-1,21
 1412 1084 1412 1084 1400.5 1071 c 128,-1,22
 1389 1058 1389 1058 1372 1050 c 128,-1,23
 1355 1042 1355 1042 1339 1045 c 0,24,25
 1307 1049 1307 1049 1259.5 1051.5 c 128,-1,26
 1212 1054 1212 1054 1159 1056 c 128,-1,27
 1106 1058 1106 1058 1052.5 1059 c 128,-1,28
 999 1060 999 1060 959 1060 c 1,29,-1
 741 -46 l 1,30,31
 713 -110 713 -110 651 -104 c 0,32,33
 594 -96 594 -96 605 -48 c 2,34,-1
 815 1051 l 1,35,36
 716 1047 716 1047 617 1042.5 c 128,-1,37
 518 1038 518 1038 421 1038 c 0,38,39
 389 1038 389 1038 376.5 1059.5 c 128,-1,40
 364 1081 364 1081 370 1106 c 0,41,42
 375 1128 375 1128 392.5 1147.5 c 128,-1,43
 410 1167 410 1167 440 1171 c 0,0,1
EndSplineSet
EndChar
StartChar: daggerdbl
Encoding: 8225 8225 104
Width: 1383
VWidth: 3622
Flags: W
HStem: 446 112<459.716 512.121 513.873 598.062 598.062 676.43 676.43 683.181 683.181 713 876 947.852 947.852 989.849 994.155 1020.5 1125 1191.19> 1060 134<405.567 475.742 475.742 537.642 537.642 569.392 569.392 673.55 673.55 679 679 769.488 769.488 785.458 785.458 835 1286.04 1341.19> 1082.5 126.5<1008 1038.95 1038.95 1045.57 1045.57 1128.94 1128.94 1178.28>
Fore
713 444 m 1,0,1
 681 446 681 446 653.5 446 c 128,-1,2
 626 446 626 446 596 446 c 0,3,4
 578 446 578 446 559.5 446 c 128,-1,5
 541 446 541 446 513 444 c 128,-1,6
 485 442 485 442 441.5 440.5 c 128,-1,7
 398 439 398 439 333 435 c 0,8,9
 310 433 310 433 299 448 c 128,-1,10
 288 463 288 463 287.5 483.5 c 128,-1,11
 287 504 287 504 296.5 521.5 c 128,-1,12
 306 539 306 539 324 541 c 0,13,14
 403 550 403 550 458 553.5 c 128,-1,15
 513 557 513 557 556.5 558 c 128,-1,16
 600 559 600 559 639.5 558 c 128,-1,17
 679 557 679 557 729 561 c 1,18,19
 757 693 757 693 781 816 c 128,-1,20
 805 939 805 939 835 1074 c 1,21,22
 792 1072 792 1072 735.5 1072 c 128,-1,23
 679 1072 679 1072 622.5 1071 c 128,-1,24
 566 1070 566 1070 516.5 1067.5 c 128,-1,25
 467 1065 467 1065 440 1060 c 1,26,27
 414 1060 414 1060 400.5 1075 c 128,-1,28
 387 1090 387 1090 387 1111 c 0,29,30
 387 1136 387 1136 405 1162.5 c 128,-1,31
 423 1189 423 1189 458 1194 c 0,32,33
 550 1197 550 1197 616.5 1200 c 128,-1,34
 683 1203 683 1203 730 1204 c 128,-1,35
 777 1205 777 1205 808.5 1205 c 128,-1,36
 840 1205 840 1205 865 1205 c 1,37,-1
 971 1698 l 2,38,39
 975 1730 975 1730 1000.5 1749.5 c 128,-1,40
 1026 1769 1026 1769 1052 1769 c 0,41,42
 1088 1769 1088 1769 1100.5 1748.5 c 128,-1,43
 1113 1728 1113 1728 1113 1698 c 1,44,-1
 1008 1208 l 1,45,46
 1040 1208 1040 1208 1083.5 1209 c 128,-1,47
 1127 1210 1127 1210 1174.5 1209 c 128,-1,48
 1222 1208 1222 1208 1269 1205.5 c 128,-1,49
 1316 1203 1316 1203 1353 1196.5 c 128,-1,50
 1390 1190 1390 1190 1413 1178.5 c 128,-1,51
 1436 1167 1436 1167 1438 1150 c 0,52,53
 1438 1143 1438 1143 1435.5 1128.5 c 128,-1,54
 1433 1114 1433 1114 1425 1100 c 128,-1,55
 1417 1086 1417 1086 1403.5 1075.5 c 128,-1,56
 1390 1065 1390 1065 1369 1065 c 0,57,58
 1334 1065 1334 1065 1284.5 1068.5 c 128,-1,59
 1235 1072 1235 1072 1180 1076.5 c 128,-1,60
 1125 1081 1125 1081 1071 1082.5 c 128,-1,61
 1017 1084 1017 1084 976 1081 c 1,62,-1
 876 571 l 1,63,64
 923 571 923 571 992 572 c 128,-1,65
 1061 573 1061 573 1125 567.5 c 128,-1,66
 1189 562 1189 562 1234 547 c 128,-1,67
 1279 532 1279 532 1279 501 c 0,68,69
 1279 474 1279 474 1255 450 c 128,-1,70
 1231 426 1231 426 1194 426 c 0,71,72
 1104 426 1104 426 1020.5 437 c 128,-1,73
 937 448 937 448 851 440 c 1,74,-1
 759 -27 l 1,75,76
 748 -50 748 -50 725 -65 c 128,-1,77
 702 -80 702 -80 679 -83.5 c 128,-1,78
 656 -87 656 -87 638.5 -77 c 128,-1,79
 621 -67 621 -67 621 -41 c 0,80,81
 621 -39 621 -39 622.5 -30 c 128,-1,82
 624 -21 624 -21 632 24 c 128,-1,83
 640 69 640 69 658.5 167 c 128,-1,84
 677 265 677 265 713 444 c 1,0,1
EndSplineSet
EndChar
StartChar: circumflex
Encoding: 710 710 105
Width: 1162
VWidth: 3622
Flags: W
HStem: 1639.5 334.5<955 1194 944.546 964.625>
VStem: 559 669<1677 1702 1686.5 1702 1686.5 1686.5>
Fore
660 1672 m 0,0,1
 633 1652 633 1652 609 1649.5 c 128,-1,2
 585 1647 585 1647 572 1656.5 c 128,-1,3
 559 1666 559 1666 559 1686.5 c 128,-1,4
 559 1707 559 1707 584 1732 c 0,5,6
 674 1804 674 1804 735 1850 c 128,-1,7
 796 1896 796 1896 836.5 1922.5 c 128,-1,8
 877 1949 877 1949 904.5 1960.5 c 128,-1,9
 932 1972 932 1972 955 1974 c 0,10,11
 983 1976 983 1976 1009 1964.5 c 128,-1,12
 1035 1953 1035 1953 1065 1922 c 128,-1,13
 1095 1891 1095 1891 1133 1837 c 128,-1,14
 1171 1783 1171 1783 1228 1702 c 1,15,16
 1238 1677 1238 1677 1226.5 1661 c 128,-1,17
 1215 1645 1215 1645 1194 1639.5 c 128,-1,18
 1173 1634 1173 1634 1150 1639.5 c 128,-1,19
 1127 1645 1127 1645 1114 1661 c 2,20,-1
 1022 1781 l 2,21,22
 1003 1808 1003 1808 990.5 1824 c 128,-1,23
 978 1840 978 1840 969 1847.5 c 128,-1,24
 960 1855 960 1855 953 1858 c 128,-1,25
 946 1861 946 1861 936 1861 c 0,26,27
 920 1861 920 1861 901.5 1853 c 128,-1,28
 883 1845 883 1845 853.5 1824.5 c 128,-1,29
 824 1804 824 1804 777.5 1767 c 128,-1,30
 731 1730 731 1730 660 1672 c 0,0,1
EndSplineSet
EndChar
StartChar: perthousand
Encoding: 8240 8240 106
Width: 2228
VWidth: 3622
Flags: W
HStem: 103 118<1137.44 1309.7 1751.76 1924.4> 529 124<1217.5 1392.37 1831.2 1982.04> 923 119<639.478 813.719> 1350 122<720.862 870.154>
VStem: 485 123<1074.17 1209.26> 980 126<253.035 389.199> 1595 126<252.994 388.435>
Fore
603 35 m 2,0,1
 587 9 587 9 558 -2.5 c 128,-1,2
 529 -14 529 -14 505 -9.5 c 128,-1,3
 481 -5 481 -5 472 17 c 128,-1,4
 463 39 463 39 492 81 c 2,5,-1
 1390 1528 l 2,6,7
 1406 1551 1406 1551 1430 1557.5 c 128,-1,8
 1454 1564 1454 1564 1474.5 1556.5 c 128,-1,9
 1495 1549 1495 1549 1503.5 1530.5 c 128,-1,10
 1512 1512 1512 1512 1500 1488 c 2,11,-1
 603 35 l 2,0,1
1028 1192 m 0,12,13
 1017 1146 1017 1146 990.5 1098.5 c 128,-1,14
 964 1051 964 1051 923.5 1012 c 128,-1,15
 883 973 883 973 830 948 c 128,-1,16
 777 923 777 923 711 923 c 0,17,18
 654 923 654 923 612 941 c 128,-1,19
 570 959 570 959 541.5 990 c 128,-1,20
 513 1021 513 1021 499 1060.5 c 128,-1,21
 485 1100 485 1100 485 1146 c 0,22,23
 485 1199 485 1199 509.5 1256.5 c 128,-1,24
 534 1314 534 1314 579 1362 c 128,-1,25
 624 1410 624 1410 687 1441 c 128,-1,26
 750 1472 750 1472 828 1472 c 0,27,28
 891 1472 891 1472 933.5 1447 c 128,-1,29
 976 1422 976 1422 1000 1382.5 c 128,-1,30
 1024 1343 1024 1343 1030.5 1293 c 128,-1,31
 1037 1243 1037 1243 1028 1192 c 0,12,13
920 1190 m 0,32,33
 925 1219 925 1219 919.5 1247 c 128,-1,34
 914 1275 914 1275 900 1298 c 128,-1,35
 886 1321 886 1321 862 1335.5 c 128,-1,36
 838 1350 838 1350 807 1350 c 0,37,38
 766 1350 766 1350 729.5 1335.5 c 128,-1,39
 693 1321 693 1321 666.5 1296.5 c 128,-1,40
 640 1272 640 1272 624 1238.5 c 128,-1,41
 608 1205 608 1205 608 1167 c 0,42,43
 608 1114 608 1114 642.5 1078 c 128,-1,44
 677 1042 677 1042 741 1042 c 0,45,46
 803 1042 803 1042 851.5 1085 c 128,-1,47
 900 1128 900 1128 920 1190 c 0,32,33
1525 373 m 0,48,49
 1514 315 1514 315 1484 265.5 c 128,-1,50
 1454 216 1454 216 1411.5 179.5 c 128,-1,51
 1369 143 1369 143 1317 123 c 128,-1,52
 1265 103 1265 103 1208 103 c 256,53,54
 1151 103 1151 103 1109 120.5 c 128,-1,55
 1067 138 1067 138 1038.5 168 c 128,-1,56
 1010 198 1010 198 995 238.5 c 128,-1,57
 980 279 980 279 980 325 c 0,58,59
 980 380 980 380 1005.5 438.5 c 128,-1,60
 1031 497 1031 497 1076 545 c 128,-1,61
 1121 593 1121 593 1185 623 c 128,-1,62
 1249 653 1249 653 1325 653 c 0,63,64
 1385 653 1385 653 1428.5 628 c 128,-1,65
 1472 603 1472 603 1497.5 563.5 c 128,-1,66
 1523 524 1523 524 1530 473.5 c 128,-1,67
 1537 423 1537 423 1525 373 c 0,48,49
1415 371 m 1,68,69
 1424 432 1424 432 1395.5 480.5 c 128,-1,70
 1367 529 1367 529 1302 529 c 0,71,72
 1261 529 1261 529 1225 514 c 128,-1,73
 1189 499 1189 499 1162.5 474 c 128,-1,74
 1136 449 1136 449 1121 416.5 c 128,-1,75
 1106 384 1106 384 1106 347 c 0,76,77
 1106 294 1106 294 1140 257.5 c 128,-1,78
 1174 221 1174 221 1236 221 c 256,79,80
 1298 221 1298 221 1347 265.5 c 128,-1,81
 1396 310 1396 310 1415 371 c 1,68,69
2140 373 m 0,82,83
 2130 325 2130 325 2103.5 276.5 c 128,-1,84
 2077 228 2077 228 2035 189 c 128,-1,85
 1993 150 1993 150 1939.5 126.5 c 128,-1,86
 1886 103 1886 103 1822 103 c 0,87,88
 1767 103 1767 103 1724.5 119.5 c 128,-1,89
 1682 136 1682 136 1654 166 c 128,-1,90
 1626 196 1626 196 1610.5 237 c 128,-1,91
 1595 278 1595 278 1595 325 c 0,92,93
 1595 380 1595 380 1621 438.5 c 128,-1,94
 1647 497 1647 497 1692 545 c 128,-1,95
 1737 593 1737 593 1800 623 c 128,-1,96
 1863 653 1863 653 1939 653 c 0,97,98
 2001 653 2001 653 2043 628 c 128,-1,99
 2085 603 2085 603 2110 563.5 c 128,-1,100
 2135 524 2135 524 2142 473.5 c 128,-1,101
 2149 423 2149 423 2140 373 c 0,82,83
2031 371 m 0,102,103
 2036 402 2036 402 2030.5 430 c 128,-1,104
 2025 458 2025 458 2010 480 c 128,-1,105
 1995 502 1995 502 1971 515.5 c 128,-1,106
 1947 529 1947 529 1916 529 c 0,107,108
 1873 529 1873 529 1837.5 514 c 128,-1,109
 1802 499 1802 499 1776.5 474 c 128,-1,110
 1751 449 1751 449 1736 415.5 c 128,-1,111
 1721 382 1721 382 1721 345 c 0,112,113
 1721 294 1721 294 1754.5 257.5 c 128,-1,114
 1788 221 1788 221 1850 221 c 256,115,116
 1912 221 1912 221 1961.5 265.5 c 128,-1,117
 2011 310 2011 310 2031 371 c 0,102,103
EndSplineSet
EndChar
StartChar: guilsinglleft
Encoding: 8249 8249 108
Width: 677
VWidth: 3622
Flags: W
HStem: 230 122<516.71 682.164>
VStem: 248 131<603.647 668.384>
Fore
640 352 m 0,0,1
 672 341 672 341 682 319 c 128,-1,2
 692 297 692 297 685.5 276 c 128,-1,3
 679 255 679 255 658 240.5 c 128,-1,4
 637 226 637 226 607 230 c 0,5,6
 525 249 525 249 459 300.5 c 128,-1,7
 393 352 393 352 346 414 c 128,-1,8
 299 476 299 476 273.5 538.5 c 128,-1,9
 248 601 248 601 248 642 c 0,10,11
 248 670 248 670 290.5 732 c 128,-1,12
 333 794 333 794 408 865 c 128,-1,13
 483 936 483 936 584.5 1000.5 c 128,-1,14
 686 1065 686 1065 805 1097 c 1,15,16
 847 1100 847 1100 863 1087 c 128,-1,17
 879 1074 879 1074 875.5 1053.5 c 128,-1,18
 872 1033 872 1033 851 1011 c 128,-1,19
 830 989 830 989 798 978 c 0,20,21
 702 950 702 950 624.5 897.5 c 128,-1,22
 547 845 547 845 492 793 c 128,-1,23
 437 741 437 741 408 699.5 c 128,-1,24
 379 658 379 658 379 653 c 0,25,26
 379 630 379 630 394.5 587.5 c 128,-1,27
 410 545 410 545 443 499 c 128,-1,28
 476 453 476 453 525.5 412 c 128,-1,29
 575 371 575 371 640 352 c 0,0,1
EndSplineSet
EndChar
